G04 #@! TF.GenerationSoftware,KiCad,Pcbnew,8.0.5*
G04 #@! TF.CreationDate,2024-09-14T22:06:27+02:00*
G04 #@! TF.ProjectId,midi2cv,6d696469-3263-4762-9e6b-696361645f70,rev?*
G04 #@! TF.SameCoordinates,Original*
G04 #@! TF.FileFunction,Copper,L1,Top*
G04 #@! TF.FilePolarity,Positive*
%FSLAX46Y46*%
G04 Gerber Fmt 4.6, Leading zero omitted, Abs format (unit mm)*
G04 Created by KiCad (PCBNEW 8.0.5) date 2024-09-14 22:06:27*
%MOMM*%
%LPD*%
G01*
G04 APERTURE LIST*
G04 #@! TA.AperFunction,ComponentPad*
%ADD10C,1.600000*%
G04 #@! TD*
G04 #@! TA.AperFunction,ComponentPad*
%ADD11R,1.600000X2.400000*%
G04 #@! TD*
G04 #@! TA.AperFunction,ComponentPad*
%ADD12O,1.600000X2.400000*%
G04 #@! TD*
G04 #@! TA.AperFunction,ComponentPad*
%ADD13O,1.600000X1.600000*%
G04 #@! TD*
G04 #@! TA.AperFunction,ComponentPad*
%ADD14C,2.000000*%
G04 #@! TD*
G04 #@! TA.AperFunction,ComponentPad*
%ADD15R,1.600000X1.600000*%
G04 #@! TD*
G04 #@! TA.AperFunction,ComponentPad*
%ADD16C,6.000000*%
G04 #@! TD*
G04 #@! TA.AperFunction,ComponentPad*
%ADD17O,2.400000X1.600000*%
G04 #@! TD*
G04 #@! TA.AperFunction,ComponentPad*
%ADD18R,2.400000X1.600000*%
G04 #@! TD*
G04 #@! TA.AperFunction,ComponentPad*
%ADD19R,1.700000X1.700000*%
G04 #@! TD*
G04 #@! TA.AperFunction,ComponentPad*
%ADD20O,1.700000X1.700000*%
G04 #@! TD*
G04 #@! TA.AperFunction,ComponentPad*
%ADD21O,1.905000X2.000000*%
G04 #@! TD*
G04 #@! TA.AperFunction,ComponentPad*
%ADD22R,1.905000X2.000000*%
G04 #@! TD*
G04 #@! TA.AperFunction,ComponentPad*
%ADD23R,2.200000X2.200000*%
G04 #@! TD*
G04 #@! TA.AperFunction,ComponentPad*
%ADD24O,2.200000X2.200000*%
G04 #@! TD*
G04 #@! TA.AperFunction,ComponentPad*
%ADD25C,1.500000*%
G04 #@! TD*
G04 #@! TA.AperFunction,ComponentPad*
%ADD26R,1.500000X1.500000*%
G04 #@! TD*
G04 #@! TA.AperFunction,SMDPad,CuDef*
%ADD27R,1.700000X3.500000*%
G04 #@! TD*
G04 #@! TA.AperFunction,SMDPad,CuDef*
%ADD28R,3.500000X1.700000*%
G04 #@! TD*
G04 #@! TA.AperFunction,ViaPad*
%ADD29C,1.422400*%
G04 #@! TD*
G04 #@! TA.AperFunction,Conductor*
%ADD30C,0.508000*%
G04 #@! TD*
G04 #@! TA.AperFunction,Conductor*
%ADD31C,0.889000*%
G04 #@! TD*
G04 #@! TA.AperFunction,Conductor*
%ADD32C,0.750000*%
G04 #@! TD*
G04 APERTURE END LIST*
D10*
X139960528Y-86673867D03*
X144960528Y-86673867D03*
D11*
X80274000Y-99075000D03*
D12*
X82814000Y-99075000D03*
X85354000Y-99075000D03*
X87894000Y-99075000D03*
X87894000Y-91455000D03*
X85354000Y-91455000D03*
X82814000Y-91455000D03*
X80274000Y-91455000D03*
D10*
X85217000Y-71120000D03*
D13*
X85217000Y-78740000D03*
D10*
X80645000Y-84836000D03*
D13*
X88265000Y-84836000D03*
D10*
X88265000Y-88138000D03*
D13*
X80645000Y-88138000D03*
X112649000Y-94869000D03*
D10*
X105029000Y-94869000D03*
D13*
X139954000Y-77089000D03*
D10*
X147574000Y-77089000D03*
X90424000Y-108712000D03*
D13*
X82804000Y-108712000D03*
X90424000Y-105537000D03*
D10*
X82804000Y-105537000D03*
X82804000Y-102362000D03*
D13*
X90424000Y-102362000D03*
D14*
X143764000Y-63246000D03*
X143764000Y-65786000D03*
X143764000Y-68326000D03*
X143764000Y-70866000D03*
X143764000Y-73406000D03*
D10*
X78105000Y-88753000D03*
X78105000Y-86253000D03*
X80665000Y-81788000D03*
X83165000Y-81788000D03*
D15*
X74382621Y-81534000D03*
D10*
X76882621Y-81534000D03*
D15*
X143168379Y-57785000D03*
D10*
X140668379Y-57785000D03*
X80137000Y-104374000D03*
X80137000Y-101874000D03*
D16*
X149000000Y-58000000D03*
D13*
X140081000Y-96960867D03*
D10*
X140081000Y-89340867D03*
D17*
X142714868Y-107941129D03*
X142714868Y-105401129D03*
X142714868Y-102861129D03*
X142714868Y-100321129D03*
X150334868Y-100321129D03*
X150334868Y-102861129D03*
X150334868Y-105401129D03*
D18*
X150334868Y-107941129D03*
D19*
X138876458Y-111070643D03*
D20*
X136336458Y-111070643D03*
X116016458Y-111197643D03*
X118556458Y-111197643D03*
X121096458Y-111197643D03*
D19*
X123636458Y-111197643D03*
D14*
X78486000Y-119253000D03*
X78486000Y-116713000D03*
D10*
X101874000Y-98298000D03*
X104374000Y-98298000D03*
D16*
X109000000Y-58000000D03*
D10*
X109327000Y-98298000D03*
X106827000Y-98298000D03*
D13*
X147560528Y-80323867D03*
D10*
X139940528Y-80323867D03*
X97536000Y-101552379D03*
D15*
X97536000Y-104052379D03*
D14*
X78247230Y-74015237D03*
X78247230Y-71475237D03*
D21*
X104267000Y-101219000D03*
X106807000Y-101219000D03*
D22*
X109347000Y-101219000D03*
D10*
X146798528Y-89340867D03*
D13*
X146798528Y-96960867D03*
X102616000Y-94234000D03*
D10*
X94996000Y-94234000D03*
D23*
X99060000Y-108077000D03*
D24*
X99060000Y-118237000D03*
D25*
X102616000Y-90551000D03*
X100076000Y-90551000D03*
D26*
X97536000Y-90551000D03*
D14*
X78486000Y-112268000D03*
X78486000Y-109728000D03*
D13*
X139934967Y-83615908D03*
D10*
X147554967Y-83615908D03*
D13*
X143496528Y-96960867D03*
D10*
X143496528Y-89340867D03*
X149860000Y-89340867D03*
D13*
X149860000Y-96960867D03*
X91567000Y-94996000D03*
D10*
X91567000Y-87376000D03*
X91564061Y-70612000D03*
D13*
X99184061Y-70612000D03*
D10*
X88770061Y-73660000D03*
D13*
X88770061Y-81280000D03*
D27*
X128619440Y-106597000D03*
D20*
X128619440Y-105697000D03*
D27*
X126079440Y-106597000D03*
D19*
X126079440Y-105697000D03*
D27*
X123539440Y-106597000D03*
D20*
X123539440Y-105697000D03*
D28*
X135869440Y-57667000D03*
D20*
X134969440Y-57667000D03*
D28*
X135869440Y-60207000D03*
D20*
X134969440Y-60207000D03*
D28*
X135869440Y-62747000D03*
D19*
X134969440Y-62747000D03*
D28*
X135869440Y-65287000D03*
D20*
X134969440Y-65287000D03*
D28*
X135869440Y-67827000D03*
D20*
X134969440Y-67827000D03*
D28*
X135869440Y-70367000D03*
D20*
X134969440Y-70367000D03*
D28*
X135869440Y-72907000D03*
D20*
X134969440Y-72907000D03*
D28*
X135869440Y-75447000D03*
D19*
X134969440Y-75447000D03*
D28*
X135869440Y-77987000D03*
D20*
X134969440Y-77987000D03*
D28*
X135869440Y-80527000D03*
D20*
X134969440Y-80527000D03*
D28*
X135869440Y-83067000D03*
D20*
X134969440Y-83067000D03*
D28*
X135869440Y-85607000D03*
D20*
X134969440Y-85607000D03*
D28*
X135869440Y-88147000D03*
D19*
X134969440Y-88147000D03*
D28*
X135869440Y-90687000D03*
D20*
X134969440Y-90687000D03*
D28*
X135869440Y-93227000D03*
D20*
X134969440Y-93227000D03*
D28*
X135869440Y-95767000D03*
D20*
X134969440Y-95767000D03*
D28*
X135869440Y-98307000D03*
D20*
X134969440Y-98307000D03*
D28*
X135869440Y-100847000D03*
D19*
X134969440Y-100847000D03*
D28*
X135869440Y-103387000D03*
D20*
X134969440Y-103387000D03*
D28*
X135869440Y-105927000D03*
D20*
X134969440Y-105927000D03*
D28*
X116289440Y-105927000D03*
D20*
X117189440Y-105927000D03*
D28*
X116289440Y-103387000D03*
D20*
X117189440Y-103387000D03*
D28*
X116289440Y-100847000D03*
D19*
X117189440Y-100847000D03*
D28*
X116289440Y-98307000D03*
D20*
X117189440Y-98307000D03*
D28*
X116289440Y-95767000D03*
D20*
X117189440Y-95767000D03*
D28*
X116289440Y-93227000D03*
D20*
X117189440Y-93227000D03*
D28*
X116289440Y-90687000D03*
D20*
X117189440Y-90687000D03*
D28*
X116289440Y-88147000D03*
D19*
X117189440Y-88147000D03*
D28*
X116289440Y-85607000D03*
D20*
X117189440Y-85607000D03*
D28*
X116289440Y-83067000D03*
D20*
X117189440Y-83067000D03*
D28*
X116289440Y-80527000D03*
D20*
X117189440Y-80527000D03*
D28*
X116289440Y-77987000D03*
D20*
X117189440Y-77987000D03*
D28*
X116289440Y-75447000D03*
D19*
X117189440Y-75447000D03*
D28*
X116289440Y-72907000D03*
D20*
X117189440Y-72907000D03*
D28*
X116289440Y-70367000D03*
D20*
X117189440Y-70367000D03*
D28*
X116289440Y-67827000D03*
D20*
X117189440Y-67827000D03*
D28*
X116289440Y-65287000D03*
D20*
X117189440Y-65287000D03*
D28*
X116289440Y-62747000D03*
D19*
X117189440Y-62747000D03*
D28*
X116289440Y-60207000D03*
D20*
X117189440Y-60207000D03*
D28*
X116289440Y-57667000D03*
D20*
X117189440Y-57667000D03*
D10*
X150481528Y-113323867D03*
X150481528Y-110823867D03*
X112776000Y-91567000D03*
D13*
X105156000Y-91567000D03*
D10*
X142734528Y-110823867D03*
X142734528Y-113323867D03*
D13*
X99184061Y-84836000D03*
D15*
X91564061Y-84836000D03*
D19*
X130235458Y-111127643D03*
D20*
X127695458Y-111127643D03*
D11*
X103971417Y-80152000D03*
D12*
X106511417Y-80152000D03*
X109051417Y-80152000D03*
X111591417Y-80152000D03*
X111591417Y-72532000D03*
X109051417Y-72532000D03*
X106511417Y-72532000D03*
X103971417Y-72532000D03*
X92072061Y-74041000D03*
X94612061Y-74041000D03*
X97152061Y-74041000D03*
X99692061Y-74041000D03*
X99692061Y-81661000D03*
X97152061Y-81661000D03*
X94612061Y-81661000D03*
D11*
X92072061Y-81661000D03*
D29*
X146884434Y-106861566D03*
X147701000Y-102743000D03*
X142825763Y-91771763D03*
X144272000Y-79857600D03*
X141816279Y-88706590D03*
X144272000Y-76962000D03*
X147066000Y-100584000D03*
X101727000Y-117856000D03*
X145531013Y-105508145D03*
X99632731Y-115634731D03*
X74383900Y-95681803D03*
X77254100Y-95681803D03*
X77254100Y-93980000D03*
X74383900Y-93980000D03*
X84109400Y-96139000D03*
X86598600Y-96139000D03*
X91567000Y-92837000D03*
X91567000Y-90043000D03*
X98426230Y-112774770D03*
X100519269Y-110808731D03*
X101346000Y-85090000D03*
X105664000Y-85090000D03*
X103505000Y-68834000D03*
X106267600Y-68834000D03*
D30*
X141986000Y-82143600D02*
X144272000Y-79857600D01*
X141816279Y-88706590D02*
X141986000Y-88536869D01*
X141986000Y-88536869D02*
X141986000Y-82143600D01*
X149211528Y-78613000D02*
X149211528Y-72122528D01*
X147955000Y-70866000D02*
X143764000Y-70866000D01*
X149211528Y-72122528D02*
X147955000Y-70866000D01*
X147701000Y-102743000D02*
X148590000Y-101854000D01*
X148590000Y-101854000D02*
X148590000Y-99568000D01*
X148590000Y-99568000D02*
X149606000Y-98552000D01*
X149606000Y-98552000D02*
X151384000Y-98552000D01*
X151384000Y-98552000D02*
X152094328Y-97841672D01*
X152094328Y-97841672D02*
X152094328Y-64718328D01*
X150622000Y-63246000D02*
X143764000Y-63246000D01*
X152094328Y-64718328D02*
X150622000Y-63246000D01*
X147066000Y-100584000D02*
X147066000Y-98933000D01*
X147066000Y-98933000D02*
X148336000Y-97663000D01*
X151193400Y-90487600D02*
X151193400Y-87058400D01*
X148336000Y-97663000D02*
X148336000Y-93345000D01*
X151130000Y-86995000D02*
X151130000Y-68707000D01*
X148336000Y-93345000D02*
X151193400Y-90487600D01*
X151193400Y-87058400D02*
X151130000Y-86995000D01*
X151130000Y-68707000D02*
X148209000Y-65786000D01*
X148209000Y-65786000D02*
X143764000Y-65786000D01*
X143764000Y-68326000D02*
X148717000Y-68326000D01*
X148840487Y-83615908D02*
X147554967Y-83615908D01*
X148717000Y-68326000D02*
X150114000Y-69723000D01*
X150114000Y-82342395D02*
X148840487Y-83615908D01*
X150114000Y-69723000D02*
X150114000Y-82342395D01*
X143764000Y-70866000D02*
X144145000Y-70485000D01*
X144272000Y-76962000D02*
X140716000Y-73406000D01*
X140716000Y-73406000D02*
X140716000Y-61976000D01*
X140716000Y-61976000D02*
X143168379Y-59523621D01*
X143168379Y-59523621D02*
X143168379Y-57785000D01*
X92939736Y-96798264D02*
X92939736Y-109451276D01*
X80264000Y-111506000D02*
X78486000Y-109728000D01*
X92939736Y-109451276D02*
X90885012Y-111506000D01*
X94996000Y-94234000D02*
X94996000Y-94742000D01*
X94996000Y-94742000D02*
X92939736Y-96798264D01*
X90885012Y-111506000D02*
X80264000Y-111506000D01*
D31*
X98426230Y-112774770D02*
X97155000Y-114046000D01*
X97155000Y-114046000D02*
X80264000Y-114046000D01*
X80264000Y-114046000D02*
X78486000Y-112268000D01*
X100519269Y-110808731D02*
X101089538Y-111379000D01*
X109982000Y-111379000D02*
X113093500Y-108267500D01*
X101089538Y-111379000D02*
X109982000Y-111379000D01*
D30*
X145531013Y-105508145D02*
X145542000Y-105519132D01*
X104140000Y-115443000D02*
X101727000Y-117856000D01*
X139192000Y-119380000D02*
X114300000Y-119380000D01*
X145542000Y-105519132D02*
X145542000Y-113030000D01*
X114300000Y-119380000D02*
X110363000Y-115443000D01*
X145542000Y-113030000D02*
X139192000Y-119380000D01*
X110363000Y-115443000D02*
X104140000Y-115443000D01*
X85217000Y-71120000D02*
X84038837Y-69941837D01*
X84038837Y-69941837D02*
X76870163Y-69941837D01*
X76870163Y-69941837D02*
X71882000Y-74930000D01*
X139446000Y-121031000D02*
X147066000Y-113411000D01*
X147066000Y-113411000D02*
X147066000Y-107043132D01*
X71882000Y-74930000D02*
X71882000Y-118364000D01*
X74549000Y-121031000D02*
X139446000Y-121031000D01*
X71882000Y-118364000D02*
X74549000Y-121031000D01*
X147066000Y-107043132D02*
X146884434Y-106861566D01*
X140081000Y-96960867D02*
X140321528Y-96720339D01*
X140321528Y-91961472D02*
X142942133Y-89340867D01*
X142942133Y-89340867D02*
X143496528Y-89340867D01*
X140321528Y-96720339D02*
X140321528Y-91961472D01*
X142714868Y-102861129D02*
X140321528Y-100467789D01*
X138303000Y-91118867D02*
X140081000Y-89340867D01*
X140321528Y-100467789D02*
X140321528Y-97201395D01*
X140321528Y-97201395D02*
X140081000Y-96960867D01*
X138303000Y-100989261D02*
X138303000Y-91118867D01*
X142714868Y-105401129D02*
X138303000Y-100989261D01*
X140081000Y-89340867D02*
X140081000Y-86794339D01*
X140081000Y-86794339D02*
X139960528Y-86673867D01*
X139954000Y-77089000D02*
X138430000Y-78613000D01*
X137532000Y-90687000D02*
X134969440Y-90687000D01*
X138430000Y-78613000D02*
X138430000Y-89789000D01*
X138430000Y-89789000D02*
X137532000Y-90687000D01*
X144272000Y-76962000D02*
X144399000Y-77089000D01*
X144399000Y-77089000D02*
X147574000Y-77089000D01*
X146798528Y-96960867D02*
X146798528Y-92515867D01*
X146798528Y-92515867D02*
X149860000Y-89454395D01*
X149860000Y-89454395D02*
X149860000Y-89340867D01*
D31*
X109347000Y-101219000D02*
X109347000Y-98318000D01*
X109347000Y-98318000D02*
X109327000Y-98298000D01*
X78486000Y-119253000D02*
X75057000Y-119253000D01*
X74041000Y-99187000D02*
X75819000Y-97409000D01*
X75057000Y-119253000D02*
X74041000Y-118237000D01*
X74041000Y-118237000D02*
X74041000Y-99187000D01*
X75819000Y-97409000D02*
X75819000Y-91039000D01*
X75819000Y-91039000D02*
X78105000Y-88753000D01*
X99060000Y-118237000D02*
X79502000Y-118237000D01*
X79502000Y-118237000D02*
X78486000Y-119253000D01*
D30*
X90424000Y-108712000D02*
X90424000Y-109728000D01*
X76073000Y-112458500D02*
X78676500Y-115062000D01*
X89789000Y-110363000D02*
X81788000Y-110363000D01*
X81788000Y-110363000D02*
X78994000Y-107569000D01*
X78994000Y-107569000D02*
X76962000Y-107569000D01*
X90424000Y-109728000D02*
X89789000Y-110363000D01*
X76073000Y-108458000D02*
X76073000Y-112458500D01*
X76962000Y-107569000D02*
X76073000Y-108458000D01*
X78676500Y-115062000D02*
X99060000Y-115062000D01*
X99060000Y-115062000D02*
X99632731Y-115634731D01*
X146798528Y-96960867D02*
X145821400Y-97937995D01*
X145821400Y-102924848D02*
X148297681Y-105401129D01*
X145821400Y-97937995D02*
X145821400Y-102924848D01*
X148297681Y-105401129D02*
X150334868Y-105401129D01*
X147560528Y-80323867D02*
X146036528Y-80323867D01*
X146036528Y-80323867D02*
X145034000Y-81326395D01*
X145034000Y-81326395D02*
X145034000Y-84679552D01*
X145034000Y-84679552D02*
X146431000Y-86076552D01*
X146431000Y-86076552D02*
X146431000Y-87599341D01*
X145034000Y-103251000D02*
X149724129Y-107941129D01*
X149724129Y-107941129D02*
X150334868Y-107941129D01*
X146431000Y-87599341D02*
X145034000Y-88996341D01*
X145034000Y-88996341D02*
X145034000Y-103251000D01*
X142163128Y-92434398D02*
X142825763Y-91771763D01*
X142163128Y-99769389D02*
X142163128Y-92434398D01*
X142714868Y-100321129D02*
X142163128Y-99769389D01*
X144960528Y-86673867D02*
X144212133Y-86673867D01*
X144212133Y-86673867D02*
X143496528Y-87389472D01*
X143496528Y-87389472D02*
X143496528Y-89340867D01*
X146798528Y-89340867D02*
X147260133Y-89340867D01*
X149225000Y-87376000D02*
X149225000Y-85852000D01*
X146685000Y-85217000D02*
X145972927Y-84504927D01*
X149225000Y-85852000D02*
X148590000Y-85217000D01*
X148449528Y-81974867D02*
X149211528Y-81212867D01*
X148590000Y-85217000D02*
X146685000Y-85217000D01*
X147260133Y-89340867D02*
X149225000Y-87376000D01*
X145972927Y-84504927D02*
X145972927Y-82419468D01*
X145972927Y-82419468D02*
X146417528Y-81974867D01*
X146417528Y-81974867D02*
X148449528Y-81974867D01*
X149211528Y-81212867D02*
X149211528Y-78613000D01*
X74383900Y-95681803D02*
X73926697Y-95224600D01*
X72898000Y-77216000D02*
X76098763Y-74015237D01*
X73926697Y-95224600D02*
X73868369Y-95224600D01*
X73868369Y-95224600D02*
X72898000Y-94254231D01*
X72898000Y-94254231D02*
X72898000Y-77216000D01*
X76098763Y-74015237D02*
X78247230Y-74015237D01*
X91567000Y-87376000D02*
X91567000Y-84838939D01*
X91567000Y-84838939D02*
X91564061Y-84836000D01*
D31*
X78105000Y-88753000D02*
X78105000Y-89286000D01*
X78105000Y-89286000D02*
X80274000Y-91455000D01*
D30*
X77254100Y-95681803D02*
X77304903Y-95631000D01*
X77304903Y-95631000D02*
X83601400Y-95631000D01*
X83601400Y-95631000D02*
X84109400Y-96139000D01*
X74382621Y-90384621D02*
X74382621Y-93978721D01*
X74382621Y-93978721D02*
X74383900Y-93980000D01*
X85369000Y-93980000D02*
X87894000Y-91455000D01*
X77254100Y-93980000D02*
X85369000Y-93980000D01*
X97152061Y-81661000D02*
X93596061Y-78105000D01*
X88392000Y-78105000D02*
X81762237Y-71475237D01*
X93596061Y-78105000D02*
X88392000Y-78105000D01*
X81762237Y-71475237D02*
X78247230Y-71475237D01*
X91567000Y-94996000D02*
X87741600Y-94996000D01*
X87741600Y-94996000D02*
X86598600Y-96139000D01*
X74382621Y-90384621D02*
X74382621Y-81534000D01*
X82804000Y-102362000D02*
X80625000Y-102362000D01*
X80625000Y-102362000D02*
X80137000Y-101874000D01*
X82804000Y-108712000D02*
X80137000Y-106045000D01*
X80137000Y-106045000D02*
X80137000Y-104374000D01*
X80274000Y-99075000D02*
X78803600Y-100545400D01*
X78803600Y-100545400D02*
X78803600Y-103040600D01*
X78803600Y-103040600D02*
X80137000Y-104374000D01*
X90424000Y-108712000D02*
X85725000Y-108712000D01*
X85725000Y-108712000D02*
X82804000Y-105791000D01*
X82804000Y-105791000D02*
X82804000Y-105537000D01*
X82804000Y-102362000D02*
X85090000Y-102362000D01*
X88265000Y-105537000D02*
X90424000Y-105537000D01*
X85090000Y-102362000D02*
X88265000Y-105537000D01*
X82814000Y-102352000D02*
X82804000Y-102362000D01*
X82814000Y-99075000D02*
X82814000Y-102352000D01*
X109051417Y-72532000D02*
X109051417Y-73828583D01*
X109051417Y-73828583D02*
X107188000Y-75692000D01*
X107188000Y-75692000D02*
X103378000Y-75692000D01*
X103378000Y-75692000D02*
X102590600Y-76479400D01*
X93472000Y-88138000D02*
X91567000Y-90043000D01*
X102590600Y-76479400D02*
X102590600Y-86131400D01*
X102590600Y-86131400D02*
X100584000Y-88138000D01*
X100584000Y-88138000D02*
X93472000Y-88138000D01*
X91567000Y-92837000D02*
X90805000Y-93599000D01*
X90805000Y-93599000D02*
X87122000Y-93599000D01*
X87122000Y-93599000D02*
X85354000Y-95367000D01*
X85354000Y-95367000D02*
X85354000Y-99075000D01*
X101346000Y-85090000D02*
X101346000Y-79883000D01*
X101346000Y-79883000D02*
X97152061Y-75689061D01*
X97152061Y-75689061D02*
X97152061Y-74041000D01*
X88265000Y-84836000D02*
X86213000Y-84836000D01*
X86213000Y-84836000D02*
X83165000Y-81788000D01*
X88265000Y-88138000D02*
X88265000Y-84836000D01*
X85354000Y-91455000D02*
X85354000Y-91049000D01*
X85354000Y-91049000D02*
X88265000Y-88138000D01*
X80665000Y-81788000D02*
X80665000Y-81260000D01*
X80665000Y-81260000D02*
X83185000Y-78740000D01*
X83185000Y-78740000D02*
X85217000Y-78740000D01*
X80645000Y-84836000D02*
X80645000Y-81808000D01*
X80645000Y-81808000D02*
X80665000Y-81788000D01*
X82814000Y-91455000D02*
X82814000Y-87005000D01*
X82814000Y-87005000D02*
X80645000Y-84836000D01*
X105029000Y-94869000D02*
X104229001Y-95668999D01*
X104229001Y-95668999D02*
X99605999Y-95668999D01*
X99605999Y-95668999D02*
X95392000Y-91455000D01*
X95392000Y-91455000D02*
X87894000Y-91455000D01*
X112649000Y-94869000D02*
X114291000Y-93227000D01*
X114291000Y-93227000D02*
X117189440Y-93227000D01*
D31*
X113093500Y-108267500D02*
X113157000Y-108204000D01*
X113157000Y-108204000D02*
X113157000Y-97917000D01*
X108712000Y-94869000D02*
X108712000Y-91059000D01*
X111125000Y-95885000D02*
X109728000Y-95885000D01*
X109728000Y-95885000D02*
X108712000Y-94869000D01*
X113157000Y-97917000D02*
X111125000Y-95885000D01*
X108712000Y-91059000D02*
X103971417Y-86318417D01*
X103971417Y-86318417D02*
X103971417Y-80152000D01*
D30*
X102616000Y-94234000D02*
X102616000Y-90551000D01*
X150481528Y-113323867D02*
X152654000Y-111151395D01*
X152654000Y-111151395D02*
X152654000Y-106812261D01*
X152654000Y-106812261D02*
X151242868Y-105401129D01*
X151242868Y-105401129D02*
X150334868Y-105401129D01*
D31*
X99060000Y-118237000D02*
X102997000Y-114300000D01*
X102997000Y-114300000D02*
X111633000Y-114300000D01*
X111633000Y-114300000D02*
X113538000Y-116205000D01*
X139853395Y-116205000D02*
X142734528Y-113323867D01*
X113538000Y-116205000D02*
X139853395Y-116205000D01*
X101874000Y-98298000D02*
X98635258Y-98298000D01*
X132446701Y-114960400D02*
X136336458Y-111070643D01*
X96012100Y-100921158D02*
X96012100Y-108331100D01*
X100495100Y-112814100D02*
X101940438Y-112814100D01*
X101978538Y-112776000D02*
X112903000Y-112776000D01*
X115087400Y-114960400D02*
X132446701Y-114960400D01*
X98635258Y-98298000D02*
X96012100Y-100921158D01*
X96012100Y-108331100D02*
X100495100Y-112814100D01*
X101940438Y-112814100D02*
X101978538Y-112776000D01*
X112903000Y-112776000D02*
X115087400Y-114960400D01*
D32*
X153148528Y-101024867D02*
X153148528Y-92215472D01*
X153148528Y-92215472D02*
X153162000Y-92202000D01*
D30*
X139940528Y-80323867D02*
X141651395Y-78613000D01*
X141651395Y-78613000D02*
X149211528Y-78613000D01*
X139960528Y-86673867D02*
X139960528Y-83641469D01*
X139960528Y-83641469D02*
X139934967Y-83615908D01*
D32*
X103971417Y-72532000D02*
X103971417Y-71288583D01*
X103971417Y-71288583D02*
X104902000Y-70358000D01*
X104902000Y-70358000D02*
X104902000Y-55753000D01*
X106934000Y-53721000D02*
X151892000Y-53721000D01*
X104902000Y-55753000D02*
X106934000Y-53721000D01*
X153148528Y-101024867D02*
X151312266Y-102861129D01*
X151892000Y-53721000D02*
X153162000Y-54991000D01*
X153162000Y-54991000D02*
X153162000Y-92202000D01*
X151312266Y-102861129D02*
X150334868Y-102861129D01*
D31*
X113538000Y-108712000D02*
X113093500Y-108267500D01*
D30*
X121096458Y-111197643D02*
X120015000Y-110116185D01*
X120015000Y-110116185D02*
X120015000Y-60579000D01*
X120015000Y-60579000D02*
X119643000Y-60207000D01*
X119643000Y-60207000D02*
X117189440Y-60207000D01*
X123636458Y-111197643D02*
X121539000Y-109100185D01*
X121539000Y-109100185D02*
X121539000Y-59309000D01*
X119897000Y-57667000D02*
X117189440Y-57667000D01*
X121539000Y-59309000D02*
X119897000Y-57667000D01*
X117189440Y-85607000D02*
X117180440Y-85598000D01*
X117180440Y-85598000D02*
X106172000Y-85598000D01*
X106172000Y-85598000D02*
X105664000Y-85090000D01*
D31*
X118556458Y-111197643D02*
X116070815Y-108712000D01*
X116070815Y-108712000D02*
X113538000Y-108712000D01*
D30*
X117189440Y-90687000D02*
X113656000Y-90687000D01*
X113656000Y-90687000D02*
X112776000Y-91567000D01*
X105156000Y-91567000D02*
X105156000Y-89916000D01*
X105156000Y-89916000D02*
X104140000Y-88900000D01*
X101727000Y-88900000D02*
X100076000Y-90551000D01*
X104140000Y-88900000D02*
X101727000Y-88900000D01*
D31*
X121150815Y-113792000D02*
X130810000Y-113792000D01*
X118556458Y-111197643D02*
X121150815Y-113792000D01*
X130810000Y-113792000D02*
X133604000Y-110998000D01*
X133604000Y-110998000D02*
X133604000Y-108839000D01*
X134969440Y-60207000D02*
X134361640Y-60207000D01*
X131318000Y-63250640D02*
X131318000Y-106553000D01*
X131318000Y-106553000D02*
X133604000Y-108839000D01*
X136644815Y-108839000D02*
X138876458Y-111070643D01*
X133604000Y-108839000D02*
X136644815Y-108839000D01*
X134361640Y-60207000D02*
X131318000Y-63250640D01*
X106267600Y-68834000D02*
X113411000Y-61690600D01*
X114808000Y-55118000D02*
X138049000Y-55118000D01*
X113411000Y-61690600D02*
X113411000Y-56515000D01*
X113411000Y-56515000D02*
X114808000Y-55118000D01*
X138049000Y-55118000D02*
X138938000Y-56007000D01*
X138938000Y-56007000D02*
X138938000Y-66266240D01*
X138938000Y-66266240D02*
X137377240Y-67827000D01*
X137377240Y-67827000D02*
X134969440Y-67827000D01*
X93342061Y-68834000D02*
X103505000Y-68834000D01*
X91564061Y-70612000D02*
X93342061Y-68834000D01*
X92072061Y-74041000D02*
X92072061Y-71120000D01*
X92072061Y-71120000D02*
X91564061Y-70612000D01*
X104267000Y-101219000D02*
X104267000Y-100691000D01*
X104267000Y-100691000D02*
X101874000Y-98298000D01*
X97536000Y-104052379D02*
X108037621Y-104052379D01*
X108037621Y-104052379D02*
X109347000Y-102743000D01*
X109347000Y-102743000D02*
X109347000Y-101219000D01*
X99060000Y-108077000D02*
X99060000Y-105576379D01*
X99060000Y-105576379D02*
X97536000Y-104052379D01*
D30*
X127695458Y-111127643D02*
X126493377Y-111127643D01*
X126493377Y-111127643D02*
X123539440Y-108173706D01*
X123539440Y-108173706D02*
X123539440Y-105697000D01*
X130235458Y-111127643D02*
X130235458Y-107313018D01*
X130235458Y-107313018D02*
X128619440Y-105697000D01*
X99184061Y-84836000D02*
X98554061Y-84836000D01*
X98554061Y-84836000D02*
X97152061Y-83434000D01*
X97152061Y-83434000D02*
X97152061Y-81661000D01*
X91564061Y-84836000D02*
X92872061Y-84836000D01*
X92872061Y-84836000D02*
X94612061Y-83096000D01*
X94612061Y-83096000D02*
X94612061Y-81661000D01*
X88770061Y-73660000D02*
X88770061Y-74671000D01*
X88770061Y-74671000D02*
X90284061Y-76185000D01*
X90284061Y-76185000D02*
X93205061Y-76185000D01*
X94612061Y-74778000D02*
X94612061Y-74041000D01*
X93205061Y-76185000D02*
X94612061Y-74778000D01*
X99184061Y-70612000D02*
X98524061Y-70612000D01*
X98524061Y-70612000D02*
X97152061Y-71984000D01*
X97152061Y-71984000D02*
X97152061Y-74041000D01*
X117189440Y-80527000D02*
X117180440Y-80518000D01*
X117180440Y-80518000D02*
X111957417Y-80518000D01*
X111957417Y-80518000D02*
X111591417Y-80152000D01*
X106511417Y-80152000D02*
X106511417Y-78549600D01*
X108353017Y-76708000D02*
X111887000Y-76708000D01*
X111887000Y-76708000D02*
X113538000Y-75057000D01*
X113538000Y-73787000D02*
X114418000Y-72907000D01*
X114418000Y-72907000D02*
X117189440Y-72907000D01*
X106511417Y-78549600D02*
X108353017Y-76708000D01*
X113538000Y-75057000D02*
X113538000Y-73787000D01*
X109051417Y-80152000D02*
X111216417Y-77987000D01*
X111216417Y-77987000D02*
X117189440Y-77987000D01*
X150481528Y-110823867D02*
X150481528Y-108087789D01*
X150481528Y-108087789D02*
X150334868Y-107941129D01*
D31*
X142734528Y-113323867D02*
X142333528Y-113323867D01*
X142333528Y-113323867D02*
X141210628Y-112200967D01*
X141210628Y-109445369D02*
X142714868Y-107941129D01*
X141210628Y-112200967D02*
X141210628Y-109445369D01*
D30*
X139940528Y-80323867D02*
X139940528Y-79919580D01*
M02*
