%TF.GenerationSoftware,KiCad,Pcbnew,8.0.5*%
%TF.CreationDate,2024-09-14T22:06:42+02:00*%
%TF.ProjectId,midi2cv,6d696469-3263-4762-9e6b-696361645f70,rev?*%
%TF.SameCoordinates,Original*%
%TF.FileFunction,Drillmap*%
%TF.FilePolarity,Positive*%
%FSLAX45Y45*%
G04 Gerber Fmt 4.5, Leading zero omitted, Abs format (unit mm)*
G04 Created by KiCad (PCBNEW 8.0.5) date 2024-09-14 22:06:42*
%MOMM*%
%LPD*%
G01*
G04 APERTURE LIST*
%ADD10C,0.100000*%
%ADD11C,0.200000*%
%ADD12C,0.150000*%
%ADD13C,0.180000*%
%ADD14C,0.350000*%
G04 APERTURE END LIST*
D10*
X15400000Y-12200000D02*
X7100000Y-12200000D01*
X7100000Y-6800000D01*
X10400000Y-6800000D01*
X10400000Y-5300000D01*
X15400000Y-5300000D01*
X15400000Y-12200000D01*
D11*
D12*
X12290444Y-6007700D02*
X12440444Y-6157700D01*
X12440444Y-6007700D02*
X12290444Y-6157700D01*
X12775444Y-6007700D02*
X12925444Y-6157700D01*
X12925444Y-6007700D02*
X12775444Y-6157700D01*
D13*
X12425444Y-5779700D02*
G75*
G02*
X12245444Y-5779700I-90000J0D01*
G01*
X12245444Y-5779700D02*
G75*
G02*
X12425444Y-5779700I90000J0D01*
G01*
X12970444Y-5779700D02*
G75*
G02*
X12790444Y-5779700I-90000J0D01*
G01*
X12790444Y-5779700D02*
G75*
G02*
X12970444Y-5779700I90000J0D01*
G01*
D14*
X10680700Y-11612900D02*
X10680700Y-11962900D01*
X10505700Y-11787900D02*
X10855700Y-11787900D01*
D11*
X7355777Y-12516484D02*
X7355777Y-12316484D01*
X7355777Y-12316484D02*
X7403396Y-12316484D01*
X7403396Y-12316484D02*
X7431967Y-12326008D01*
X7431967Y-12326008D02*
X7451015Y-12345055D01*
X7451015Y-12345055D02*
X7460539Y-12364103D01*
X7460539Y-12364103D02*
X7470062Y-12402198D01*
X7470062Y-12402198D02*
X7470062Y-12430769D01*
X7470062Y-12430769D02*
X7460539Y-12468865D01*
X7460539Y-12468865D02*
X7451015Y-12487912D01*
X7451015Y-12487912D02*
X7431967Y-12506960D01*
X7431967Y-12506960D02*
X7403396Y-12516484D01*
X7403396Y-12516484D02*
X7355777Y-12516484D01*
X7555777Y-12516484D02*
X7555777Y-12383150D01*
X7555777Y-12421246D02*
X7565301Y-12402198D01*
X7565301Y-12402198D02*
X7574824Y-12392674D01*
X7574824Y-12392674D02*
X7593872Y-12383150D01*
X7593872Y-12383150D02*
X7612920Y-12383150D01*
X7679586Y-12516484D02*
X7679586Y-12383150D01*
X7679586Y-12316484D02*
X7670062Y-12326008D01*
X7670062Y-12326008D02*
X7679586Y-12335531D01*
X7679586Y-12335531D02*
X7689110Y-12326008D01*
X7689110Y-12326008D02*
X7679586Y-12316484D01*
X7679586Y-12316484D02*
X7679586Y-12335531D01*
X7803396Y-12516484D02*
X7784348Y-12506960D01*
X7784348Y-12506960D02*
X7774824Y-12487912D01*
X7774824Y-12487912D02*
X7774824Y-12316484D01*
X7908158Y-12516484D02*
X7889110Y-12506960D01*
X7889110Y-12506960D02*
X7879586Y-12487912D01*
X7879586Y-12487912D02*
X7879586Y-12316484D01*
X8136729Y-12516484D02*
X8136729Y-12316484D01*
X8136729Y-12316484D02*
X8203396Y-12459341D01*
X8203396Y-12459341D02*
X8270062Y-12316484D01*
X8270062Y-12316484D02*
X8270062Y-12516484D01*
X8451015Y-12516484D02*
X8451015Y-12411722D01*
X8451015Y-12411722D02*
X8441491Y-12392674D01*
X8441491Y-12392674D02*
X8422444Y-12383150D01*
X8422444Y-12383150D02*
X8384348Y-12383150D01*
X8384348Y-12383150D02*
X8365301Y-12392674D01*
X8451015Y-12506960D02*
X8431967Y-12516484D01*
X8431967Y-12516484D02*
X8384348Y-12516484D01*
X8384348Y-12516484D02*
X8365301Y-12506960D01*
X8365301Y-12506960D02*
X8355777Y-12487912D01*
X8355777Y-12487912D02*
X8355777Y-12468865D01*
X8355777Y-12468865D02*
X8365301Y-12449817D01*
X8365301Y-12449817D02*
X8384348Y-12440293D01*
X8384348Y-12440293D02*
X8431967Y-12440293D01*
X8431967Y-12440293D02*
X8451015Y-12430769D01*
X8546253Y-12383150D02*
X8546253Y-12583150D01*
X8546253Y-12392674D02*
X8565301Y-12383150D01*
X8565301Y-12383150D02*
X8603396Y-12383150D01*
X8603396Y-12383150D02*
X8622444Y-12392674D01*
X8622444Y-12392674D02*
X8631967Y-12402198D01*
X8631967Y-12402198D02*
X8641491Y-12421246D01*
X8641491Y-12421246D02*
X8641491Y-12478388D01*
X8641491Y-12478388D02*
X8631967Y-12497436D01*
X8631967Y-12497436D02*
X8622444Y-12506960D01*
X8622444Y-12506960D02*
X8603396Y-12516484D01*
X8603396Y-12516484D02*
X8565301Y-12516484D01*
X8565301Y-12516484D02*
X8546253Y-12506960D01*
X8727205Y-12497436D02*
X8736729Y-12506960D01*
X8736729Y-12506960D02*
X8727205Y-12516484D01*
X8727205Y-12516484D02*
X8717682Y-12506960D01*
X8717682Y-12506960D02*
X8727205Y-12497436D01*
X8727205Y-12497436D02*
X8727205Y-12516484D01*
X8727205Y-12392674D02*
X8736729Y-12402198D01*
X8736729Y-12402198D02*
X8727205Y-12411722D01*
X8727205Y-12411722D02*
X8717682Y-12402198D01*
X8717682Y-12402198D02*
X8727205Y-12392674D01*
X8727205Y-12392674D02*
X8727205Y-12411722D01*
D12*
X6945000Y-12770000D02*
X7095000Y-12920000D01*
X7095000Y-12770000D02*
X6945000Y-12920000D01*
D11*
X7460539Y-12936484D02*
X7346253Y-12936484D01*
X7403396Y-12936484D02*
X7403396Y-12736484D01*
X7403396Y-12736484D02*
X7384348Y-12765055D01*
X7384348Y-12765055D02*
X7365301Y-12784103D01*
X7365301Y-12784103D02*
X7346253Y-12793627D01*
X7546253Y-12917436D02*
X7555777Y-12926960D01*
X7555777Y-12926960D02*
X7546253Y-12936484D01*
X7546253Y-12936484D02*
X7536729Y-12926960D01*
X7536729Y-12926960D02*
X7546253Y-12917436D01*
X7546253Y-12917436D02*
X7546253Y-12936484D01*
X7736729Y-12736484D02*
X7641491Y-12736484D01*
X7641491Y-12736484D02*
X7631967Y-12831722D01*
X7631967Y-12831722D02*
X7641491Y-12822198D01*
X7641491Y-12822198D02*
X7660539Y-12812674D01*
X7660539Y-12812674D02*
X7708158Y-12812674D01*
X7708158Y-12812674D02*
X7727205Y-12822198D01*
X7727205Y-12822198D02*
X7736729Y-12831722D01*
X7736729Y-12831722D02*
X7746253Y-12850769D01*
X7746253Y-12850769D02*
X7746253Y-12898388D01*
X7746253Y-12898388D02*
X7736729Y-12917436D01*
X7736729Y-12917436D02*
X7727205Y-12926960D01*
X7727205Y-12926960D02*
X7708158Y-12936484D01*
X7708158Y-12936484D02*
X7660539Y-12936484D01*
X7660539Y-12936484D02*
X7641491Y-12926960D01*
X7641491Y-12926960D02*
X7631967Y-12917436D01*
X7870062Y-12736484D02*
X7889110Y-12736484D01*
X7889110Y-12736484D02*
X7908158Y-12746008D01*
X7908158Y-12746008D02*
X7917682Y-12755531D01*
X7917682Y-12755531D02*
X7927205Y-12774579D01*
X7927205Y-12774579D02*
X7936729Y-12812674D01*
X7936729Y-12812674D02*
X7936729Y-12860293D01*
X7936729Y-12860293D02*
X7927205Y-12898388D01*
X7927205Y-12898388D02*
X7917682Y-12917436D01*
X7917682Y-12917436D02*
X7908158Y-12926960D01*
X7908158Y-12926960D02*
X7889110Y-12936484D01*
X7889110Y-12936484D02*
X7870062Y-12936484D01*
X7870062Y-12936484D02*
X7851015Y-12926960D01*
X7851015Y-12926960D02*
X7841491Y-12917436D01*
X7841491Y-12917436D02*
X7831967Y-12898388D01*
X7831967Y-12898388D02*
X7822443Y-12860293D01*
X7822443Y-12860293D02*
X7822443Y-12812674D01*
X7822443Y-12812674D02*
X7831967Y-12774579D01*
X7831967Y-12774579D02*
X7841491Y-12755531D01*
X7841491Y-12755531D02*
X7851015Y-12746008D01*
X7851015Y-12746008D02*
X7870062Y-12736484D01*
X8060539Y-12736484D02*
X8079586Y-12736484D01*
X8079586Y-12736484D02*
X8098634Y-12746008D01*
X8098634Y-12746008D02*
X8108158Y-12755531D01*
X8108158Y-12755531D02*
X8117682Y-12774579D01*
X8117682Y-12774579D02*
X8127205Y-12812674D01*
X8127205Y-12812674D02*
X8127205Y-12860293D01*
X8127205Y-12860293D02*
X8117682Y-12898388D01*
X8117682Y-12898388D02*
X8108158Y-12917436D01*
X8108158Y-12917436D02*
X8098634Y-12926960D01*
X8098634Y-12926960D02*
X8079586Y-12936484D01*
X8079586Y-12936484D02*
X8060539Y-12936484D01*
X8060539Y-12936484D02*
X8041491Y-12926960D01*
X8041491Y-12926960D02*
X8031967Y-12917436D01*
X8031967Y-12917436D02*
X8022443Y-12898388D01*
X8022443Y-12898388D02*
X8012920Y-12860293D01*
X8012920Y-12860293D02*
X8012920Y-12812674D01*
X8012920Y-12812674D02*
X8022443Y-12774579D01*
X8022443Y-12774579D02*
X8031967Y-12755531D01*
X8031967Y-12755531D02*
X8041491Y-12746008D01*
X8041491Y-12746008D02*
X8060539Y-12736484D01*
X8212920Y-12936484D02*
X8212920Y-12803150D01*
X8212920Y-12822198D02*
X8222443Y-12812674D01*
X8222443Y-12812674D02*
X8241491Y-12803150D01*
X8241491Y-12803150D02*
X8270063Y-12803150D01*
X8270063Y-12803150D02*
X8289110Y-12812674D01*
X8289110Y-12812674D02*
X8298634Y-12831722D01*
X8298634Y-12831722D02*
X8298634Y-12936484D01*
X8298634Y-12831722D02*
X8308158Y-12812674D01*
X8308158Y-12812674D02*
X8327205Y-12803150D01*
X8327205Y-12803150D02*
X8355777Y-12803150D01*
X8355777Y-12803150D02*
X8374824Y-12812674D01*
X8374824Y-12812674D02*
X8384348Y-12831722D01*
X8384348Y-12831722D02*
X8384348Y-12936484D01*
X8479586Y-12936484D02*
X8479586Y-12803150D01*
X8479586Y-12822198D02*
X8489110Y-12812674D01*
X8489110Y-12812674D02*
X8508158Y-12803150D01*
X8508158Y-12803150D02*
X8536729Y-12803150D01*
X8536729Y-12803150D02*
X8555777Y-12812674D01*
X8555777Y-12812674D02*
X8565301Y-12831722D01*
X8565301Y-12831722D02*
X8565301Y-12936484D01*
X8565301Y-12831722D02*
X8574825Y-12812674D01*
X8574825Y-12812674D02*
X8593872Y-12803150D01*
X8593872Y-12803150D02*
X8622444Y-12803150D01*
X8622444Y-12803150D02*
X8641491Y-12812674D01*
X8641491Y-12812674D02*
X8651015Y-12831722D01*
X8651015Y-12831722D02*
X8651015Y-12936484D01*
X9041491Y-12726960D02*
X8870063Y-12984103D01*
X9298634Y-12736484D02*
X9317682Y-12736484D01*
X9317682Y-12736484D02*
X9336729Y-12746008D01*
X9336729Y-12746008D02*
X9346253Y-12755531D01*
X9346253Y-12755531D02*
X9355777Y-12774579D01*
X9355777Y-12774579D02*
X9365301Y-12812674D01*
X9365301Y-12812674D02*
X9365301Y-12860293D01*
X9365301Y-12860293D02*
X9355777Y-12898388D01*
X9355777Y-12898388D02*
X9346253Y-12917436D01*
X9346253Y-12917436D02*
X9336729Y-12926960D01*
X9336729Y-12926960D02*
X9317682Y-12936484D01*
X9317682Y-12936484D02*
X9298634Y-12936484D01*
X9298634Y-12936484D02*
X9279587Y-12926960D01*
X9279587Y-12926960D02*
X9270063Y-12917436D01*
X9270063Y-12917436D02*
X9260539Y-12898388D01*
X9260539Y-12898388D02*
X9251015Y-12860293D01*
X9251015Y-12860293D02*
X9251015Y-12812674D01*
X9251015Y-12812674D02*
X9260539Y-12774579D01*
X9260539Y-12774579D02*
X9270063Y-12755531D01*
X9270063Y-12755531D02*
X9279587Y-12746008D01*
X9279587Y-12746008D02*
X9298634Y-12736484D01*
X9451015Y-12917436D02*
X9460539Y-12926960D01*
X9460539Y-12926960D02*
X9451015Y-12936484D01*
X9451015Y-12936484D02*
X9441491Y-12926960D01*
X9441491Y-12926960D02*
X9451015Y-12917436D01*
X9451015Y-12917436D02*
X9451015Y-12936484D01*
X9584348Y-12736484D02*
X9603396Y-12736484D01*
X9603396Y-12736484D02*
X9622444Y-12746008D01*
X9622444Y-12746008D02*
X9631968Y-12755531D01*
X9631968Y-12755531D02*
X9641491Y-12774579D01*
X9641491Y-12774579D02*
X9651015Y-12812674D01*
X9651015Y-12812674D02*
X9651015Y-12860293D01*
X9651015Y-12860293D02*
X9641491Y-12898388D01*
X9641491Y-12898388D02*
X9631968Y-12917436D01*
X9631968Y-12917436D02*
X9622444Y-12926960D01*
X9622444Y-12926960D02*
X9603396Y-12936484D01*
X9603396Y-12936484D02*
X9584348Y-12936484D01*
X9584348Y-12936484D02*
X9565301Y-12926960D01*
X9565301Y-12926960D02*
X9555777Y-12917436D01*
X9555777Y-12917436D02*
X9546253Y-12898388D01*
X9546253Y-12898388D02*
X9536729Y-12860293D01*
X9536729Y-12860293D02*
X9536729Y-12812674D01*
X9536729Y-12812674D02*
X9546253Y-12774579D01*
X9546253Y-12774579D02*
X9555777Y-12755531D01*
X9555777Y-12755531D02*
X9565301Y-12746008D01*
X9565301Y-12746008D02*
X9584348Y-12736484D01*
X9831968Y-12736484D02*
X9736729Y-12736484D01*
X9736729Y-12736484D02*
X9727206Y-12831722D01*
X9727206Y-12831722D02*
X9736729Y-12822198D01*
X9736729Y-12822198D02*
X9755777Y-12812674D01*
X9755777Y-12812674D02*
X9803396Y-12812674D01*
X9803396Y-12812674D02*
X9822444Y-12822198D01*
X9822444Y-12822198D02*
X9831968Y-12831722D01*
X9831968Y-12831722D02*
X9841491Y-12850769D01*
X9841491Y-12850769D02*
X9841491Y-12898388D01*
X9841491Y-12898388D02*
X9831968Y-12917436D01*
X9831968Y-12917436D02*
X9822444Y-12926960D01*
X9822444Y-12926960D02*
X9803396Y-12936484D01*
X9803396Y-12936484D02*
X9755777Y-12936484D01*
X9755777Y-12936484D02*
X9736729Y-12926960D01*
X9736729Y-12926960D02*
X9727206Y-12917436D01*
X9936729Y-12936484D02*
X9974825Y-12936484D01*
X9974825Y-12936484D02*
X9993872Y-12926960D01*
X9993872Y-12926960D02*
X10003396Y-12917436D01*
X10003396Y-12917436D02*
X10022444Y-12888865D01*
X10022444Y-12888865D02*
X10031968Y-12850769D01*
X10031968Y-12850769D02*
X10031968Y-12774579D01*
X10031968Y-12774579D02*
X10022444Y-12755531D01*
X10022444Y-12755531D02*
X10012920Y-12746008D01*
X10012920Y-12746008D02*
X9993872Y-12736484D01*
X9993872Y-12736484D02*
X9955777Y-12736484D01*
X9955777Y-12736484D02*
X9936729Y-12746008D01*
X9936729Y-12746008D02*
X9927206Y-12755531D01*
X9927206Y-12755531D02*
X9917682Y-12774579D01*
X9917682Y-12774579D02*
X9917682Y-12822198D01*
X9917682Y-12822198D02*
X9927206Y-12841246D01*
X9927206Y-12841246D02*
X9936729Y-12850769D01*
X9936729Y-12850769D02*
X9955777Y-12860293D01*
X9955777Y-12860293D02*
X9993872Y-12860293D01*
X9993872Y-12860293D02*
X10012920Y-12850769D01*
X10012920Y-12850769D02*
X10022444Y-12841246D01*
X10022444Y-12841246D02*
X10031968Y-12822198D01*
X10222444Y-12936484D02*
X10108158Y-12936484D01*
X10165301Y-12936484D02*
X10165301Y-12736484D01*
X10165301Y-12736484D02*
X10146253Y-12765055D01*
X10146253Y-12765055D02*
X10127206Y-12784103D01*
X10127206Y-12784103D02*
X10108158Y-12793627D01*
X10298634Y-12736484D02*
X10298634Y-12774579D01*
X10374825Y-12736484D02*
X10374825Y-12774579D01*
X10670063Y-13012674D02*
X10660539Y-13003150D01*
X10660539Y-13003150D02*
X10641491Y-12974579D01*
X10641491Y-12974579D02*
X10631968Y-12955531D01*
X10631968Y-12955531D02*
X10622444Y-12926960D01*
X10622444Y-12926960D02*
X10612920Y-12879341D01*
X10612920Y-12879341D02*
X10612920Y-12841246D01*
X10612920Y-12841246D02*
X10622444Y-12793627D01*
X10622444Y-12793627D02*
X10631968Y-12765055D01*
X10631968Y-12765055D02*
X10641491Y-12746008D01*
X10641491Y-12746008D02*
X10660539Y-12717436D01*
X10660539Y-12717436D02*
X10670063Y-12707912D01*
X10736730Y-12755531D02*
X10746253Y-12746008D01*
X10746253Y-12746008D02*
X10765301Y-12736484D01*
X10765301Y-12736484D02*
X10812920Y-12736484D01*
X10812920Y-12736484D02*
X10831968Y-12746008D01*
X10831968Y-12746008D02*
X10841491Y-12755531D01*
X10841491Y-12755531D02*
X10851015Y-12774579D01*
X10851015Y-12774579D02*
X10851015Y-12793627D01*
X10851015Y-12793627D02*
X10841491Y-12822198D01*
X10841491Y-12822198D02*
X10727206Y-12936484D01*
X10727206Y-12936484D02*
X10851015Y-12936484D01*
X11089111Y-12936484D02*
X11089111Y-12736484D01*
X11174825Y-12936484D02*
X11174825Y-12831722D01*
X11174825Y-12831722D02*
X11165301Y-12812674D01*
X11165301Y-12812674D02*
X11146253Y-12803150D01*
X11146253Y-12803150D02*
X11117682Y-12803150D01*
X11117682Y-12803150D02*
X11098634Y-12812674D01*
X11098634Y-12812674D02*
X11089111Y-12822198D01*
X11298634Y-12936484D02*
X11279587Y-12926960D01*
X11279587Y-12926960D02*
X11270063Y-12917436D01*
X11270063Y-12917436D02*
X11260539Y-12898388D01*
X11260539Y-12898388D02*
X11260539Y-12841246D01*
X11260539Y-12841246D02*
X11270063Y-12822198D01*
X11270063Y-12822198D02*
X11279587Y-12812674D01*
X11279587Y-12812674D02*
X11298634Y-12803150D01*
X11298634Y-12803150D02*
X11327206Y-12803150D01*
X11327206Y-12803150D02*
X11346253Y-12812674D01*
X11346253Y-12812674D02*
X11355777Y-12822198D01*
X11355777Y-12822198D02*
X11365301Y-12841246D01*
X11365301Y-12841246D02*
X11365301Y-12898388D01*
X11365301Y-12898388D02*
X11355777Y-12917436D01*
X11355777Y-12917436D02*
X11346253Y-12926960D01*
X11346253Y-12926960D02*
X11327206Y-12936484D01*
X11327206Y-12936484D02*
X11298634Y-12936484D01*
X11479587Y-12936484D02*
X11460539Y-12926960D01*
X11460539Y-12926960D02*
X11451015Y-12907912D01*
X11451015Y-12907912D02*
X11451015Y-12736484D01*
X11631968Y-12926960D02*
X11612920Y-12936484D01*
X11612920Y-12936484D02*
X11574825Y-12936484D01*
X11574825Y-12936484D02*
X11555777Y-12926960D01*
X11555777Y-12926960D02*
X11546253Y-12907912D01*
X11546253Y-12907912D02*
X11546253Y-12831722D01*
X11546253Y-12831722D02*
X11555777Y-12812674D01*
X11555777Y-12812674D02*
X11574825Y-12803150D01*
X11574825Y-12803150D02*
X11612920Y-12803150D01*
X11612920Y-12803150D02*
X11631968Y-12812674D01*
X11631968Y-12812674D02*
X11641491Y-12831722D01*
X11641491Y-12831722D02*
X11641491Y-12850769D01*
X11641491Y-12850769D02*
X11546253Y-12869817D01*
X11717682Y-12926960D02*
X11736730Y-12936484D01*
X11736730Y-12936484D02*
X11774825Y-12936484D01*
X11774825Y-12936484D02*
X11793872Y-12926960D01*
X11793872Y-12926960D02*
X11803396Y-12907912D01*
X11803396Y-12907912D02*
X11803396Y-12898388D01*
X11803396Y-12898388D02*
X11793872Y-12879341D01*
X11793872Y-12879341D02*
X11774825Y-12869817D01*
X11774825Y-12869817D02*
X11746253Y-12869817D01*
X11746253Y-12869817D02*
X11727206Y-12860293D01*
X11727206Y-12860293D02*
X11717682Y-12841246D01*
X11717682Y-12841246D02*
X11717682Y-12831722D01*
X11717682Y-12831722D02*
X11727206Y-12812674D01*
X11727206Y-12812674D02*
X11746253Y-12803150D01*
X11746253Y-12803150D02*
X11774825Y-12803150D01*
X11774825Y-12803150D02*
X11793872Y-12812674D01*
X11870063Y-13012674D02*
X11879587Y-13003150D01*
X11879587Y-13003150D02*
X11898634Y-12974579D01*
X11898634Y-12974579D02*
X11908158Y-12955531D01*
X11908158Y-12955531D02*
X11917682Y-12926960D01*
X11917682Y-12926960D02*
X11927206Y-12879341D01*
X11927206Y-12879341D02*
X11927206Y-12841246D01*
X11927206Y-12841246D02*
X11917682Y-12793627D01*
X11917682Y-12793627D02*
X11908158Y-12765055D01*
X11908158Y-12765055D02*
X11898634Y-12746008D01*
X11898634Y-12746008D02*
X11879587Y-12717436D01*
X11879587Y-12717436D02*
X11870063Y-12707912D01*
X12231968Y-13012674D02*
X12222444Y-13003150D01*
X12222444Y-13003150D02*
X12203396Y-12974579D01*
X12203396Y-12974579D02*
X12193872Y-12955531D01*
X12193872Y-12955531D02*
X12184349Y-12926960D01*
X12184349Y-12926960D02*
X12174825Y-12879341D01*
X12174825Y-12879341D02*
X12174825Y-12841246D01*
X12174825Y-12841246D02*
X12184349Y-12793627D01*
X12184349Y-12793627D02*
X12193872Y-12765055D01*
X12193872Y-12765055D02*
X12203396Y-12746008D01*
X12203396Y-12746008D02*
X12222444Y-12717436D01*
X12222444Y-12717436D02*
X12231968Y-12707912D01*
X12308158Y-12803150D02*
X12308158Y-12936484D01*
X12308158Y-12822198D02*
X12317682Y-12812674D01*
X12317682Y-12812674D02*
X12336730Y-12803150D01*
X12336730Y-12803150D02*
X12365301Y-12803150D01*
X12365301Y-12803150D02*
X12384349Y-12812674D01*
X12384349Y-12812674D02*
X12393872Y-12831722D01*
X12393872Y-12831722D02*
X12393872Y-12936484D01*
X12517682Y-12936484D02*
X12498634Y-12926960D01*
X12498634Y-12926960D02*
X12489111Y-12917436D01*
X12489111Y-12917436D02*
X12479587Y-12898388D01*
X12479587Y-12898388D02*
X12479587Y-12841246D01*
X12479587Y-12841246D02*
X12489111Y-12822198D01*
X12489111Y-12822198D02*
X12498634Y-12812674D01*
X12498634Y-12812674D02*
X12517682Y-12803150D01*
X12517682Y-12803150D02*
X12546253Y-12803150D01*
X12546253Y-12803150D02*
X12565301Y-12812674D01*
X12565301Y-12812674D02*
X12574825Y-12822198D01*
X12574825Y-12822198D02*
X12584349Y-12841246D01*
X12584349Y-12841246D02*
X12584349Y-12898388D01*
X12584349Y-12898388D02*
X12574825Y-12917436D01*
X12574825Y-12917436D02*
X12565301Y-12926960D01*
X12565301Y-12926960D02*
X12546253Y-12936484D01*
X12546253Y-12936484D02*
X12517682Y-12936484D01*
X12641492Y-12803150D02*
X12717682Y-12803150D01*
X12670063Y-12736484D02*
X12670063Y-12907912D01*
X12670063Y-12907912D02*
X12679587Y-12926960D01*
X12679587Y-12926960D02*
X12698634Y-12936484D01*
X12698634Y-12936484D02*
X12717682Y-12936484D01*
X12936730Y-12803150D02*
X12936730Y-13003150D01*
X12936730Y-12812674D02*
X12955777Y-12803150D01*
X12955777Y-12803150D02*
X12993873Y-12803150D01*
X12993873Y-12803150D02*
X13012920Y-12812674D01*
X13012920Y-12812674D02*
X13022444Y-12822198D01*
X13022444Y-12822198D02*
X13031968Y-12841246D01*
X13031968Y-12841246D02*
X13031968Y-12898388D01*
X13031968Y-12898388D02*
X13022444Y-12917436D01*
X13022444Y-12917436D02*
X13012920Y-12926960D01*
X13012920Y-12926960D02*
X12993873Y-12936484D01*
X12993873Y-12936484D02*
X12955777Y-12936484D01*
X12955777Y-12936484D02*
X12936730Y-12926960D01*
X13146253Y-12936484D02*
X13127206Y-12926960D01*
X13127206Y-12926960D02*
X13117682Y-12907912D01*
X13117682Y-12907912D02*
X13117682Y-12736484D01*
X13308158Y-12936484D02*
X13308158Y-12831722D01*
X13308158Y-12831722D02*
X13298634Y-12812674D01*
X13298634Y-12812674D02*
X13279587Y-12803150D01*
X13279587Y-12803150D02*
X13241492Y-12803150D01*
X13241492Y-12803150D02*
X13222444Y-12812674D01*
X13308158Y-12926960D02*
X13289111Y-12936484D01*
X13289111Y-12936484D02*
X13241492Y-12936484D01*
X13241492Y-12936484D02*
X13222444Y-12926960D01*
X13222444Y-12926960D02*
X13212920Y-12907912D01*
X13212920Y-12907912D02*
X13212920Y-12888865D01*
X13212920Y-12888865D02*
X13222444Y-12869817D01*
X13222444Y-12869817D02*
X13241492Y-12860293D01*
X13241492Y-12860293D02*
X13289111Y-12860293D01*
X13289111Y-12860293D02*
X13308158Y-12850769D01*
X13374825Y-12803150D02*
X13451015Y-12803150D01*
X13403396Y-12736484D02*
X13403396Y-12907912D01*
X13403396Y-12907912D02*
X13412920Y-12926960D01*
X13412920Y-12926960D02*
X13431968Y-12936484D01*
X13431968Y-12936484D02*
X13451015Y-12936484D01*
X13593873Y-12926960D02*
X13574825Y-12936484D01*
X13574825Y-12936484D02*
X13536730Y-12936484D01*
X13536730Y-12936484D02*
X13517682Y-12926960D01*
X13517682Y-12926960D02*
X13508158Y-12907912D01*
X13508158Y-12907912D02*
X13508158Y-12831722D01*
X13508158Y-12831722D02*
X13517682Y-12812674D01*
X13517682Y-12812674D02*
X13536730Y-12803150D01*
X13536730Y-12803150D02*
X13574825Y-12803150D01*
X13574825Y-12803150D02*
X13593873Y-12812674D01*
X13593873Y-12812674D02*
X13603396Y-12831722D01*
X13603396Y-12831722D02*
X13603396Y-12850769D01*
X13603396Y-12850769D02*
X13508158Y-12869817D01*
X13774825Y-12936484D02*
X13774825Y-12736484D01*
X13774825Y-12926960D02*
X13755777Y-12936484D01*
X13755777Y-12936484D02*
X13717682Y-12936484D01*
X13717682Y-12936484D02*
X13698634Y-12926960D01*
X13698634Y-12926960D02*
X13689111Y-12917436D01*
X13689111Y-12917436D02*
X13679587Y-12898388D01*
X13679587Y-12898388D02*
X13679587Y-12841246D01*
X13679587Y-12841246D02*
X13689111Y-12822198D01*
X13689111Y-12822198D02*
X13698634Y-12812674D01*
X13698634Y-12812674D02*
X13717682Y-12803150D01*
X13717682Y-12803150D02*
X13755777Y-12803150D01*
X13755777Y-12803150D02*
X13774825Y-12812674D01*
X13851015Y-13012674D02*
X13860539Y-13003150D01*
X13860539Y-13003150D02*
X13879587Y-12974579D01*
X13879587Y-12974579D02*
X13889111Y-12955531D01*
X13889111Y-12955531D02*
X13898634Y-12926960D01*
X13898634Y-12926960D02*
X13908158Y-12879341D01*
X13908158Y-12879341D02*
X13908158Y-12841246D01*
X13908158Y-12841246D02*
X13898634Y-12793627D01*
X13898634Y-12793627D02*
X13889111Y-12765055D01*
X13889111Y-12765055D02*
X13879587Y-12746008D01*
X13879587Y-12746008D02*
X13860539Y-12717436D01*
X13860539Y-12717436D02*
X13851015Y-12707912D01*
D13*
X7095000Y-13115000D02*
G75*
G02*
X6915000Y-13115000I-90000J0D01*
G01*
X6915000Y-13115000D02*
G75*
G02*
X7095000Y-13115000I90000J0D01*
G01*
D11*
X7460539Y-13206484D02*
X7346253Y-13206484D01*
X7403396Y-13206484D02*
X7403396Y-13006484D01*
X7403396Y-13006484D02*
X7384348Y-13035055D01*
X7384348Y-13035055D02*
X7365301Y-13054103D01*
X7365301Y-13054103D02*
X7346253Y-13063627D01*
X7546253Y-13187436D02*
X7555777Y-13196960D01*
X7555777Y-13196960D02*
X7546253Y-13206484D01*
X7546253Y-13206484D02*
X7536729Y-13196960D01*
X7536729Y-13196960D02*
X7546253Y-13187436D01*
X7546253Y-13187436D02*
X7546253Y-13206484D01*
X7670062Y-13092198D02*
X7651015Y-13082674D01*
X7651015Y-13082674D02*
X7641491Y-13073150D01*
X7641491Y-13073150D02*
X7631967Y-13054103D01*
X7631967Y-13054103D02*
X7631967Y-13044579D01*
X7631967Y-13044579D02*
X7641491Y-13025531D01*
X7641491Y-13025531D02*
X7651015Y-13016008D01*
X7651015Y-13016008D02*
X7670062Y-13006484D01*
X7670062Y-13006484D02*
X7708158Y-13006484D01*
X7708158Y-13006484D02*
X7727205Y-13016008D01*
X7727205Y-13016008D02*
X7736729Y-13025531D01*
X7736729Y-13025531D02*
X7746253Y-13044579D01*
X7746253Y-13044579D02*
X7746253Y-13054103D01*
X7746253Y-13054103D02*
X7736729Y-13073150D01*
X7736729Y-13073150D02*
X7727205Y-13082674D01*
X7727205Y-13082674D02*
X7708158Y-13092198D01*
X7708158Y-13092198D02*
X7670062Y-13092198D01*
X7670062Y-13092198D02*
X7651015Y-13101722D01*
X7651015Y-13101722D02*
X7641491Y-13111246D01*
X7641491Y-13111246D02*
X7631967Y-13130293D01*
X7631967Y-13130293D02*
X7631967Y-13168388D01*
X7631967Y-13168388D02*
X7641491Y-13187436D01*
X7641491Y-13187436D02*
X7651015Y-13196960D01*
X7651015Y-13196960D02*
X7670062Y-13206484D01*
X7670062Y-13206484D02*
X7708158Y-13206484D01*
X7708158Y-13206484D02*
X7727205Y-13196960D01*
X7727205Y-13196960D02*
X7736729Y-13187436D01*
X7736729Y-13187436D02*
X7746253Y-13168388D01*
X7746253Y-13168388D02*
X7746253Y-13130293D01*
X7746253Y-13130293D02*
X7736729Y-13111246D01*
X7736729Y-13111246D02*
X7727205Y-13101722D01*
X7727205Y-13101722D02*
X7708158Y-13092198D01*
X7870062Y-13006484D02*
X7889110Y-13006484D01*
X7889110Y-13006484D02*
X7908158Y-13016008D01*
X7908158Y-13016008D02*
X7917682Y-13025531D01*
X7917682Y-13025531D02*
X7927205Y-13044579D01*
X7927205Y-13044579D02*
X7936729Y-13082674D01*
X7936729Y-13082674D02*
X7936729Y-13130293D01*
X7936729Y-13130293D02*
X7927205Y-13168388D01*
X7927205Y-13168388D02*
X7917682Y-13187436D01*
X7917682Y-13187436D02*
X7908158Y-13196960D01*
X7908158Y-13196960D02*
X7889110Y-13206484D01*
X7889110Y-13206484D02*
X7870062Y-13206484D01*
X7870062Y-13206484D02*
X7851015Y-13196960D01*
X7851015Y-13196960D02*
X7841491Y-13187436D01*
X7841491Y-13187436D02*
X7831967Y-13168388D01*
X7831967Y-13168388D02*
X7822443Y-13130293D01*
X7822443Y-13130293D02*
X7822443Y-13082674D01*
X7822443Y-13082674D02*
X7831967Y-13044579D01*
X7831967Y-13044579D02*
X7841491Y-13025531D01*
X7841491Y-13025531D02*
X7851015Y-13016008D01*
X7851015Y-13016008D02*
X7870062Y-13006484D01*
X8060539Y-13006484D02*
X8079586Y-13006484D01*
X8079586Y-13006484D02*
X8098634Y-13016008D01*
X8098634Y-13016008D02*
X8108158Y-13025531D01*
X8108158Y-13025531D02*
X8117682Y-13044579D01*
X8117682Y-13044579D02*
X8127205Y-13082674D01*
X8127205Y-13082674D02*
X8127205Y-13130293D01*
X8127205Y-13130293D02*
X8117682Y-13168388D01*
X8117682Y-13168388D02*
X8108158Y-13187436D01*
X8108158Y-13187436D02*
X8098634Y-13196960D01*
X8098634Y-13196960D02*
X8079586Y-13206484D01*
X8079586Y-13206484D02*
X8060539Y-13206484D01*
X8060539Y-13206484D02*
X8041491Y-13196960D01*
X8041491Y-13196960D02*
X8031967Y-13187436D01*
X8031967Y-13187436D02*
X8022443Y-13168388D01*
X8022443Y-13168388D02*
X8012920Y-13130293D01*
X8012920Y-13130293D02*
X8012920Y-13082674D01*
X8012920Y-13082674D02*
X8022443Y-13044579D01*
X8022443Y-13044579D02*
X8031967Y-13025531D01*
X8031967Y-13025531D02*
X8041491Y-13016008D01*
X8041491Y-13016008D02*
X8060539Y-13006484D01*
X8212920Y-13206484D02*
X8212920Y-13073150D01*
X8212920Y-13092198D02*
X8222443Y-13082674D01*
X8222443Y-13082674D02*
X8241491Y-13073150D01*
X8241491Y-13073150D02*
X8270063Y-13073150D01*
X8270063Y-13073150D02*
X8289110Y-13082674D01*
X8289110Y-13082674D02*
X8298634Y-13101722D01*
X8298634Y-13101722D02*
X8298634Y-13206484D01*
X8298634Y-13101722D02*
X8308158Y-13082674D01*
X8308158Y-13082674D02*
X8327205Y-13073150D01*
X8327205Y-13073150D02*
X8355777Y-13073150D01*
X8355777Y-13073150D02*
X8374824Y-13082674D01*
X8374824Y-13082674D02*
X8384348Y-13101722D01*
X8384348Y-13101722D02*
X8384348Y-13206484D01*
X8479586Y-13206484D02*
X8479586Y-13073150D01*
X8479586Y-13092198D02*
X8489110Y-13082674D01*
X8489110Y-13082674D02*
X8508158Y-13073150D01*
X8508158Y-13073150D02*
X8536729Y-13073150D01*
X8536729Y-13073150D02*
X8555777Y-13082674D01*
X8555777Y-13082674D02*
X8565301Y-13101722D01*
X8565301Y-13101722D02*
X8565301Y-13206484D01*
X8565301Y-13101722D02*
X8574825Y-13082674D01*
X8574825Y-13082674D02*
X8593872Y-13073150D01*
X8593872Y-13073150D02*
X8622444Y-13073150D01*
X8622444Y-13073150D02*
X8641491Y-13082674D01*
X8641491Y-13082674D02*
X8651015Y-13101722D01*
X8651015Y-13101722D02*
X8651015Y-13206484D01*
X9041491Y-12996960D02*
X8870063Y-13254103D01*
X9298634Y-13006484D02*
X9317682Y-13006484D01*
X9317682Y-13006484D02*
X9336729Y-13016008D01*
X9336729Y-13016008D02*
X9346253Y-13025531D01*
X9346253Y-13025531D02*
X9355777Y-13044579D01*
X9355777Y-13044579D02*
X9365301Y-13082674D01*
X9365301Y-13082674D02*
X9365301Y-13130293D01*
X9365301Y-13130293D02*
X9355777Y-13168388D01*
X9355777Y-13168388D02*
X9346253Y-13187436D01*
X9346253Y-13187436D02*
X9336729Y-13196960D01*
X9336729Y-13196960D02*
X9317682Y-13206484D01*
X9317682Y-13206484D02*
X9298634Y-13206484D01*
X9298634Y-13206484D02*
X9279587Y-13196960D01*
X9279587Y-13196960D02*
X9270063Y-13187436D01*
X9270063Y-13187436D02*
X9260539Y-13168388D01*
X9260539Y-13168388D02*
X9251015Y-13130293D01*
X9251015Y-13130293D02*
X9251015Y-13082674D01*
X9251015Y-13082674D02*
X9260539Y-13044579D01*
X9260539Y-13044579D02*
X9270063Y-13025531D01*
X9270063Y-13025531D02*
X9279587Y-13016008D01*
X9279587Y-13016008D02*
X9298634Y-13006484D01*
X9451015Y-13187436D02*
X9460539Y-13196960D01*
X9460539Y-13196960D02*
X9451015Y-13206484D01*
X9451015Y-13206484D02*
X9441491Y-13196960D01*
X9441491Y-13196960D02*
X9451015Y-13187436D01*
X9451015Y-13187436D02*
X9451015Y-13206484D01*
X9584348Y-13006484D02*
X9603396Y-13006484D01*
X9603396Y-13006484D02*
X9622444Y-13016008D01*
X9622444Y-13016008D02*
X9631968Y-13025531D01*
X9631968Y-13025531D02*
X9641491Y-13044579D01*
X9641491Y-13044579D02*
X9651015Y-13082674D01*
X9651015Y-13082674D02*
X9651015Y-13130293D01*
X9651015Y-13130293D02*
X9641491Y-13168388D01*
X9641491Y-13168388D02*
X9631968Y-13187436D01*
X9631968Y-13187436D02*
X9622444Y-13196960D01*
X9622444Y-13196960D02*
X9603396Y-13206484D01*
X9603396Y-13206484D02*
X9584348Y-13206484D01*
X9584348Y-13206484D02*
X9565301Y-13196960D01*
X9565301Y-13196960D02*
X9555777Y-13187436D01*
X9555777Y-13187436D02*
X9546253Y-13168388D01*
X9546253Y-13168388D02*
X9536729Y-13130293D01*
X9536729Y-13130293D02*
X9536729Y-13082674D01*
X9536729Y-13082674D02*
X9546253Y-13044579D01*
X9546253Y-13044579D02*
X9555777Y-13025531D01*
X9555777Y-13025531D02*
X9565301Y-13016008D01*
X9565301Y-13016008D02*
X9584348Y-13006484D01*
X9717682Y-13006484D02*
X9851015Y-13006484D01*
X9851015Y-13006484D02*
X9765301Y-13206484D01*
X9965301Y-13006484D02*
X9984349Y-13006484D01*
X9984349Y-13006484D02*
X10003396Y-13016008D01*
X10003396Y-13016008D02*
X10012920Y-13025531D01*
X10012920Y-13025531D02*
X10022444Y-13044579D01*
X10022444Y-13044579D02*
X10031968Y-13082674D01*
X10031968Y-13082674D02*
X10031968Y-13130293D01*
X10031968Y-13130293D02*
X10022444Y-13168388D01*
X10022444Y-13168388D02*
X10012920Y-13187436D01*
X10012920Y-13187436D02*
X10003396Y-13196960D01*
X10003396Y-13196960D02*
X9984349Y-13206484D01*
X9984349Y-13206484D02*
X9965301Y-13206484D01*
X9965301Y-13206484D02*
X9946253Y-13196960D01*
X9946253Y-13196960D02*
X9936729Y-13187436D01*
X9936729Y-13187436D02*
X9927206Y-13168388D01*
X9927206Y-13168388D02*
X9917682Y-13130293D01*
X9917682Y-13130293D02*
X9917682Y-13082674D01*
X9917682Y-13082674D02*
X9927206Y-13044579D01*
X9927206Y-13044579D02*
X9936729Y-13025531D01*
X9936729Y-13025531D02*
X9946253Y-13016008D01*
X9946253Y-13016008D02*
X9965301Y-13006484D01*
X10127206Y-13206484D02*
X10165301Y-13206484D01*
X10165301Y-13206484D02*
X10184349Y-13196960D01*
X10184349Y-13196960D02*
X10193872Y-13187436D01*
X10193872Y-13187436D02*
X10212920Y-13158865D01*
X10212920Y-13158865D02*
X10222444Y-13120769D01*
X10222444Y-13120769D02*
X10222444Y-13044579D01*
X10222444Y-13044579D02*
X10212920Y-13025531D01*
X10212920Y-13025531D02*
X10203396Y-13016008D01*
X10203396Y-13016008D02*
X10184349Y-13006484D01*
X10184349Y-13006484D02*
X10146253Y-13006484D01*
X10146253Y-13006484D02*
X10127206Y-13016008D01*
X10127206Y-13016008D02*
X10117682Y-13025531D01*
X10117682Y-13025531D02*
X10108158Y-13044579D01*
X10108158Y-13044579D02*
X10108158Y-13092198D01*
X10108158Y-13092198D02*
X10117682Y-13111246D01*
X10117682Y-13111246D02*
X10127206Y-13120769D01*
X10127206Y-13120769D02*
X10146253Y-13130293D01*
X10146253Y-13130293D02*
X10184349Y-13130293D01*
X10184349Y-13130293D02*
X10203396Y-13120769D01*
X10203396Y-13120769D02*
X10212920Y-13111246D01*
X10212920Y-13111246D02*
X10222444Y-13092198D01*
X10298634Y-13006484D02*
X10298634Y-13044579D01*
X10374825Y-13006484D02*
X10374825Y-13044579D01*
X10670063Y-13282674D02*
X10660539Y-13273150D01*
X10660539Y-13273150D02*
X10641491Y-13244579D01*
X10641491Y-13244579D02*
X10631968Y-13225531D01*
X10631968Y-13225531D02*
X10622444Y-13196960D01*
X10622444Y-13196960D02*
X10612920Y-13149341D01*
X10612920Y-13149341D02*
X10612920Y-13111246D01*
X10612920Y-13111246D02*
X10622444Y-13063627D01*
X10622444Y-13063627D02*
X10631968Y-13035055D01*
X10631968Y-13035055D02*
X10641491Y-13016008D01*
X10641491Y-13016008D02*
X10660539Y-12987436D01*
X10660539Y-12987436D02*
X10670063Y-12977912D01*
X10736730Y-13025531D02*
X10746253Y-13016008D01*
X10746253Y-13016008D02*
X10765301Y-13006484D01*
X10765301Y-13006484D02*
X10812920Y-13006484D01*
X10812920Y-13006484D02*
X10831968Y-13016008D01*
X10831968Y-13016008D02*
X10841491Y-13025531D01*
X10841491Y-13025531D02*
X10851015Y-13044579D01*
X10851015Y-13044579D02*
X10851015Y-13063627D01*
X10851015Y-13063627D02*
X10841491Y-13092198D01*
X10841491Y-13092198D02*
X10727206Y-13206484D01*
X10727206Y-13206484D02*
X10851015Y-13206484D01*
X11089111Y-13206484D02*
X11089111Y-13006484D01*
X11174825Y-13206484D02*
X11174825Y-13101722D01*
X11174825Y-13101722D02*
X11165301Y-13082674D01*
X11165301Y-13082674D02*
X11146253Y-13073150D01*
X11146253Y-13073150D02*
X11117682Y-13073150D01*
X11117682Y-13073150D02*
X11098634Y-13082674D01*
X11098634Y-13082674D02*
X11089111Y-13092198D01*
X11298634Y-13206484D02*
X11279587Y-13196960D01*
X11279587Y-13196960D02*
X11270063Y-13187436D01*
X11270063Y-13187436D02*
X11260539Y-13168388D01*
X11260539Y-13168388D02*
X11260539Y-13111246D01*
X11260539Y-13111246D02*
X11270063Y-13092198D01*
X11270063Y-13092198D02*
X11279587Y-13082674D01*
X11279587Y-13082674D02*
X11298634Y-13073150D01*
X11298634Y-13073150D02*
X11327206Y-13073150D01*
X11327206Y-13073150D02*
X11346253Y-13082674D01*
X11346253Y-13082674D02*
X11355777Y-13092198D01*
X11355777Y-13092198D02*
X11365301Y-13111246D01*
X11365301Y-13111246D02*
X11365301Y-13168388D01*
X11365301Y-13168388D02*
X11355777Y-13187436D01*
X11355777Y-13187436D02*
X11346253Y-13196960D01*
X11346253Y-13196960D02*
X11327206Y-13206484D01*
X11327206Y-13206484D02*
X11298634Y-13206484D01*
X11479587Y-13206484D02*
X11460539Y-13196960D01*
X11460539Y-13196960D02*
X11451015Y-13177912D01*
X11451015Y-13177912D02*
X11451015Y-13006484D01*
X11631968Y-13196960D02*
X11612920Y-13206484D01*
X11612920Y-13206484D02*
X11574825Y-13206484D01*
X11574825Y-13206484D02*
X11555777Y-13196960D01*
X11555777Y-13196960D02*
X11546253Y-13177912D01*
X11546253Y-13177912D02*
X11546253Y-13101722D01*
X11546253Y-13101722D02*
X11555777Y-13082674D01*
X11555777Y-13082674D02*
X11574825Y-13073150D01*
X11574825Y-13073150D02*
X11612920Y-13073150D01*
X11612920Y-13073150D02*
X11631968Y-13082674D01*
X11631968Y-13082674D02*
X11641491Y-13101722D01*
X11641491Y-13101722D02*
X11641491Y-13120769D01*
X11641491Y-13120769D02*
X11546253Y-13139817D01*
X11717682Y-13196960D02*
X11736730Y-13206484D01*
X11736730Y-13206484D02*
X11774825Y-13206484D01*
X11774825Y-13206484D02*
X11793872Y-13196960D01*
X11793872Y-13196960D02*
X11803396Y-13177912D01*
X11803396Y-13177912D02*
X11803396Y-13168388D01*
X11803396Y-13168388D02*
X11793872Y-13149341D01*
X11793872Y-13149341D02*
X11774825Y-13139817D01*
X11774825Y-13139817D02*
X11746253Y-13139817D01*
X11746253Y-13139817D02*
X11727206Y-13130293D01*
X11727206Y-13130293D02*
X11717682Y-13111246D01*
X11717682Y-13111246D02*
X11717682Y-13101722D01*
X11717682Y-13101722D02*
X11727206Y-13082674D01*
X11727206Y-13082674D02*
X11746253Y-13073150D01*
X11746253Y-13073150D02*
X11774825Y-13073150D01*
X11774825Y-13073150D02*
X11793872Y-13082674D01*
X11870063Y-13282674D02*
X11879587Y-13273150D01*
X11879587Y-13273150D02*
X11898634Y-13244579D01*
X11898634Y-13244579D02*
X11908158Y-13225531D01*
X11908158Y-13225531D02*
X11917682Y-13196960D01*
X11917682Y-13196960D02*
X11927206Y-13149341D01*
X11927206Y-13149341D02*
X11927206Y-13111246D01*
X11927206Y-13111246D02*
X11917682Y-13063627D01*
X11917682Y-13063627D02*
X11908158Y-13035055D01*
X11908158Y-13035055D02*
X11898634Y-13016008D01*
X11898634Y-13016008D02*
X11879587Y-12987436D01*
X11879587Y-12987436D02*
X11870063Y-12977912D01*
X12231968Y-13282674D02*
X12222444Y-13273150D01*
X12222444Y-13273150D02*
X12203396Y-13244579D01*
X12203396Y-13244579D02*
X12193872Y-13225531D01*
X12193872Y-13225531D02*
X12184349Y-13196960D01*
X12184349Y-13196960D02*
X12174825Y-13149341D01*
X12174825Y-13149341D02*
X12174825Y-13111246D01*
X12174825Y-13111246D02*
X12184349Y-13063627D01*
X12184349Y-13063627D02*
X12193872Y-13035055D01*
X12193872Y-13035055D02*
X12203396Y-13016008D01*
X12203396Y-13016008D02*
X12222444Y-12987436D01*
X12222444Y-12987436D02*
X12231968Y-12977912D01*
X12308158Y-13073150D02*
X12308158Y-13206484D01*
X12308158Y-13092198D02*
X12317682Y-13082674D01*
X12317682Y-13082674D02*
X12336730Y-13073150D01*
X12336730Y-13073150D02*
X12365301Y-13073150D01*
X12365301Y-13073150D02*
X12384349Y-13082674D01*
X12384349Y-13082674D02*
X12393872Y-13101722D01*
X12393872Y-13101722D02*
X12393872Y-13206484D01*
X12517682Y-13206484D02*
X12498634Y-13196960D01*
X12498634Y-13196960D02*
X12489111Y-13187436D01*
X12489111Y-13187436D02*
X12479587Y-13168388D01*
X12479587Y-13168388D02*
X12479587Y-13111246D01*
X12479587Y-13111246D02*
X12489111Y-13092198D01*
X12489111Y-13092198D02*
X12498634Y-13082674D01*
X12498634Y-13082674D02*
X12517682Y-13073150D01*
X12517682Y-13073150D02*
X12546253Y-13073150D01*
X12546253Y-13073150D02*
X12565301Y-13082674D01*
X12565301Y-13082674D02*
X12574825Y-13092198D01*
X12574825Y-13092198D02*
X12584349Y-13111246D01*
X12584349Y-13111246D02*
X12584349Y-13168388D01*
X12584349Y-13168388D02*
X12574825Y-13187436D01*
X12574825Y-13187436D02*
X12565301Y-13196960D01*
X12565301Y-13196960D02*
X12546253Y-13206484D01*
X12546253Y-13206484D02*
X12517682Y-13206484D01*
X12641492Y-13073150D02*
X12717682Y-13073150D01*
X12670063Y-13006484D02*
X12670063Y-13177912D01*
X12670063Y-13177912D02*
X12679587Y-13196960D01*
X12679587Y-13196960D02*
X12698634Y-13206484D01*
X12698634Y-13206484D02*
X12717682Y-13206484D01*
X12936730Y-13073150D02*
X12936730Y-13273150D01*
X12936730Y-13082674D02*
X12955777Y-13073150D01*
X12955777Y-13073150D02*
X12993873Y-13073150D01*
X12993873Y-13073150D02*
X13012920Y-13082674D01*
X13012920Y-13082674D02*
X13022444Y-13092198D01*
X13022444Y-13092198D02*
X13031968Y-13111246D01*
X13031968Y-13111246D02*
X13031968Y-13168388D01*
X13031968Y-13168388D02*
X13022444Y-13187436D01*
X13022444Y-13187436D02*
X13012920Y-13196960D01*
X13012920Y-13196960D02*
X12993873Y-13206484D01*
X12993873Y-13206484D02*
X12955777Y-13206484D01*
X12955777Y-13206484D02*
X12936730Y-13196960D01*
X13146253Y-13206484D02*
X13127206Y-13196960D01*
X13127206Y-13196960D02*
X13117682Y-13177912D01*
X13117682Y-13177912D02*
X13117682Y-13006484D01*
X13308158Y-13206484D02*
X13308158Y-13101722D01*
X13308158Y-13101722D02*
X13298634Y-13082674D01*
X13298634Y-13082674D02*
X13279587Y-13073150D01*
X13279587Y-13073150D02*
X13241492Y-13073150D01*
X13241492Y-13073150D02*
X13222444Y-13082674D01*
X13308158Y-13196960D02*
X13289111Y-13206484D01*
X13289111Y-13206484D02*
X13241492Y-13206484D01*
X13241492Y-13206484D02*
X13222444Y-13196960D01*
X13222444Y-13196960D02*
X13212920Y-13177912D01*
X13212920Y-13177912D02*
X13212920Y-13158865D01*
X13212920Y-13158865D02*
X13222444Y-13139817D01*
X13222444Y-13139817D02*
X13241492Y-13130293D01*
X13241492Y-13130293D02*
X13289111Y-13130293D01*
X13289111Y-13130293D02*
X13308158Y-13120769D01*
X13374825Y-13073150D02*
X13451015Y-13073150D01*
X13403396Y-13006484D02*
X13403396Y-13177912D01*
X13403396Y-13177912D02*
X13412920Y-13196960D01*
X13412920Y-13196960D02*
X13431968Y-13206484D01*
X13431968Y-13206484D02*
X13451015Y-13206484D01*
X13593873Y-13196960D02*
X13574825Y-13206484D01*
X13574825Y-13206484D02*
X13536730Y-13206484D01*
X13536730Y-13206484D02*
X13517682Y-13196960D01*
X13517682Y-13196960D02*
X13508158Y-13177912D01*
X13508158Y-13177912D02*
X13508158Y-13101722D01*
X13508158Y-13101722D02*
X13517682Y-13082674D01*
X13517682Y-13082674D02*
X13536730Y-13073150D01*
X13536730Y-13073150D02*
X13574825Y-13073150D01*
X13574825Y-13073150D02*
X13593873Y-13082674D01*
X13593873Y-13082674D02*
X13603396Y-13101722D01*
X13603396Y-13101722D02*
X13603396Y-13120769D01*
X13603396Y-13120769D02*
X13508158Y-13139817D01*
X13774825Y-13206484D02*
X13774825Y-13006484D01*
X13774825Y-13196960D02*
X13755777Y-13206484D01*
X13755777Y-13206484D02*
X13717682Y-13206484D01*
X13717682Y-13206484D02*
X13698634Y-13196960D01*
X13698634Y-13196960D02*
X13689111Y-13187436D01*
X13689111Y-13187436D02*
X13679587Y-13168388D01*
X13679587Y-13168388D02*
X13679587Y-13111246D01*
X13679587Y-13111246D02*
X13689111Y-13092198D01*
X13689111Y-13092198D02*
X13698634Y-13082674D01*
X13698634Y-13082674D02*
X13717682Y-13073150D01*
X13717682Y-13073150D02*
X13755777Y-13073150D01*
X13755777Y-13073150D02*
X13774825Y-13082674D01*
X13851015Y-13282674D02*
X13860539Y-13273150D01*
X13860539Y-13273150D02*
X13879587Y-13244579D01*
X13879587Y-13244579D02*
X13889111Y-13225531D01*
X13889111Y-13225531D02*
X13898634Y-13196960D01*
X13898634Y-13196960D02*
X13908158Y-13149341D01*
X13908158Y-13149341D02*
X13908158Y-13111246D01*
X13908158Y-13111246D02*
X13898634Y-13063627D01*
X13898634Y-13063627D02*
X13889111Y-13035055D01*
X13889111Y-13035055D02*
X13879587Y-13016008D01*
X13879587Y-13016008D02*
X13860539Y-12987436D01*
X13860539Y-12987436D02*
X13851015Y-12977912D01*
X6995000Y-13315000D02*
X6995000Y-13515000D01*
X6895000Y-13415000D02*
X7095000Y-13415000D01*
X7336729Y-13306484D02*
X7460539Y-13306484D01*
X7460539Y-13306484D02*
X7393872Y-13382674D01*
X7393872Y-13382674D02*
X7422443Y-13382674D01*
X7422443Y-13382674D02*
X7441491Y-13392198D01*
X7441491Y-13392198D02*
X7451015Y-13401722D01*
X7451015Y-13401722D02*
X7460539Y-13420769D01*
X7460539Y-13420769D02*
X7460539Y-13468388D01*
X7460539Y-13468388D02*
X7451015Y-13487436D01*
X7451015Y-13487436D02*
X7441491Y-13496960D01*
X7441491Y-13496960D02*
X7422443Y-13506484D01*
X7422443Y-13506484D02*
X7365301Y-13506484D01*
X7365301Y-13506484D02*
X7346253Y-13496960D01*
X7346253Y-13496960D02*
X7336729Y-13487436D01*
X7546253Y-13487436D02*
X7555777Y-13496960D01*
X7555777Y-13496960D02*
X7546253Y-13506484D01*
X7546253Y-13506484D02*
X7536729Y-13496960D01*
X7536729Y-13496960D02*
X7546253Y-13487436D01*
X7546253Y-13487436D02*
X7546253Y-13506484D01*
X7736729Y-13306484D02*
X7641491Y-13306484D01*
X7641491Y-13306484D02*
X7631967Y-13401722D01*
X7631967Y-13401722D02*
X7641491Y-13392198D01*
X7641491Y-13392198D02*
X7660539Y-13382674D01*
X7660539Y-13382674D02*
X7708158Y-13382674D01*
X7708158Y-13382674D02*
X7727205Y-13392198D01*
X7727205Y-13392198D02*
X7736729Y-13401722D01*
X7736729Y-13401722D02*
X7746253Y-13420769D01*
X7746253Y-13420769D02*
X7746253Y-13468388D01*
X7746253Y-13468388D02*
X7736729Y-13487436D01*
X7736729Y-13487436D02*
X7727205Y-13496960D01*
X7727205Y-13496960D02*
X7708158Y-13506484D01*
X7708158Y-13506484D02*
X7660539Y-13506484D01*
X7660539Y-13506484D02*
X7641491Y-13496960D01*
X7641491Y-13496960D02*
X7631967Y-13487436D01*
X7870062Y-13306484D02*
X7889110Y-13306484D01*
X7889110Y-13306484D02*
X7908158Y-13316008D01*
X7908158Y-13316008D02*
X7917682Y-13325531D01*
X7917682Y-13325531D02*
X7927205Y-13344579D01*
X7927205Y-13344579D02*
X7936729Y-13382674D01*
X7936729Y-13382674D02*
X7936729Y-13430293D01*
X7936729Y-13430293D02*
X7927205Y-13468388D01*
X7927205Y-13468388D02*
X7917682Y-13487436D01*
X7917682Y-13487436D02*
X7908158Y-13496960D01*
X7908158Y-13496960D02*
X7889110Y-13506484D01*
X7889110Y-13506484D02*
X7870062Y-13506484D01*
X7870062Y-13506484D02*
X7851015Y-13496960D01*
X7851015Y-13496960D02*
X7841491Y-13487436D01*
X7841491Y-13487436D02*
X7831967Y-13468388D01*
X7831967Y-13468388D02*
X7822443Y-13430293D01*
X7822443Y-13430293D02*
X7822443Y-13382674D01*
X7822443Y-13382674D02*
X7831967Y-13344579D01*
X7831967Y-13344579D02*
X7841491Y-13325531D01*
X7841491Y-13325531D02*
X7851015Y-13316008D01*
X7851015Y-13316008D02*
X7870062Y-13306484D01*
X8060539Y-13306484D02*
X8079586Y-13306484D01*
X8079586Y-13306484D02*
X8098634Y-13316008D01*
X8098634Y-13316008D02*
X8108158Y-13325531D01*
X8108158Y-13325531D02*
X8117682Y-13344579D01*
X8117682Y-13344579D02*
X8127205Y-13382674D01*
X8127205Y-13382674D02*
X8127205Y-13430293D01*
X8127205Y-13430293D02*
X8117682Y-13468388D01*
X8117682Y-13468388D02*
X8108158Y-13487436D01*
X8108158Y-13487436D02*
X8098634Y-13496960D01*
X8098634Y-13496960D02*
X8079586Y-13506484D01*
X8079586Y-13506484D02*
X8060539Y-13506484D01*
X8060539Y-13506484D02*
X8041491Y-13496960D01*
X8041491Y-13496960D02*
X8031967Y-13487436D01*
X8031967Y-13487436D02*
X8022443Y-13468388D01*
X8022443Y-13468388D02*
X8012920Y-13430293D01*
X8012920Y-13430293D02*
X8012920Y-13382674D01*
X8012920Y-13382674D02*
X8022443Y-13344579D01*
X8022443Y-13344579D02*
X8031967Y-13325531D01*
X8031967Y-13325531D02*
X8041491Y-13316008D01*
X8041491Y-13316008D02*
X8060539Y-13306484D01*
X8212920Y-13506484D02*
X8212920Y-13373150D01*
X8212920Y-13392198D02*
X8222443Y-13382674D01*
X8222443Y-13382674D02*
X8241491Y-13373150D01*
X8241491Y-13373150D02*
X8270063Y-13373150D01*
X8270063Y-13373150D02*
X8289110Y-13382674D01*
X8289110Y-13382674D02*
X8298634Y-13401722D01*
X8298634Y-13401722D02*
X8298634Y-13506484D01*
X8298634Y-13401722D02*
X8308158Y-13382674D01*
X8308158Y-13382674D02*
X8327205Y-13373150D01*
X8327205Y-13373150D02*
X8355777Y-13373150D01*
X8355777Y-13373150D02*
X8374824Y-13382674D01*
X8374824Y-13382674D02*
X8384348Y-13401722D01*
X8384348Y-13401722D02*
X8384348Y-13506484D01*
X8479586Y-13506484D02*
X8479586Y-13373150D01*
X8479586Y-13392198D02*
X8489110Y-13382674D01*
X8489110Y-13382674D02*
X8508158Y-13373150D01*
X8508158Y-13373150D02*
X8536729Y-13373150D01*
X8536729Y-13373150D02*
X8555777Y-13382674D01*
X8555777Y-13382674D02*
X8565301Y-13401722D01*
X8565301Y-13401722D02*
X8565301Y-13506484D01*
X8565301Y-13401722D02*
X8574825Y-13382674D01*
X8574825Y-13382674D02*
X8593872Y-13373150D01*
X8593872Y-13373150D02*
X8622444Y-13373150D01*
X8622444Y-13373150D02*
X8641491Y-13382674D01*
X8641491Y-13382674D02*
X8651015Y-13401722D01*
X8651015Y-13401722D02*
X8651015Y-13506484D01*
X9041491Y-13296960D02*
X8870063Y-13554103D01*
X9298634Y-13306484D02*
X9317682Y-13306484D01*
X9317682Y-13306484D02*
X9336729Y-13316008D01*
X9336729Y-13316008D02*
X9346253Y-13325531D01*
X9346253Y-13325531D02*
X9355777Y-13344579D01*
X9355777Y-13344579D02*
X9365301Y-13382674D01*
X9365301Y-13382674D02*
X9365301Y-13430293D01*
X9365301Y-13430293D02*
X9355777Y-13468388D01*
X9355777Y-13468388D02*
X9346253Y-13487436D01*
X9346253Y-13487436D02*
X9336729Y-13496960D01*
X9336729Y-13496960D02*
X9317682Y-13506484D01*
X9317682Y-13506484D02*
X9298634Y-13506484D01*
X9298634Y-13506484D02*
X9279587Y-13496960D01*
X9279587Y-13496960D02*
X9270063Y-13487436D01*
X9270063Y-13487436D02*
X9260539Y-13468388D01*
X9260539Y-13468388D02*
X9251015Y-13430293D01*
X9251015Y-13430293D02*
X9251015Y-13382674D01*
X9251015Y-13382674D02*
X9260539Y-13344579D01*
X9260539Y-13344579D02*
X9270063Y-13325531D01*
X9270063Y-13325531D02*
X9279587Y-13316008D01*
X9279587Y-13316008D02*
X9298634Y-13306484D01*
X9451015Y-13487436D02*
X9460539Y-13496960D01*
X9460539Y-13496960D02*
X9451015Y-13506484D01*
X9451015Y-13506484D02*
X9441491Y-13496960D01*
X9441491Y-13496960D02*
X9451015Y-13487436D01*
X9451015Y-13487436D02*
X9451015Y-13506484D01*
X9651015Y-13506484D02*
X9536729Y-13506484D01*
X9593872Y-13506484D02*
X9593872Y-13306484D01*
X9593872Y-13306484D02*
X9574825Y-13335055D01*
X9574825Y-13335055D02*
X9555777Y-13354103D01*
X9555777Y-13354103D02*
X9536729Y-13363627D01*
X9717682Y-13306484D02*
X9841491Y-13306484D01*
X9841491Y-13306484D02*
X9774825Y-13382674D01*
X9774825Y-13382674D02*
X9803396Y-13382674D01*
X9803396Y-13382674D02*
X9822444Y-13392198D01*
X9822444Y-13392198D02*
X9831968Y-13401722D01*
X9831968Y-13401722D02*
X9841491Y-13420769D01*
X9841491Y-13420769D02*
X9841491Y-13468388D01*
X9841491Y-13468388D02*
X9831968Y-13487436D01*
X9831968Y-13487436D02*
X9822444Y-13496960D01*
X9822444Y-13496960D02*
X9803396Y-13506484D01*
X9803396Y-13506484D02*
X9746253Y-13506484D01*
X9746253Y-13506484D02*
X9727206Y-13496960D01*
X9727206Y-13496960D02*
X9717682Y-13487436D01*
X9908158Y-13306484D02*
X10041491Y-13306484D01*
X10041491Y-13306484D02*
X9955777Y-13506484D01*
X10146253Y-13392198D02*
X10127206Y-13382674D01*
X10127206Y-13382674D02*
X10117682Y-13373150D01*
X10117682Y-13373150D02*
X10108158Y-13354103D01*
X10108158Y-13354103D02*
X10108158Y-13344579D01*
X10108158Y-13344579D02*
X10117682Y-13325531D01*
X10117682Y-13325531D02*
X10127206Y-13316008D01*
X10127206Y-13316008D02*
X10146253Y-13306484D01*
X10146253Y-13306484D02*
X10184349Y-13306484D01*
X10184349Y-13306484D02*
X10203396Y-13316008D01*
X10203396Y-13316008D02*
X10212920Y-13325531D01*
X10212920Y-13325531D02*
X10222444Y-13344579D01*
X10222444Y-13344579D02*
X10222444Y-13354103D01*
X10222444Y-13354103D02*
X10212920Y-13373150D01*
X10212920Y-13373150D02*
X10203396Y-13382674D01*
X10203396Y-13382674D02*
X10184349Y-13392198D01*
X10184349Y-13392198D02*
X10146253Y-13392198D01*
X10146253Y-13392198D02*
X10127206Y-13401722D01*
X10127206Y-13401722D02*
X10117682Y-13411246D01*
X10117682Y-13411246D02*
X10108158Y-13430293D01*
X10108158Y-13430293D02*
X10108158Y-13468388D01*
X10108158Y-13468388D02*
X10117682Y-13487436D01*
X10117682Y-13487436D02*
X10127206Y-13496960D01*
X10127206Y-13496960D02*
X10146253Y-13506484D01*
X10146253Y-13506484D02*
X10184349Y-13506484D01*
X10184349Y-13506484D02*
X10203396Y-13496960D01*
X10203396Y-13496960D02*
X10212920Y-13487436D01*
X10212920Y-13487436D02*
X10222444Y-13468388D01*
X10222444Y-13468388D02*
X10222444Y-13430293D01*
X10222444Y-13430293D02*
X10212920Y-13411246D01*
X10212920Y-13411246D02*
X10203396Y-13401722D01*
X10203396Y-13401722D02*
X10184349Y-13392198D01*
X10298634Y-13306484D02*
X10298634Y-13344579D01*
X10374825Y-13306484D02*
X10374825Y-13344579D01*
X10670063Y-13582674D02*
X10660539Y-13573150D01*
X10660539Y-13573150D02*
X10641491Y-13544579D01*
X10641491Y-13544579D02*
X10631968Y-13525531D01*
X10631968Y-13525531D02*
X10622444Y-13496960D01*
X10622444Y-13496960D02*
X10612920Y-13449341D01*
X10612920Y-13449341D02*
X10612920Y-13411246D01*
X10612920Y-13411246D02*
X10622444Y-13363627D01*
X10622444Y-13363627D02*
X10631968Y-13335055D01*
X10631968Y-13335055D02*
X10641491Y-13316008D01*
X10641491Y-13316008D02*
X10660539Y-13287436D01*
X10660539Y-13287436D02*
X10670063Y-13277912D01*
X10851015Y-13506484D02*
X10736730Y-13506484D01*
X10793872Y-13506484D02*
X10793872Y-13306484D01*
X10793872Y-13306484D02*
X10774825Y-13335055D01*
X10774825Y-13335055D02*
X10755777Y-13354103D01*
X10755777Y-13354103D02*
X10736730Y-13363627D01*
X11089111Y-13506484D02*
X11089111Y-13306484D01*
X11174825Y-13506484D02*
X11174825Y-13401722D01*
X11174825Y-13401722D02*
X11165301Y-13382674D01*
X11165301Y-13382674D02*
X11146253Y-13373150D01*
X11146253Y-13373150D02*
X11117682Y-13373150D01*
X11117682Y-13373150D02*
X11098634Y-13382674D01*
X11098634Y-13382674D02*
X11089111Y-13392198D01*
X11298634Y-13506484D02*
X11279587Y-13496960D01*
X11279587Y-13496960D02*
X11270063Y-13487436D01*
X11270063Y-13487436D02*
X11260539Y-13468388D01*
X11260539Y-13468388D02*
X11260539Y-13411246D01*
X11260539Y-13411246D02*
X11270063Y-13392198D01*
X11270063Y-13392198D02*
X11279587Y-13382674D01*
X11279587Y-13382674D02*
X11298634Y-13373150D01*
X11298634Y-13373150D02*
X11327206Y-13373150D01*
X11327206Y-13373150D02*
X11346253Y-13382674D01*
X11346253Y-13382674D02*
X11355777Y-13392198D01*
X11355777Y-13392198D02*
X11365301Y-13411246D01*
X11365301Y-13411246D02*
X11365301Y-13468388D01*
X11365301Y-13468388D02*
X11355777Y-13487436D01*
X11355777Y-13487436D02*
X11346253Y-13496960D01*
X11346253Y-13496960D02*
X11327206Y-13506484D01*
X11327206Y-13506484D02*
X11298634Y-13506484D01*
X11479587Y-13506484D02*
X11460539Y-13496960D01*
X11460539Y-13496960D02*
X11451015Y-13477912D01*
X11451015Y-13477912D02*
X11451015Y-13306484D01*
X11631968Y-13496960D02*
X11612920Y-13506484D01*
X11612920Y-13506484D02*
X11574825Y-13506484D01*
X11574825Y-13506484D02*
X11555777Y-13496960D01*
X11555777Y-13496960D02*
X11546253Y-13477912D01*
X11546253Y-13477912D02*
X11546253Y-13401722D01*
X11546253Y-13401722D02*
X11555777Y-13382674D01*
X11555777Y-13382674D02*
X11574825Y-13373150D01*
X11574825Y-13373150D02*
X11612920Y-13373150D01*
X11612920Y-13373150D02*
X11631968Y-13382674D01*
X11631968Y-13382674D02*
X11641491Y-13401722D01*
X11641491Y-13401722D02*
X11641491Y-13420769D01*
X11641491Y-13420769D02*
X11546253Y-13439817D01*
X11708158Y-13582674D02*
X11717682Y-13573150D01*
X11717682Y-13573150D02*
X11736730Y-13544579D01*
X11736730Y-13544579D02*
X11746253Y-13525531D01*
X11746253Y-13525531D02*
X11755777Y-13496960D01*
X11755777Y-13496960D02*
X11765301Y-13449341D01*
X11765301Y-13449341D02*
X11765301Y-13411246D01*
X11765301Y-13411246D02*
X11755777Y-13363627D01*
X11755777Y-13363627D02*
X11746253Y-13335055D01*
X11746253Y-13335055D02*
X11736730Y-13316008D01*
X11736730Y-13316008D02*
X11717682Y-13287436D01*
X11717682Y-13287436D02*
X11708158Y-13277912D01*
X12070063Y-13582674D02*
X12060539Y-13573150D01*
X12060539Y-13573150D02*
X12041491Y-13544579D01*
X12041491Y-13544579D02*
X12031968Y-13525531D01*
X12031968Y-13525531D02*
X12022444Y-13496960D01*
X12022444Y-13496960D02*
X12012920Y-13449341D01*
X12012920Y-13449341D02*
X12012920Y-13411246D01*
X12012920Y-13411246D02*
X12022444Y-13363627D01*
X12022444Y-13363627D02*
X12031968Y-13335055D01*
X12031968Y-13335055D02*
X12041491Y-13316008D01*
X12041491Y-13316008D02*
X12060539Y-13287436D01*
X12060539Y-13287436D02*
X12070063Y-13277912D01*
X12146253Y-13373150D02*
X12146253Y-13506484D01*
X12146253Y-13392198D02*
X12155777Y-13382674D01*
X12155777Y-13382674D02*
X12174825Y-13373150D01*
X12174825Y-13373150D02*
X12203396Y-13373150D01*
X12203396Y-13373150D02*
X12222444Y-13382674D01*
X12222444Y-13382674D02*
X12231968Y-13401722D01*
X12231968Y-13401722D02*
X12231968Y-13506484D01*
X12355777Y-13506484D02*
X12336730Y-13496960D01*
X12336730Y-13496960D02*
X12327206Y-13487436D01*
X12327206Y-13487436D02*
X12317682Y-13468388D01*
X12317682Y-13468388D02*
X12317682Y-13411246D01*
X12317682Y-13411246D02*
X12327206Y-13392198D01*
X12327206Y-13392198D02*
X12336730Y-13382674D01*
X12336730Y-13382674D02*
X12355777Y-13373150D01*
X12355777Y-13373150D02*
X12384349Y-13373150D01*
X12384349Y-13373150D02*
X12403396Y-13382674D01*
X12403396Y-13382674D02*
X12412920Y-13392198D01*
X12412920Y-13392198D02*
X12422444Y-13411246D01*
X12422444Y-13411246D02*
X12422444Y-13468388D01*
X12422444Y-13468388D02*
X12412920Y-13487436D01*
X12412920Y-13487436D02*
X12403396Y-13496960D01*
X12403396Y-13496960D02*
X12384349Y-13506484D01*
X12384349Y-13506484D02*
X12355777Y-13506484D01*
X12479587Y-13373150D02*
X12555777Y-13373150D01*
X12508158Y-13306484D02*
X12508158Y-13477912D01*
X12508158Y-13477912D02*
X12517682Y-13496960D01*
X12517682Y-13496960D02*
X12536730Y-13506484D01*
X12536730Y-13506484D02*
X12555777Y-13506484D01*
X12774825Y-13373150D02*
X12774825Y-13573150D01*
X12774825Y-13382674D02*
X12793872Y-13373150D01*
X12793872Y-13373150D02*
X12831968Y-13373150D01*
X12831968Y-13373150D02*
X12851015Y-13382674D01*
X12851015Y-13382674D02*
X12860539Y-13392198D01*
X12860539Y-13392198D02*
X12870063Y-13411246D01*
X12870063Y-13411246D02*
X12870063Y-13468388D01*
X12870063Y-13468388D02*
X12860539Y-13487436D01*
X12860539Y-13487436D02*
X12851015Y-13496960D01*
X12851015Y-13496960D02*
X12831968Y-13506484D01*
X12831968Y-13506484D02*
X12793872Y-13506484D01*
X12793872Y-13506484D02*
X12774825Y-13496960D01*
X12984349Y-13506484D02*
X12965301Y-13496960D01*
X12965301Y-13496960D02*
X12955777Y-13477912D01*
X12955777Y-13477912D02*
X12955777Y-13306484D01*
X13146253Y-13506484D02*
X13146253Y-13401722D01*
X13146253Y-13401722D02*
X13136730Y-13382674D01*
X13136730Y-13382674D02*
X13117682Y-13373150D01*
X13117682Y-13373150D02*
X13079587Y-13373150D01*
X13079587Y-13373150D02*
X13060539Y-13382674D01*
X13146253Y-13496960D02*
X13127206Y-13506484D01*
X13127206Y-13506484D02*
X13079587Y-13506484D01*
X13079587Y-13506484D02*
X13060539Y-13496960D01*
X13060539Y-13496960D02*
X13051015Y-13477912D01*
X13051015Y-13477912D02*
X13051015Y-13458865D01*
X13051015Y-13458865D02*
X13060539Y-13439817D01*
X13060539Y-13439817D02*
X13079587Y-13430293D01*
X13079587Y-13430293D02*
X13127206Y-13430293D01*
X13127206Y-13430293D02*
X13146253Y-13420769D01*
X13212920Y-13373150D02*
X13289111Y-13373150D01*
X13241492Y-13306484D02*
X13241492Y-13477912D01*
X13241492Y-13477912D02*
X13251015Y-13496960D01*
X13251015Y-13496960D02*
X13270063Y-13506484D01*
X13270063Y-13506484D02*
X13289111Y-13506484D01*
X13431968Y-13496960D02*
X13412920Y-13506484D01*
X13412920Y-13506484D02*
X13374825Y-13506484D01*
X13374825Y-13506484D02*
X13355777Y-13496960D01*
X13355777Y-13496960D02*
X13346253Y-13477912D01*
X13346253Y-13477912D02*
X13346253Y-13401722D01*
X13346253Y-13401722D02*
X13355777Y-13382674D01*
X13355777Y-13382674D02*
X13374825Y-13373150D01*
X13374825Y-13373150D02*
X13412920Y-13373150D01*
X13412920Y-13373150D02*
X13431968Y-13382674D01*
X13431968Y-13382674D02*
X13441492Y-13401722D01*
X13441492Y-13401722D02*
X13441492Y-13420769D01*
X13441492Y-13420769D02*
X13346253Y-13439817D01*
X13612920Y-13506484D02*
X13612920Y-13306484D01*
X13612920Y-13496960D02*
X13593873Y-13506484D01*
X13593873Y-13506484D02*
X13555777Y-13506484D01*
X13555777Y-13506484D02*
X13536730Y-13496960D01*
X13536730Y-13496960D02*
X13527206Y-13487436D01*
X13527206Y-13487436D02*
X13517682Y-13468388D01*
X13517682Y-13468388D02*
X13517682Y-13411246D01*
X13517682Y-13411246D02*
X13527206Y-13392198D01*
X13527206Y-13392198D02*
X13536730Y-13382674D01*
X13536730Y-13382674D02*
X13555777Y-13373150D01*
X13555777Y-13373150D02*
X13593873Y-13373150D01*
X13593873Y-13373150D02*
X13612920Y-13382674D01*
X13689111Y-13582674D02*
X13698634Y-13573150D01*
X13698634Y-13573150D02*
X13717682Y-13544579D01*
X13717682Y-13544579D02*
X13727206Y-13525531D01*
X13727206Y-13525531D02*
X13736730Y-13496960D01*
X13736730Y-13496960D02*
X13746253Y-13449341D01*
X13746253Y-13449341D02*
X13746253Y-13411246D01*
X13746253Y-13411246D02*
X13736730Y-13363627D01*
X13736730Y-13363627D02*
X13727206Y-13335055D01*
X13727206Y-13335055D02*
X13717682Y-13316008D01*
X13717682Y-13316008D02*
X13698634Y-13287436D01*
X13698634Y-13287436D02*
X13689111Y-13277912D01*
M02*
