G04 #@! TF.GenerationSoftware,KiCad,Pcbnew,8.0.5*
G04 #@! TF.CreationDate,2024-09-14T22:06:27+02:00*
G04 #@! TF.ProjectId,midi2cv,6d696469-3263-4762-9e6b-696361645f70,rev?*
G04 #@! TF.SameCoordinates,Original*
G04 #@! TF.FileFunction,Legend,Bot*
G04 #@! TF.FilePolarity,Positive*
%FSLAX46Y46*%
G04 Gerber Fmt 4.6, Leading zero omitted, Abs format (unit mm)*
G04 Created by KiCad (PCBNEW 8.0.5) date 2024-09-14 22:06:27*
%MOMM*%
%LPD*%
G01*
G04 APERTURE LIST*
%ADD10C,0.150000*%
%ADD11C,1.600000*%
%ADD12R,1.600000X2.400000*%
%ADD13O,1.600000X2.400000*%
%ADD14O,1.600000X1.600000*%
%ADD15C,2.000000*%
%ADD16R,1.600000X1.600000*%
%ADD17C,6.000000*%
%ADD18O,2.400000X1.600000*%
%ADD19R,2.400000X1.600000*%
%ADD20R,1.700000X1.700000*%
%ADD21O,1.700000X1.700000*%
%ADD22O,1.905000X2.000000*%
%ADD23R,1.905000X2.000000*%
%ADD24O,3.500000X3.500000*%
%ADD25R,2.200000X2.200000*%
%ADD26O,2.200000X2.200000*%
%ADD27C,1.500000*%
%ADD28R,1.500000X1.500000*%
%ADD29O,1.800000X1.800000*%
%ADD30O,1.500000X1.500000*%
%ADD31C,1.422400*%
G04 APERTURE END LIST*
D10*
X139065000Y-117602000D02*
X137668000Y-115189000D01*
G36*
X152145498Y-119180749D02*
G01*
X152145498Y-119053498D01*
X152272749Y-119053498D01*
X152272749Y-119180749D01*
X152145498Y-119180749D01*
G37*
G36*
X152145498Y-119180749D02*
G01*
X152145498Y-119308000D01*
X151763747Y-119308000D01*
X151763747Y-119180749D01*
X152145498Y-119180749D01*
G37*
G36*
X151763747Y-118417246D02*
G01*
X151763747Y-119180749D01*
X151636496Y-119180749D01*
X151636496Y-118289995D01*
X152018248Y-118289995D01*
X152018248Y-118417246D01*
X151763747Y-118417246D01*
G37*
G36*
X151381751Y-118289995D02*
G01*
X151381751Y-119180749D01*
X151254501Y-119180749D01*
X151254501Y-118289995D01*
X151381751Y-118289995D01*
G37*
G36*
X151254501Y-119180749D02*
G01*
X151254501Y-119308000D01*
X150872749Y-119308000D01*
X150872749Y-119180749D01*
X151254501Y-119180749D01*
G37*
G36*
X150872749Y-118289995D02*
G01*
X150872749Y-119180749D01*
X150745498Y-119180749D01*
X150745498Y-118289995D01*
X150872749Y-118289995D01*
G37*
G36*
X150490753Y-118289995D02*
G01*
X150490753Y-119308000D01*
X150363503Y-119308000D01*
X150363503Y-118671747D01*
X150236252Y-118671747D01*
X150236252Y-118544496D01*
X150363503Y-118544496D01*
X150363503Y-118289995D01*
X150490753Y-118289995D01*
G37*
G36*
X149981751Y-118671747D02*
G01*
X149981751Y-119308000D01*
X149854501Y-119308000D01*
X149854501Y-118289995D01*
X149981751Y-118289995D01*
X149981751Y-118544496D01*
X150109002Y-118544496D01*
X150109002Y-118671747D01*
X149981751Y-118671747D01*
G37*
G36*
X150236252Y-118671747D02*
G01*
X150236252Y-118926248D01*
X150109002Y-118926248D01*
X150109002Y-118671747D01*
X150236252Y-118671747D01*
G37*
G36*
X149599755Y-118289995D02*
G01*
X149599755Y-119308000D01*
X149472505Y-119308000D01*
X149472505Y-118926248D01*
X149090753Y-118926248D01*
X149090753Y-118798997D01*
X149472505Y-118798997D01*
X149472505Y-118417246D01*
X149090753Y-118417246D01*
X149090753Y-118289995D01*
X149599755Y-118289995D01*
G37*
G36*
X149090753Y-118417246D02*
G01*
X149090753Y-118798997D01*
X148963503Y-118798997D01*
X148963503Y-118417246D01*
X149090753Y-118417246D01*
G37*
G36*
X148708757Y-118289995D02*
G01*
X148708757Y-119308000D01*
X148072505Y-119308000D01*
X148072505Y-119180749D01*
X148581507Y-119180749D01*
X148581507Y-118798997D01*
X148199755Y-118798997D01*
X148199755Y-118671747D01*
X148581507Y-118671747D01*
X148581507Y-118417246D01*
X148072505Y-118417246D01*
X148072505Y-118289995D01*
X148708757Y-118289995D01*
G37*
G36*
X147817759Y-118289995D02*
G01*
X147817759Y-119308000D01*
X147690509Y-119308000D01*
X147690509Y-118926248D01*
X147436008Y-118926248D01*
X147436008Y-119053498D01*
X147308757Y-119053498D01*
X147308757Y-118798997D01*
X147690509Y-118798997D01*
X147690509Y-118417246D01*
X147308757Y-118417246D01*
X147308757Y-118289995D01*
X147817759Y-118289995D01*
G37*
G36*
X147308757Y-118417246D02*
G01*
X147308757Y-118798997D01*
X147181507Y-118798997D01*
X147181507Y-118417246D01*
X147308757Y-118417246D01*
G37*
G36*
X147308757Y-119053498D02*
G01*
X147308757Y-119308000D01*
X147181507Y-119308000D01*
X147181507Y-119053498D01*
X147308757Y-119053498D01*
G37*
G36*
X146672260Y-119053498D02*
G01*
X146672260Y-119308000D01*
X146545010Y-119308000D01*
X146545010Y-119053498D01*
X146672260Y-119053498D01*
G37*
G36*
X146672260Y-118544496D02*
G01*
X146672260Y-118798997D01*
X146545010Y-118798997D01*
X146545010Y-118544496D01*
X146672260Y-118544496D01*
G37*
G36*
X145144766Y-118289995D02*
G01*
X145144766Y-118798997D01*
X144635764Y-118798997D01*
X144635764Y-118671747D01*
X145017515Y-118671747D01*
X145017515Y-118417246D01*
X144508513Y-118417246D01*
X144508513Y-118289995D01*
X145144766Y-118289995D01*
G37*
G36*
X144635764Y-118798997D02*
G01*
X144635764Y-119180749D01*
X144508513Y-119180749D01*
X144508513Y-118798997D01*
X144635764Y-118798997D01*
G37*
G36*
X144635764Y-119180749D02*
G01*
X145017515Y-119180749D01*
X145017515Y-119308000D01*
X144635764Y-119308000D01*
X144635764Y-119180749D01*
G37*
G36*
X145017515Y-119180749D02*
G01*
X145017515Y-119053498D01*
X145144766Y-119053498D01*
X145144766Y-119180749D01*
X145017515Y-119180749D01*
G37*
G36*
X143999267Y-119180749D02*
G01*
X143999267Y-118926248D01*
X144126517Y-118926248D01*
X144126517Y-119180749D01*
X143999267Y-119180749D01*
G37*
G36*
X143999267Y-119180749D02*
G01*
X143999267Y-119308000D01*
X143872016Y-119308000D01*
X143872016Y-119180749D01*
X143999267Y-119180749D01*
G37*
G36*
X144253768Y-118289995D02*
G01*
X144253768Y-118926248D01*
X144126517Y-118926248D01*
X144126517Y-118289995D01*
X144253768Y-118289995D01*
G37*
G36*
X143744766Y-118289995D02*
G01*
X143744766Y-118926248D01*
X143617515Y-118926248D01*
X143617515Y-118289995D01*
X143744766Y-118289995D01*
G37*
G36*
X143872016Y-118926248D02*
G01*
X143872016Y-119180749D01*
X143744766Y-119180749D01*
X143744766Y-118926248D01*
X143872016Y-118926248D01*
G37*
G36*
X142471772Y-118289995D02*
G01*
X142471772Y-119308000D01*
X142344521Y-119308000D01*
X142344521Y-118926248D01*
X141962770Y-118926248D01*
X141962770Y-118798997D01*
X142344521Y-118798997D01*
X142344521Y-118417246D01*
X141962770Y-118417246D01*
X141962770Y-118289995D01*
X142471772Y-118289995D01*
G37*
G36*
X141962770Y-118417246D02*
G01*
X141962770Y-118798997D01*
X141835519Y-118798997D01*
X141835519Y-118417246D01*
X141962770Y-118417246D01*
G37*
G36*
X141580774Y-118417246D02*
G01*
X141580774Y-119180749D01*
X141453524Y-119180749D01*
X141453524Y-118417246D01*
X141580774Y-118417246D01*
G37*
G36*
X141453524Y-119180749D02*
G01*
X141453524Y-119308000D01*
X141071772Y-119308000D01*
X141071772Y-119180749D01*
X141453524Y-119180749D01*
G37*
G36*
X141071772Y-118417246D02*
G01*
X141071772Y-119180749D01*
X140944521Y-119180749D01*
X140944521Y-118417246D01*
X141071772Y-118417246D01*
G37*
G36*
X141453524Y-118289995D02*
G01*
X141453524Y-118417246D01*
X141071772Y-118417246D01*
X141071772Y-118289995D01*
X141453524Y-118289995D01*
G37*
G36*
X140689776Y-118289995D02*
G01*
X140689776Y-118926248D01*
X140562526Y-118926248D01*
X140562526Y-118289995D01*
X140689776Y-118289995D01*
G37*
G36*
X140562526Y-118926248D02*
G01*
X140562526Y-119308000D01*
X140435275Y-119308000D01*
X140435275Y-118926248D01*
X140562526Y-118926248D01*
G37*
G36*
X140180774Y-118289995D02*
G01*
X140180774Y-118926248D01*
X140053524Y-118926248D01*
X140053524Y-118289995D01*
X140180774Y-118289995D01*
G37*
G36*
X140308025Y-118926248D02*
G01*
X140308025Y-119308000D01*
X140180774Y-119308000D01*
X140180774Y-118926248D01*
X140308025Y-118926248D01*
G37*
G36*
X140435275Y-118671747D02*
G01*
X140435275Y-118926248D01*
X140308025Y-118926248D01*
X140308025Y-118671747D01*
X140435275Y-118671747D01*
G37*
G36*
X139798778Y-118289995D02*
G01*
X139798778Y-119308000D01*
X139162526Y-119308000D01*
X139162526Y-119180749D01*
X139671528Y-119180749D01*
X139671528Y-118798997D01*
X139289776Y-118798997D01*
X139289776Y-118671747D01*
X139671528Y-118671747D01*
X139671528Y-118417246D01*
X139162526Y-118417246D01*
X139162526Y-118289995D01*
X139798778Y-118289995D01*
G37*
G36*
X138907780Y-118289995D02*
G01*
X138907780Y-119308000D01*
X138780530Y-119308000D01*
X138780530Y-118926248D01*
X138526029Y-118926248D01*
X138526029Y-119053498D01*
X138398778Y-119053498D01*
X138398778Y-118798997D01*
X138780530Y-118798997D01*
X138780530Y-118417246D01*
X138398778Y-118417246D01*
X138398778Y-118289995D01*
X138907780Y-118289995D01*
G37*
G36*
X138398778Y-118417246D02*
G01*
X138398778Y-118798997D01*
X138271528Y-118798997D01*
X138271528Y-118417246D01*
X138398778Y-118417246D01*
G37*
G36*
X138398778Y-119053498D02*
G01*
X138398778Y-119308000D01*
X138271528Y-119308000D01*
X138271528Y-119053498D01*
X138398778Y-119053498D01*
G37*
G36*
X152272749Y-119969995D02*
G01*
X152272749Y-120988000D01*
X152145498Y-120988000D01*
X152145498Y-120478997D01*
X151763747Y-120478997D01*
X151763747Y-120351747D01*
X152145498Y-120351747D01*
X152145498Y-120097246D01*
X151636496Y-120097246D01*
X151636496Y-119969995D01*
X152272749Y-119969995D01*
G37*
G36*
X151381751Y-119969995D02*
G01*
X151381751Y-120988000D01*
X151254501Y-120988000D01*
X151254501Y-120606248D01*
X151000000Y-120606248D01*
X151000000Y-120733498D01*
X150872749Y-120733498D01*
X150872749Y-120478997D01*
X151254501Y-120478997D01*
X151254501Y-120097246D01*
X150872749Y-120097246D01*
X150872749Y-119969995D01*
X151381751Y-119969995D01*
G37*
G36*
X150872749Y-120097246D02*
G01*
X150872749Y-120478997D01*
X150745498Y-120478997D01*
X150745498Y-120097246D01*
X150872749Y-120097246D01*
G37*
G36*
X150872749Y-120733498D02*
G01*
X150872749Y-120988000D01*
X150745498Y-120988000D01*
X150745498Y-120733498D01*
X150872749Y-120733498D01*
G37*
G36*
X150490753Y-120097246D02*
G01*
X150490753Y-120860749D01*
X150363503Y-120860749D01*
X150363503Y-120097246D01*
X150490753Y-120097246D01*
G37*
G36*
X150363503Y-120860749D02*
G01*
X150363503Y-120988000D01*
X149981751Y-120988000D01*
X149981751Y-120860749D01*
X150363503Y-120860749D01*
G37*
G36*
X149981751Y-120097246D02*
G01*
X149981751Y-120860749D01*
X149854501Y-120860749D01*
X149854501Y-120097246D01*
X149981751Y-120097246D01*
G37*
G36*
X150363503Y-119969995D02*
G01*
X150363503Y-120097246D01*
X149981751Y-120097246D01*
X149981751Y-119969995D01*
X150363503Y-119969995D01*
G37*
G36*
X149599755Y-119969995D02*
G01*
X149599755Y-120988000D01*
X149472505Y-120988000D01*
X149472505Y-120351747D01*
X149345254Y-120351747D01*
X149345254Y-120224496D01*
X149472505Y-120224496D01*
X149472505Y-119969995D01*
X149599755Y-119969995D01*
G37*
G36*
X149090753Y-120351747D02*
G01*
X149090753Y-120988000D01*
X148963503Y-120988000D01*
X148963503Y-119969995D01*
X149090753Y-119969995D01*
X149090753Y-120224496D01*
X149218004Y-120224496D01*
X149218004Y-120351747D01*
X149090753Y-120351747D01*
G37*
G36*
X149345254Y-120351747D02*
G01*
X149345254Y-120606248D01*
X149218004Y-120606248D01*
X149218004Y-120351747D01*
X149345254Y-120351747D01*
G37*
G36*
X147817759Y-119969995D02*
G01*
X147817759Y-120988000D01*
X147690509Y-120988000D01*
X147690509Y-120606248D01*
X147436008Y-120606248D01*
X147436008Y-120733498D01*
X147308757Y-120733498D01*
X147308757Y-120478997D01*
X147690509Y-120478997D01*
X147690509Y-120097246D01*
X147308757Y-120097246D01*
X147308757Y-119969995D01*
X147817759Y-119969995D01*
G37*
G36*
X147308757Y-120097246D02*
G01*
X147308757Y-120478997D01*
X147181507Y-120478997D01*
X147181507Y-120097246D01*
X147308757Y-120097246D01*
G37*
G36*
X147308757Y-120733498D02*
G01*
X147308757Y-120988000D01*
X147181507Y-120988000D01*
X147181507Y-120733498D01*
X147308757Y-120733498D01*
G37*
G36*
X146926762Y-119969995D02*
G01*
X146926762Y-120988000D01*
X146290509Y-120988000D01*
X146290509Y-120860749D01*
X146799511Y-120860749D01*
X146799511Y-120478997D01*
X146417759Y-120478997D01*
X146417759Y-120351747D01*
X146799511Y-120351747D01*
X146799511Y-120097246D01*
X146290509Y-120097246D01*
X146290509Y-119969995D01*
X146926762Y-119969995D01*
G37*
G36*
X146035764Y-120097246D02*
G01*
X146035764Y-120860749D01*
X145908513Y-120860749D01*
X145908513Y-120097246D01*
X146035764Y-120097246D01*
G37*
G36*
X145908513Y-120860749D02*
G01*
X145908513Y-120988000D01*
X145526762Y-120988000D01*
X145526762Y-120860749D01*
X145908513Y-120860749D01*
G37*
G36*
X145526762Y-120606248D02*
G01*
X145526762Y-120860749D01*
X145399511Y-120860749D01*
X145399511Y-120478997D01*
X145654012Y-120478997D01*
X145654012Y-120606248D01*
X145526762Y-120606248D01*
G37*
G36*
X145908513Y-119969995D02*
G01*
X145908513Y-120097246D01*
X145526762Y-120097246D01*
X145526762Y-119969995D01*
X145908513Y-119969995D01*
G37*
G36*
X145526762Y-120097246D02*
G01*
X145526762Y-120224496D01*
X145399511Y-120224496D01*
X145399511Y-120097246D01*
X145526762Y-120097246D01*
G37*
G36*
X145144766Y-119969995D02*
G01*
X145144766Y-120860749D01*
X145017515Y-120860749D01*
X145017515Y-119969995D01*
X145144766Y-119969995D01*
G37*
G36*
X145017515Y-120860749D02*
G01*
X145017515Y-120988000D01*
X144635764Y-120988000D01*
X144635764Y-120860749D01*
X145017515Y-120860749D01*
G37*
G36*
X144635764Y-119969995D02*
G01*
X144635764Y-120860749D01*
X144508513Y-120860749D01*
X144508513Y-119969995D01*
X144635764Y-119969995D01*
G37*
G36*
X144253768Y-119969995D02*
G01*
X144253768Y-120988000D01*
X143617515Y-120988000D01*
X143617515Y-120860749D01*
X144126517Y-120860749D01*
X144126517Y-119969995D01*
X144253768Y-119969995D01*
G37*
G36*
X143362770Y-120224496D02*
G01*
X143362770Y-120988000D01*
X143235519Y-120988000D01*
X143235519Y-120606248D01*
X142853768Y-120606248D01*
X142853768Y-120988000D01*
X142726517Y-120988000D01*
X142726517Y-120224496D01*
X142853768Y-120224496D01*
X142853768Y-120478997D01*
X143235519Y-120478997D01*
X143235519Y-120224496D01*
X143362770Y-120224496D01*
G37*
G36*
X143108269Y-119969995D02*
G01*
X143108269Y-120097246D01*
X142981018Y-120097246D01*
X142981018Y-119969995D01*
X143108269Y-119969995D01*
G37*
G36*
X143235519Y-120097246D02*
G01*
X143235519Y-120224496D01*
X143108269Y-120224496D01*
X143108269Y-120097246D01*
X143235519Y-120097246D01*
G37*
G36*
X142981018Y-120097246D02*
G01*
X142981018Y-120224496D01*
X142853768Y-120224496D01*
X142853768Y-120097246D01*
X142981018Y-120097246D01*
G37*
G36*
X142471772Y-119969995D02*
G01*
X142471772Y-120097246D01*
X142217271Y-120097246D01*
X142217271Y-120988000D01*
X142090020Y-120988000D01*
X142090020Y-120097246D01*
X141835519Y-120097246D01*
X141835519Y-119969995D01*
X142471772Y-119969995D01*
G37*
G36*
X141580774Y-120097246D02*
G01*
X141580774Y-120860749D01*
X141453524Y-120860749D01*
X141453524Y-120097246D01*
X141580774Y-120097246D01*
G37*
G36*
X141453524Y-120860749D02*
G01*
X141453524Y-120988000D01*
X141071772Y-120988000D01*
X141071772Y-120860749D01*
X141453524Y-120860749D01*
G37*
G36*
X141071772Y-120097246D02*
G01*
X141071772Y-120860749D01*
X140944521Y-120860749D01*
X140944521Y-120097246D01*
X141071772Y-120097246D01*
G37*
G36*
X141453524Y-119969995D02*
G01*
X141453524Y-120097246D01*
X141071772Y-120097246D01*
X141071772Y-119969995D01*
X141453524Y-119969995D01*
G37*
G36*
X140689776Y-119969995D02*
G01*
X140689776Y-120988000D01*
X140562526Y-120988000D01*
X140562526Y-120606248D01*
X140308025Y-120606248D01*
X140308025Y-120733498D01*
X140180774Y-120733498D01*
X140180774Y-120478997D01*
X140562526Y-120478997D01*
X140562526Y-120097246D01*
X140180774Y-120097246D01*
X140180774Y-119969995D01*
X140689776Y-119969995D01*
G37*
G36*
X140180774Y-120097246D02*
G01*
X140180774Y-120478997D01*
X140053524Y-120478997D01*
X140053524Y-120097246D01*
X140180774Y-120097246D01*
G37*
G36*
X140180774Y-120733498D02*
G01*
X140180774Y-120988000D01*
X140053524Y-120988000D01*
X140053524Y-120733498D01*
X140180774Y-120733498D01*
G37*
G36*
X115652246Y-118866257D02*
G01*
X116415749Y-118866257D01*
X116415749Y-118993508D01*
X115652246Y-118993508D01*
X115652246Y-118866257D01*
G37*
G36*
X116415749Y-118993508D02*
G01*
X116543000Y-118993508D01*
X116543000Y-119375259D01*
X116415749Y-119375259D01*
X116415749Y-118993508D01*
G37*
G36*
X116161248Y-119375259D02*
G01*
X116415749Y-119375259D01*
X116415749Y-119502510D01*
X116033997Y-119502510D01*
X116033997Y-119248009D01*
X116161248Y-119248009D01*
X116161248Y-119375259D01*
G37*
G36*
X115524995Y-118993508D02*
G01*
X115652246Y-118993508D01*
X115652246Y-119375259D01*
X115524995Y-119375259D01*
X115524995Y-118993508D01*
G37*
G36*
X115652246Y-119375259D02*
G01*
X115779496Y-119375259D01*
X115779496Y-119502510D01*
X115652246Y-119502510D01*
X115652246Y-119375259D01*
G37*
G36*
X115524995Y-119757255D02*
G01*
X116543000Y-119757255D01*
X116543000Y-119884505D01*
X115906747Y-119884505D01*
X115906747Y-120011756D01*
X115779496Y-120011756D01*
X115779496Y-119884505D01*
X115524995Y-119884505D01*
X115524995Y-119757255D01*
G37*
G36*
X116161248Y-120266257D02*
G01*
X116543000Y-120266257D01*
X116543000Y-120393508D01*
X115524995Y-120393508D01*
X115524995Y-120266257D01*
X116033997Y-120266257D01*
X116033997Y-120139007D01*
X116161248Y-120139007D01*
X116161248Y-120266257D01*
G37*
G36*
X116033997Y-120139007D02*
G01*
X115906747Y-120139007D01*
X115906747Y-120011756D01*
X116033997Y-120011756D01*
X116033997Y-120139007D01*
G37*
G36*
X115524995Y-120648253D02*
G01*
X116543000Y-120648253D01*
X116543000Y-121157255D01*
X116415749Y-121157255D01*
X116415749Y-120775503D01*
X115652246Y-120775503D01*
X115652246Y-121157255D01*
X115524995Y-121157255D01*
X115524995Y-120648253D01*
G37*
G36*
X115652246Y-121157255D02*
G01*
X116415749Y-121157255D01*
X116415749Y-121284505D01*
X115652246Y-121284505D01*
X115652246Y-121157255D01*
G37*
G36*
X118573997Y-116193263D02*
G01*
X118701248Y-116193263D01*
X118701248Y-116447764D01*
X118955749Y-116447764D01*
X118955749Y-116575015D01*
X118701248Y-116575015D01*
X118701248Y-116829516D01*
X118573997Y-116829516D01*
X118573997Y-116575015D01*
X118319496Y-116575015D01*
X118319496Y-116447764D01*
X118573997Y-116447764D01*
X118573997Y-116193263D01*
G37*
G36*
X118064995Y-117084261D02*
G01*
X118573997Y-117084261D01*
X118573997Y-117593263D01*
X118446747Y-117593263D01*
X118446747Y-117211511D01*
X118192246Y-117211511D01*
X118192246Y-117720514D01*
X118064995Y-117720514D01*
X118064995Y-117084261D01*
G37*
G36*
X118573997Y-117593263D02*
G01*
X118955749Y-117593263D01*
X118955749Y-117720514D01*
X118573997Y-117720514D01*
X118573997Y-117593263D01*
G37*
G36*
X118955749Y-117593263D02*
G01*
X118955749Y-117211511D01*
X119083000Y-117211511D01*
X119083000Y-117593263D01*
X118955749Y-117593263D01*
G37*
G36*
X118955749Y-117211511D02*
G01*
X118828498Y-117211511D01*
X118828498Y-117084261D01*
X118955749Y-117084261D01*
X118955749Y-117211511D01*
G37*
G36*
X118955749Y-118229760D02*
G01*
X118701248Y-118229760D01*
X118701248Y-118102509D01*
X118955749Y-118102509D01*
X118955749Y-118229760D01*
G37*
G36*
X118955749Y-118229760D02*
G01*
X119083000Y-118229760D01*
X119083000Y-118357010D01*
X118955749Y-118357010D01*
X118955749Y-118229760D01*
G37*
G36*
X118064995Y-117975259D02*
G01*
X118701248Y-117975259D01*
X118701248Y-118102509D01*
X118064995Y-118102509D01*
X118064995Y-117975259D01*
G37*
G36*
X118064995Y-118484261D02*
G01*
X118701248Y-118484261D01*
X118701248Y-118611511D01*
X118064995Y-118611511D01*
X118064995Y-118484261D01*
G37*
G36*
X118701248Y-118357010D02*
G01*
X118955749Y-118357010D01*
X118955749Y-118484261D01*
X118701248Y-118484261D01*
X118701248Y-118357010D01*
G37*
G36*
X118955749Y-120011756D02*
G01*
X118955749Y-119757255D01*
X119083000Y-119757255D01*
X119083000Y-120393507D01*
X118955749Y-120393507D01*
X118955749Y-120139006D01*
X118192246Y-120139006D01*
X118192246Y-120393507D01*
X118064995Y-120393507D01*
X118064995Y-119757255D01*
X118192246Y-119757255D01*
X118192246Y-120011756D01*
X118955749Y-120011756D01*
G37*
G36*
X118064995Y-120648253D02*
G01*
X119083000Y-120648253D01*
X119083000Y-120775503D01*
X118446747Y-120775503D01*
X118446747Y-120902754D01*
X118319496Y-120902754D01*
X118319496Y-120775503D01*
X118064995Y-120775503D01*
X118064995Y-120648253D01*
G37*
G36*
X118701248Y-121157255D02*
G01*
X119083000Y-121157255D01*
X119083000Y-121284505D01*
X118064995Y-121284505D01*
X118064995Y-121157255D01*
X118573997Y-121157255D01*
X118573997Y-121030004D01*
X118701248Y-121030004D01*
X118701248Y-121157255D01*
G37*
G36*
X118573997Y-121030004D02*
G01*
X118446747Y-121030004D01*
X118446747Y-120902754D01*
X118573997Y-120902754D01*
X118573997Y-121030004D01*
G37*
G36*
X127336246Y-116957261D02*
G01*
X127590747Y-116957261D01*
X127590747Y-117084512D01*
X127336246Y-117084512D01*
X127336246Y-116957261D01*
G37*
G36*
X127590747Y-117084512D02*
G01*
X127717997Y-117084512D01*
X127717997Y-117466263D01*
X127590747Y-117466263D01*
X127590747Y-117084512D01*
G37*
G36*
X128099749Y-117466263D02*
G01*
X128099749Y-117084512D01*
X128227000Y-117084512D01*
X128227000Y-117466263D01*
X128099749Y-117466263D01*
G37*
G36*
X128099749Y-117084512D02*
G01*
X127972498Y-117084512D01*
X127972498Y-116957261D01*
X128099749Y-116957261D01*
X128099749Y-117084512D01*
G37*
G36*
X127717997Y-117466263D02*
G01*
X128099749Y-117466263D01*
X128099749Y-117593514D01*
X127717997Y-117593514D01*
X127717997Y-117466263D01*
G37*
G36*
X127208995Y-117084512D02*
G01*
X127336246Y-117084512D01*
X127336246Y-117466263D01*
X127208995Y-117466263D01*
X127208995Y-117084512D01*
G37*
G36*
X127336246Y-117466263D02*
G01*
X127463496Y-117466263D01*
X127463496Y-117593514D01*
X127336246Y-117593514D01*
X127336246Y-117466263D01*
G37*
G36*
X127208995Y-117848259D02*
G01*
X127845248Y-117848259D01*
X127845248Y-117975509D01*
X127208995Y-117975509D01*
X127208995Y-117848259D01*
G37*
G36*
X127845248Y-117975509D02*
G01*
X128227000Y-117975509D01*
X128227000Y-118102760D01*
X127845248Y-118102760D01*
X127845248Y-117975509D01*
G37*
G36*
X127208995Y-118357261D02*
G01*
X127845248Y-118357261D01*
X127845248Y-118484512D01*
X127208995Y-118484512D01*
X127208995Y-118357261D01*
G37*
G36*
X127845248Y-118230011D02*
G01*
X128227000Y-118230011D01*
X128227000Y-118357261D01*
X127845248Y-118357261D01*
X127845248Y-118230011D01*
G37*
G36*
X127590747Y-118102760D02*
G01*
X127845248Y-118102760D01*
X127845248Y-118230011D01*
X127590747Y-118230011D01*
X127590747Y-118102760D01*
G37*
G36*
X127336246Y-118739257D02*
G01*
X128099749Y-118739257D01*
X128099749Y-118866507D01*
X127336246Y-118866507D01*
X127336246Y-118739257D01*
G37*
G36*
X128099749Y-118866507D02*
G01*
X128227000Y-118866507D01*
X128227000Y-119248259D01*
X128099749Y-119248259D01*
X128099749Y-118866507D01*
G37*
G36*
X127972498Y-119248259D02*
G01*
X128099749Y-119248259D01*
X128099749Y-119375509D01*
X127972498Y-119375509D01*
X127972498Y-119248259D01*
G37*
G36*
X127208995Y-118866507D02*
G01*
X127336246Y-118866507D01*
X127336246Y-119248259D01*
X127208995Y-119248259D01*
X127208995Y-118866507D01*
G37*
G36*
X127336246Y-119248259D02*
G01*
X127463496Y-119248259D01*
X127463496Y-119375509D01*
X127336246Y-119375509D01*
X127336246Y-119248259D01*
G37*
G36*
X127208995Y-119630255D02*
G01*
X128227000Y-119630255D01*
X128227000Y-120266507D01*
X128099749Y-120266507D01*
X128099749Y-119757505D01*
X127208995Y-119757505D01*
X127208995Y-119630255D01*
G37*
G36*
X127208995Y-120521253D02*
G01*
X128227000Y-120521253D01*
X128227000Y-120648503D01*
X127717997Y-120648503D01*
X127717997Y-120903004D01*
X127463496Y-120903004D01*
X127463496Y-120775754D01*
X127590747Y-120775754D01*
X127590747Y-120648503D01*
X127208995Y-120648503D01*
X127208995Y-120521253D01*
G37*
G36*
X127208995Y-121030255D02*
G01*
X127336246Y-121030255D01*
X127336246Y-121157505D01*
X127208995Y-121157505D01*
X127208995Y-121030255D01*
G37*
G36*
X127336246Y-120903004D02*
G01*
X127463496Y-120903004D01*
X127463496Y-121030255D01*
X127336246Y-121030255D01*
X127336246Y-120903004D01*
G37*
G36*
X127972498Y-121030255D02*
G01*
X127717997Y-121030255D01*
X127717997Y-120903004D01*
X127972498Y-120903004D01*
X127972498Y-121030255D01*
G37*
G36*
X127972498Y-121030255D02*
G01*
X128227000Y-121030255D01*
X128227000Y-121157505D01*
X127972498Y-121157505D01*
X127972498Y-121030255D01*
G37*
G36*
X129876246Y-116957261D02*
G01*
X130130747Y-116957261D01*
X130130747Y-117084512D01*
X129876246Y-117084512D01*
X129876246Y-116957261D01*
G37*
G36*
X130130747Y-117084512D02*
G01*
X130257997Y-117084512D01*
X130257997Y-117466263D01*
X130130747Y-117466263D01*
X130130747Y-117084512D01*
G37*
G36*
X130639749Y-117466263D02*
G01*
X130639749Y-117084512D01*
X130767000Y-117084512D01*
X130767000Y-117466263D01*
X130639749Y-117466263D01*
G37*
G36*
X130639749Y-117084512D02*
G01*
X130512498Y-117084512D01*
X130512498Y-116957261D01*
X130639749Y-116957261D01*
X130639749Y-117084512D01*
G37*
G36*
X130257997Y-117466263D02*
G01*
X130639749Y-117466263D01*
X130639749Y-117593514D01*
X130257997Y-117593514D01*
X130257997Y-117466263D01*
G37*
G36*
X129748995Y-117084512D02*
G01*
X129876246Y-117084512D01*
X129876246Y-117466263D01*
X129748995Y-117466263D01*
X129748995Y-117084512D01*
G37*
G36*
X129876246Y-117466263D02*
G01*
X130003496Y-117466263D01*
X130003496Y-117593514D01*
X129876246Y-117593514D01*
X129876246Y-117466263D01*
G37*
G36*
X129748995Y-117848259D02*
G01*
X130385248Y-117848259D01*
X130385248Y-117975509D01*
X129748995Y-117975509D01*
X129748995Y-117848259D01*
G37*
G36*
X130385248Y-117975509D02*
G01*
X130767000Y-117975509D01*
X130767000Y-118102760D01*
X130385248Y-118102760D01*
X130385248Y-117975509D01*
G37*
G36*
X129748995Y-118357261D02*
G01*
X130385248Y-118357261D01*
X130385248Y-118484512D01*
X129748995Y-118484512D01*
X129748995Y-118357261D01*
G37*
G36*
X130385248Y-118230011D02*
G01*
X130767000Y-118230011D01*
X130767000Y-118357261D01*
X130385248Y-118357261D01*
X130385248Y-118230011D01*
G37*
G36*
X130130747Y-118102760D02*
G01*
X130385248Y-118102760D01*
X130385248Y-118230011D01*
X130130747Y-118230011D01*
X130130747Y-118102760D01*
G37*
G36*
X129748995Y-118739257D02*
G01*
X130767000Y-118739257D01*
X130767000Y-119248259D01*
X130639749Y-119248259D01*
X130639749Y-118866507D01*
X129876246Y-118866507D01*
X129876246Y-119248259D01*
X129748995Y-119248259D01*
X129748995Y-118739257D01*
G37*
G36*
X129876246Y-119248259D02*
G01*
X130639749Y-119248259D01*
X130639749Y-119375509D01*
X129876246Y-119375509D01*
X129876246Y-119248259D01*
G37*
G36*
X130639749Y-119884756D02*
G01*
X130639749Y-119630255D01*
X130767000Y-119630255D01*
X130767000Y-120266507D01*
X130639749Y-120266507D01*
X130639749Y-120012006D01*
X129876246Y-120012006D01*
X129876246Y-120266507D01*
X129748995Y-120266507D01*
X129748995Y-119630255D01*
X129876246Y-119630255D01*
X129876246Y-119884756D01*
X130639749Y-119884756D01*
G37*
G36*
X129876246Y-120521253D02*
G01*
X130639749Y-120521253D01*
X130639749Y-120648503D01*
X129876246Y-120648503D01*
X129876246Y-120521253D01*
G37*
G36*
X130639749Y-120648503D02*
G01*
X130767000Y-120648503D01*
X130767000Y-121030255D01*
X130639749Y-121030255D01*
X130639749Y-120648503D01*
G37*
G36*
X129876246Y-121030255D02*
G01*
X130639749Y-121030255D01*
X130639749Y-121157505D01*
X129876246Y-121157505D01*
X129876246Y-121030255D01*
G37*
G36*
X129748995Y-120648503D02*
G01*
X129876246Y-120648503D01*
X129876246Y-121030255D01*
X129748995Y-121030255D01*
X129748995Y-120648503D01*
G37*
G36*
X123144995Y-119757255D02*
G01*
X123272246Y-119757255D01*
X123272246Y-120011756D01*
X124163000Y-120011756D01*
X124163000Y-120139007D01*
X123272246Y-120139007D01*
X123272246Y-120393508D01*
X123144995Y-120393508D01*
X123144995Y-119757255D01*
G37*
G36*
X123781248Y-121157255D02*
G01*
X124163000Y-121157255D01*
X124163000Y-121284506D01*
X123781248Y-121284506D01*
X123781248Y-121157255D01*
G37*
G36*
X123781248Y-120648253D02*
G01*
X124163000Y-120648253D01*
X124163000Y-120775503D01*
X123781248Y-120775503D01*
X123781248Y-120648253D01*
G37*
G36*
X123526747Y-120902754D02*
G01*
X123399496Y-120902754D01*
X123399496Y-120775503D01*
X123526747Y-120775503D01*
X123526747Y-120902754D01*
G37*
G36*
X123526747Y-120902754D02*
G01*
X123653997Y-120902754D01*
X123653997Y-121030005D01*
X123526747Y-121030005D01*
X123526747Y-120902754D01*
G37*
G36*
X123399496Y-121030005D02*
G01*
X123526747Y-121030005D01*
X123526747Y-121157255D01*
X123399496Y-121157255D01*
X123399496Y-121030005D01*
G37*
G36*
X123399496Y-120775503D02*
G01*
X123144995Y-120775503D01*
X123144995Y-120648253D01*
X123399496Y-120648253D01*
X123399496Y-120775503D01*
G37*
G36*
X123653997Y-120775503D02*
G01*
X123781248Y-120775503D01*
X123781248Y-120902754D01*
X123653997Y-120902754D01*
X123653997Y-120775503D01*
G37*
G36*
X123144995Y-121157255D02*
G01*
X123399496Y-121157255D01*
X123399496Y-121284506D01*
X123144995Y-121284506D01*
X123144995Y-121157255D01*
G37*
G36*
X123653997Y-121030005D02*
G01*
X123781248Y-121030005D01*
X123781248Y-121157255D01*
X123653997Y-121157255D01*
X123653997Y-121030005D01*
G37*
G36*
X120604995Y-119757255D02*
G01*
X121623000Y-119757255D01*
X121623000Y-119884506D01*
X121241248Y-119884506D01*
X121241248Y-120139007D01*
X121368498Y-120139007D01*
X121368498Y-120266257D01*
X121113997Y-120266257D01*
X121113997Y-119884506D01*
X120732246Y-119884506D01*
X120732246Y-120266257D01*
X120604995Y-120266257D01*
X120604995Y-119757255D01*
G37*
G36*
X120732246Y-120266257D02*
G01*
X121113997Y-120266257D01*
X121113997Y-120393508D01*
X120732246Y-120393508D01*
X120732246Y-120266257D01*
G37*
G36*
X121368498Y-120266257D02*
G01*
X121623000Y-120266257D01*
X121623000Y-120393508D01*
X121368498Y-120393508D01*
X121368498Y-120266257D01*
G37*
G36*
X121241248Y-121157255D02*
G01*
X121623000Y-121157255D01*
X121623000Y-121284506D01*
X121241248Y-121284506D01*
X121241248Y-121157255D01*
G37*
G36*
X121241248Y-120648253D02*
G01*
X121623000Y-120648253D01*
X121623000Y-120775503D01*
X121241248Y-120775503D01*
X121241248Y-120648253D01*
G37*
G36*
X120986747Y-120902754D02*
G01*
X120859496Y-120902754D01*
X120859496Y-120775503D01*
X120986747Y-120775503D01*
X120986747Y-120902754D01*
G37*
G36*
X120986747Y-120902754D02*
G01*
X121113997Y-120902754D01*
X121113997Y-121030005D01*
X120986747Y-121030005D01*
X120986747Y-120902754D01*
G37*
G36*
X120859496Y-121030005D02*
G01*
X120986747Y-121030005D01*
X120986747Y-121157255D01*
X120859496Y-121157255D01*
X120859496Y-121030005D01*
G37*
G36*
X120859496Y-120775503D02*
G01*
X120604995Y-120775503D01*
X120604995Y-120648253D01*
X120859496Y-120648253D01*
X120859496Y-120775503D01*
G37*
G36*
X121113997Y-120775503D02*
G01*
X121241248Y-120775503D01*
X121241248Y-120902754D01*
X121113997Y-120902754D01*
X121113997Y-120775503D01*
G37*
G36*
X120604995Y-121157255D02*
G01*
X120859496Y-121157255D01*
X120859496Y-121284506D01*
X120604995Y-121284506D01*
X120604995Y-121157255D01*
G37*
G36*
X121113997Y-121030005D02*
G01*
X121241248Y-121030005D01*
X121241248Y-121157255D01*
X121113997Y-121157255D01*
X121113997Y-121030005D01*
G37*
G36*
X125096597Y-114710115D02*
G01*
X120674131Y-114710115D01*
X120674131Y-114599004D01*
X120912492Y-114599004D01*
X121294244Y-114599004D01*
X121676240Y-114599004D01*
X121803490Y-114599004D01*
X122185242Y-114599004D01*
X122312492Y-114599004D01*
X122567237Y-114599004D01*
X123076240Y-114599004D01*
X123076240Y-114471753D01*
X123203490Y-114471753D01*
X123203490Y-113708250D01*
X123458235Y-113708250D01*
X123712736Y-113708250D01*
X123712736Y-114471753D01*
X123458235Y-114471753D01*
X123458235Y-114599004D01*
X124094488Y-114599004D01*
X124476484Y-114599004D01*
X124858235Y-114599004D01*
X124858235Y-114471753D01*
X124985486Y-114471753D01*
X124985486Y-113708250D01*
X124858235Y-113708250D01*
X124858235Y-114471753D01*
X124476484Y-114471753D01*
X124476484Y-114599004D01*
X124094488Y-114599004D01*
X124094488Y-114471753D01*
X124349233Y-114471753D01*
X124476484Y-114471753D01*
X124476484Y-113708250D01*
X124858235Y-113708250D01*
X124858235Y-113581000D01*
X124476484Y-113581000D01*
X124476484Y-113708250D01*
X124349233Y-113708250D01*
X124349233Y-114471753D01*
X124094488Y-114471753D01*
X123839987Y-114471753D01*
X123839987Y-113708250D01*
X124094488Y-113708250D01*
X124094488Y-113581000D01*
X123458235Y-113581000D01*
X123458235Y-113708250D01*
X123203490Y-113708250D01*
X123076240Y-113708250D01*
X123076240Y-114471753D01*
X122694488Y-114471753D01*
X122694488Y-113708250D01*
X123076240Y-113708250D01*
X123076240Y-113581000D01*
X122567237Y-113581000D01*
X122567237Y-114599004D01*
X122312492Y-114599004D01*
X122312492Y-113962751D01*
X122185242Y-113962751D01*
X122185242Y-114599004D01*
X121803490Y-114599004D01*
X121803490Y-114217252D01*
X121930741Y-114217252D01*
X122057991Y-114217252D01*
X122057991Y-113962751D01*
X122185242Y-113962751D01*
X122185242Y-113581000D01*
X122057991Y-113581000D01*
X122057991Y-113962751D01*
X121930741Y-113962751D01*
X121930741Y-114217252D01*
X121803490Y-114217252D01*
X121803490Y-113962751D01*
X121930741Y-113962751D01*
X121930741Y-113581000D01*
X121803490Y-113581000D01*
X121803490Y-113962751D01*
X121676240Y-113962751D01*
X121676240Y-114599004D01*
X121294244Y-114599004D01*
X121294244Y-114471753D01*
X121421494Y-114471753D01*
X121421494Y-114344503D01*
X121294244Y-114344503D01*
X121294244Y-114471753D01*
X120912492Y-114471753D01*
X120912492Y-114599004D01*
X120674131Y-114599004D01*
X120674131Y-114471753D01*
X120785242Y-114471753D01*
X120912492Y-114471753D01*
X120912492Y-114217252D01*
X121294244Y-114217252D01*
X121294244Y-114090002D01*
X121421494Y-114090002D01*
X121421494Y-113708250D01*
X121294244Y-113708250D01*
X121294244Y-114090002D01*
X120912492Y-114090002D01*
X120912492Y-114217252D01*
X120785242Y-114217252D01*
X120785242Y-114471753D01*
X120674131Y-114471753D01*
X120674131Y-113835501D01*
X120785242Y-113835501D01*
X120912492Y-113835501D01*
X120912492Y-113708250D01*
X121294244Y-113708250D01*
X121294244Y-113581000D01*
X120912492Y-113581000D01*
X120912492Y-113708250D01*
X120785242Y-113708250D01*
X120785242Y-113835501D01*
X120674131Y-113835501D01*
X120674131Y-113469889D01*
X125096597Y-113469889D01*
X125096597Y-114710115D01*
G37*
%LPC*%
D11*
X139960528Y-86673867D03*
X144960528Y-86673867D03*
D12*
X80274000Y-99075000D03*
D13*
X82814000Y-99075000D03*
X85354000Y-99075000D03*
X87894000Y-99075000D03*
X87894000Y-91455000D03*
X85354000Y-91455000D03*
X82814000Y-91455000D03*
X80274000Y-91455000D03*
D11*
X85217000Y-71120000D03*
D14*
X85217000Y-78740000D03*
D11*
X80645000Y-84836000D03*
D14*
X88265000Y-84836000D03*
D11*
X88265000Y-88138000D03*
D14*
X80645000Y-88138000D03*
X112649000Y-94869000D03*
D11*
X105029000Y-94869000D03*
D14*
X139954000Y-77089000D03*
D11*
X147574000Y-77089000D03*
X90424000Y-108712000D03*
D14*
X82804000Y-108712000D03*
X90424000Y-105537000D03*
D11*
X82804000Y-105537000D03*
X82804000Y-102362000D03*
D14*
X90424000Y-102362000D03*
D15*
X143764000Y-63246000D03*
X143764000Y-65786000D03*
X143764000Y-68326000D03*
X143764000Y-70866000D03*
X143764000Y-73406000D03*
D11*
X78105000Y-88753000D03*
X78105000Y-86253000D03*
X80665000Y-81788000D03*
X83165000Y-81788000D03*
D16*
X74382621Y-81534000D03*
D11*
X76882621Y-81534000D03*
D16*
X143168379Y-57785000D03*
D11*
X140668379Y-57785000D03*
X80137000Y-104374000D03*
X80137000Y-101874000D03*
D17*
X149000000Y-58000000D03*
D14*
X140081000Y-96960867D03*
D11*
X140081000Y-89340867D03*
D18*
X142714868Y-107941129D03*
X142714868Y-105401129D03*
X142714868Y-102861129D03*
X142714868Y-100321129D03*
X150334868Y-100321129D03*
X150334868Y-102861129D03*
X150334868Y-105401129D03*
D19*
X150334868Y-107941129D03*
D20*
X138876458Y-111070643D03*
D21*
X136336458Y-111070643D03*
X116016458Y-111197643D03*
X118556458Y-111197643D03*
X121096458Y-111197643D03*
D20*
X123636458Y-111197643D03*
D15*
X78486000Y-119253000D03*
X78486000Y-116713000D03*
D11*
X101874000Y-98298000D03*
X104374000Y-98298000D03*
D17*
X109000000Y-58000000D03*
D11*
X109327000Y-98298000D03*
X106827000Y-98298000D03*
D14*
X147560528Y-80323867D03*
D11*
X139940528Y-80323867D03*
X97536000Y-101552379D03*
D16*
X97536000Y-104052379D03*
D15*
X78247230Y-74015237D03*
X78247230Y-71475237D03*
D22*
X104267000Y-101219000D03*
X106807000Y-101219000D03*
D23*
X109347000Y-101219000D03*
D24*
X106807000Y-117879000D03*
D11*
X146798528Y-89340867D03*
D14*
X146798528Y-96960867D03*
X102616000Y-94234000D03*
D11*
X94996000Y-94234000D03*
D25*
X99060000Y-108077000D03*
D26*
X99060000Y-118237000D03*
D27*
X102616000Y-90551000D03*
X100076000Y-90551000D03*
D28*
X97536000Y-90551000D03*
D15*
X78486000Y-112268000D03*
X78486000Y-109728000D03*
D14*
X139934967Y-83615908D03*
D11*
X147554967Y-83615908D03*
D14*
X143496528Y-96960867D03*
D11*
X143496528Y-89340867D03*
X149860000Y-89340867D03*
D14*
X149860000Y-96960867D03*
X91567000Y-94996000D03*
D11*
X91567000Y-87376000D03*
X91564061Y-70612000D03*
D14*
X99184061Y-70612000D03*
D11*
X88770061Y-73660000D03*
D14*
X88770061Y-81280000D03*
D21*
X128619440Y-105697000D03*
D20*
X126079440Y-105697000D03*
D21*
X123539440Y-105697000D03*
X134969440Y-57667000D03*
X134969440Y-60207000D03*
D20*
X134969440Y-62747000D03*
D21*
X134969440Y-65287000D03*
X134969440Y-67827000D03*
X134969440Y-70367000D03*
X134969440Y-72907000D03*
D20*
X134969440Y-75447000D03*
D21*
X134969440Y-77987000D03*
X134969440Y-80527000D03*
X134969440Y-83067000D03*
X134969440Y-85607000D03*
D20*
X134969440Y-88147000D03*
D21*
X134969440Y-90687000D03*
X134969440Y-93227000D03*
X134969440Y-95767000D03*
X134969440Y-98307000D03*
D20*
X134969440Y-100847000D03*
D21*
X134969440Y-103387000D03*
X134969440Y-105927000D03*
X117189440Y-105927000D03*
X117189440Y-103387000D03*
D20*
X117189440Y-100847000D03*
D21*
X117189440Y-98307000D03*
X117189440Y-95767000D03*
X117189440Y-93227000D03*
X117189440Y-90687000D03*
D20*
X117189440Y-88147000D03*
D21*
X117189440Y-85607000D03*
X117189440Y-83067000D03*
X117189440Y-80527000D03*
X117189440Y-77987000D03*
D20*
X117189440Y-75447000D03*
D21*
X117189440Y-72907000D03*
X117189440Y-70367000D03*
X117189440Y-67827000D03*
X117189440Y-65287000D03*
D20*
X117189440Y-62747000D03*
D21*
X117189440Y-60207000D03*
X117189440Y-57667000D03*
D29*
X128804440Y-57797000D03*
D30*
X128504440Y-60827000D03*
X123654440Y-60827000D03*
D29*
X123354440Y-57797000D03*
D11*
X150481528Y-113323867D03*
X150481528Y-110823867D03*
X112776000Y-91567000D03*
D14*
X105156000Y-91567000D03*
D11*
X142734528Y-110823867D03*
X142734528Y-113323867D03*
D14*
X99184061Y-84836000D03*
D16*
X91564061Y-84836000D03*
D20*
X130235458Y-111127643D03*
D21*
X127695458Y-111127643D03*
D12*
X103971417Y-80152000D03*
D13*
X106511417Y-80152000D03*
X109051417Y-80152000D03*
X111591417Y-80152000D03*
X111591417Y-72532000D03*
X109051417Y-72532000D03*
X106511417Y-72532000D03*
X103971417Y-72532000D03*
X92072061Y-74041000D03*
X94612061Y-74041000D03*
X97152061Y-74041000D03*
X99692061Y-74041000D03*
X99692061Y-81661000D03*
X97152061Y-81661000D03*
X94612061Y-81661000D03*
D12*
X92072061Y-81661000D03*
D31*
X146884434Y-106861566D03*
X147701000Y-102743000D03*
X142825763Y-91771763D03*
X144272000Y-79857600D03*
X141816279Y-88706590D03*
X144272000Y-76962000D03*
X147066000Y-100584000D03*
X101727000Y-117856000D03*
X145531013Y-105508145D03*
X99632731Y-115634731D03*
X74383900Y-95681803D03*
X77254100Y-95681803D03*
X77254100Y-93980000D03*
X74383900Y-93980000D03*
X84109400Y-96139000D03*
X86598600Y-96139000D03*
X91567000Y-92837000D03*
X91567000Y-90043000D03*
X98426230Y-112774770D03*
X100519269Y-110808731D03*
X101346000Y-85090000D03*
X105664000Y-85090000D03*
X103505000Y-68834000D03*
X106267600Y-68834000D03*
%LPD*%
M02*
