%TF.GenerationSoftware,KiCad,Pcbnew,8.0.5*%
%TF.CreationDate,2024-09-14T22:06:42+02:00*%
%TF.ProjectId,midi2cv,6d696469-3263-4762-9e6b-696361645f70,rev?*%
%TF.SameCoordinates,Original*%
%TF.FileFunction,Drillmap*%
%TF.FilePolarity,Positive*%
%FSLAX45Y45*%
G04 Gerber Fmt 4.5, Leading zero omitted, Abs format (unit mm)*
G04 Created by KiCad (PCBNEW 8.0.5) date 2024-09-14 22:06:42*
%MOMM*%
%LPD*%
G01*
G04 APERTURE LIST*
%ADD10C,0.100000*%
%ADD11C,0.200000*%
%ADD12C,0.102000*%
%ADD13C,0.110000*%
%ADD14C,0.300000*%
G04 APERTURE END LIST*
D10*
X15400000Y-12200000D02*
X7100000Y-12200000D01*
X7100000Y-6800000D01*
X10400000Y-6800000D01*
X10400000Y-5300000D01*
X15400000Y-5300000D01*
X15400000Y-12200000D01*
D11*
D10*
X7398262Y-8113400D02*
X7478262Y-8193400D01*
X7478262Y-8113400D02*
X7398262Y-8193400D01*
X7648262Y-8113400D02*
X7728262Y-8193400D01*
X7728262Y-8113400D02*
X7648262Y-8193400D01*
X7770500Y-8585300D02*
X7850500Y-8665300D01*
X7850500Y-8585300D02*
X7770500Y-8665300D01*
X7770500Y-8835300D02*
X7850500Y-8915300D01*
X7850500Y-8835300D02*
X7770500Y-8915300D01*
X7973700Y-10147400D02*
X8053700Y-10227400D01*
X8053700Y-10147400D02*
X7973700Y-10227400D01*
X7973700Y-10397400D02*
X8053700Y-10477400D01*
X8053700Y-10397400D02*
X7973700Y-10477400D01*
X7987400Y-9105500D02*
X8067400Y-9185500D01*
X8067400Y-9105500D02*
X7987400Y-9185500D01*
X7987400Y-9867500D02*
X8067400Y-9947500D01*
X8067400Y-9867500D02*
X7987400Y-9947500D01*
X8024500Y-8443600D02*
X8104500Y-8523600D01*
X8104500Y-8443600D02*
X8024500Y-8523600D01*
X8024500Y-8773800D02*
X8104500Y-8853800D01*
X8104500Y-8773800D02*
X8024500Y-8853800D01*
X8026500Y-8138800D02*
X8106500Y-8218800D01*
X8106500Y-8138800D02*
X8026500Y-8218800D01*
X8240400Y-10196200D02*
X8320400Y-10276200D01*
X8320400Y-10196200D02*
X8240400Y-10276200D01*
X8240400Y-10513700D02*
X8320400Y-10593700D01*
X8320400Y-10513700D02*
X8240400Y-10593700D01*
X8240400Y-10831200D02*
X8320400Y-10911200D01*
X8320400Y-10831200D02*
X8240400Y-10911200D01*
X8241400Y-9105500D02*
X8321400Y-9185500D01*
X8321400Y-9105500D02*
X8241400Y-9185500D01*
X8241400Y-9867500D02*
X8321400Y-9947500D01*
X8321400Y-9867500D02*
X8241400Y-9947500D01*
X8276500Y-8138800D02*
X8356500Y-8218800D01*
X8356500Y-8138800D02*
X8276500Y-8218800D01*
X8481700Y-7072000D02*
X8561700Y-7152000D01*
X8561700Y-7072000D02*
X8481700Y-7152000D01*
X8481700Y-7834000D02*
X8561700Y-7914000D01*
X8561700Y-7834000D02*
X8481700Y-7914000D01*
X8495400Y-9105500D02*
X8575400Y-9185500D01*
X8575400Y-9105500D02*
X8495400Y-9185500D01*
X8495400Y-9867500D02*
X8575400Y-9947500D01*
X8575400Y-9867500D02*
X8495400Y-9947500D01*
X8749400Y-9105500D02*
X8829400Y-9185500D01*
X8829400Y-9105500D02*
X8749400Y-9185500D01*
X8749400Y-9867500D02*
X8829400Y-9947500D01*
X8829400Y-9867500D02*
X8749400Y-9947500D01*
X8786500Y-8443600D02*
X8866500Y-8523600D01*
X8866500Y-8443600D02*
X8786500Y-8523600D01*
X8786500Y-8773800D02*
X8866500Y-8853800D01*
X8866500Y-8773800D02*
X8786500Y-8853800D01*
X8837006Y-7326000D02*
X8917006Y-7406000D01*
X8917006Y-7326000D02*
X8837006Y-7406000D01*
X8837006Y-8088000D02*
X8917006Y-8168000D01*
X8917006Y-8088000D02*
X8837006Y-8168000D01*
X9002400Y-10196200D02*
X9082400Y-10276200D01*
X9082400Y-10196200D02*
X9002400Y-10276200D01*
X9002400Y-10513700D02*
X9082400Y-10593700D01*
X9082400Y-10513700D02*
X9002400Y-10593700D01*
X9002400Y-10831200D02*
X9082400Y-10911200D01*
X9082400Y-10831200D02*
X9002400Y-10911200D01*
X9116406Y-7021200D02*
X9196406Y-7101200D01*
X9196406Y-7021200D02*
X9116406Y-7101200D01*
X9116406Y-8443600D02*
X9196406Y-8523600D01*
X9196406Y-8443600D02*
X9116406Y-8523600D01*
X9116700Y-8697600D02*
X9196700Y-8777600D01*
X9196700Y-8697600D02*
X9116700Y-8777600D01*
X9116700Y-9459600D02*
X9196700Y-9539600D01*
X9196700Y-9459600D02*
X9116700Y-9539600D01*
X9167206Y-7364100D02*
X9247206Y-7444100D01*
X9247206Y-7364100D02*
X9167206Y-7444100D01*
X9167206Y-8126100D02*
X9247206Y-8206100D01*
X9247206Y-8126100D02*
X9167206Y-8206100D01*
X9421206Y-7364100D02*
X9501206Y-7444100D01*
X9501206Y-7364100D02*
X9421206Y-7444100D01*
X9421206Y-8126100D02*
X9501206Y-8206100D01*
X9501206Y-8126100D02*
X9421206Y-8206100D01*
X9459600Y-9383400D02*
X9539600Y-9463400D01*
X9539600Y-9383400D02*
X9459600Y-9463400D01*
X9675206Y-7364100D02*
X9755206Y-7444100D01*
X9755206Y-7364100D02*
X9675206Y-7444100D01*
X9675206Y-8126100D02*
X9755206Y-8206100D01*
X9755206Y-8126100D02*
X9675206Y-8206100D01*
X9713600Y-9015100D02*
X9793600Y-9095100D01*
X9793600Y-9015100D02*
X9713600Y-9095100D01*
X9713600Y-10115238D02*
X9793600Y-10195238D01*
X9793600Y-10115238D02*
X9713600Y-10195238D01*
X9713600Y-10365238D02*
X9793600Y-10445238D01*
X9793600Y-10365238D02*
X9713600Y-10445238D01*
X9878406Y-7021200D02*
X9958406Y-7101200D01*
X9958406Y-7021200D02*
X9878406Y-7101200D01*
X9878406Y-8443600D02*
X9958406Y-8523600D01*
X9958406Y-8443600D02*
X9878406Y-8523600D01*
X9929206Y-7364100D02*
X10009206Y-7444100D01*
X10009206Y-7364100D02*
X9929206Y-7444100D01*
X9929206Y-8126100D02*
X10009206Y-8206100D01*
X10009206Y-8126100D02*
X9929206Y-8206100D01*
X9967600Y-9015100D02*
X10047600Y-9095100D01*
X10047600Y-9015100D02*
X9967600Y-9095100D01*
X10147400Y-9789800D02*
X10227400Y-9869800D01*
X10227400Y-9789800D02*
X10147400Y-9869800D01*
X10221600Y-9015100D02*
X10301600Y-9095100D01*
X10301600Y-9015100D02*
X10221600Y-9095100D01*
X10221600Y-9383400D02*
X10301600Y-9463400D01*
X10301600Y-9383400D02*
X10221600Y-9463400D01*
X10357142Y-7213200D02*
X10437142Y-7293200D01*
X10437142Y-7213200D02*
X10357142Y-7293200D01*
X10357142Y-7975200D02*
X10437142Y-8055200D01*
X10437142Y-7975200D02*
X10357142Y-8055200D01*
X10397400Y-9789800D02*
X10477400Y-9869800D01*
X10477400Y-9789800D02*
X10397400Y-9869800D01*
X10462900Y-9446900D02*
X10542900Y-9526900D01*
X10542900Y-9446900D02*
X10462900Y-9526900D01*
X10475600Y-9116700D02*
X10555600Y-9196700D01*
X10555600Y-9116700D02*
X10475600Y-9196700D01*
X10611142Y-7213200D02*
X10691142Y-7293200D01*
X10691142Y-7213200D02*
X10611142Y-7293200D01*
X10611142Y-7975200D02*
X10691142Y-8055200D01*
X10691142Y-7975200D02*
X10611142Y-8055200D01*
X10642700Y-9789800D02*
X10722700Y-9869800D01*
X10722700Y-9789800D02*
X10642700Y-9869800D01*
X10865142Y-7213200D02*
X10945142Y-7293200D01*
X10945142Y-7213200D02*
X10865142Y-7293200D01*
X10865142Y-7975200D02*
X10945142Y-8055200D01*
X10945142Y-7975200D02*
X10865142Y-8055200D01*
X10892700Y-9789800D02*
X10972700Y-9869800D01*
X10972700Y-9789800D02*
X10892700Y-9869800D01*
X11119142Y-7213200D02*
X11199142Y-7293200D01*
X11199142Y-7213200D02*
X11119142Y-7293200D01*
X11119142Y-7975200D02*
X11199142Y-8055200D01*
X11199142Y-7975200D02*
X11119142Y-8055200D01*
X11224900Y-9446900D02*
X11304900Y-9526900D01*
X11304900Y-9446900D02*
X11224900Y-9526900D01*
X11237600Y-9116700D02*
X11317600Y-9196700D01*
X11317600Y-9116700D02*
X11237600Y-9196700D01*
X13953497Y-8321591D02*
X14033497Y-8401591D01*
X14033497Y-8321591D02*
X13953497Y-8401591D01*
X13954053Y-7992387D02*
X14034053Y-8072387D01*
X14034053Y-7992387D02*
X13954053Y-8072387D01*
X13955400Y-7668900D02*
X14035400Y-7748900D01*
X14035400Y-7668900D02*
X13955400Y-7748900D01*
X13956053Y-8627387D02*
X14036053Y-8707387D01*
X14036053Y-8627387D02*
X13956053Y-8707387D01*
X13968100Y-8894087D02*
X14048100Y-8974087D01*
X14048100Y-8894087D02*
X13968100Y-8974087D01*
X13968100Y-9656087D02*
X14048100Y-9736087D01*
X14048100Y-9656087D02*
X13968100Y-9736087D01*
X14026838Y-5738500D02*
X14106838Y-5818500D01*
X14106838Y-5738500D02*
X14026838Y-5818500D01*
X14231487Y-9992113D02*
X14311487Y-10072113D01*
X14311487Y-9992113D02*
X14231487Y-10072113D01*
X14231487Y-10246113D02*
X14311487Y-10326113D01*
X14311487Y-10246113D02*
X14231487Y-10326113D01*
X14231487Y-10500113D02*
X14311487Y-10580113D01*
X14311487Y-10500113D02*
X14231487Y-10580113D01*
X14231487Y-10754113D02*
X14311487Y-10834113D01*
X14311487Y-10754113D02*
X14231487Y-10834113D01*
X14233453Y-11042387D02*
X14313453Y-11122387D01*
X14313453Y-11042387D02*
X14233453Y-11122387D01*
X14233453Y-11292387D02*
X14313453Y-11372387D01*
X14313453Y-11292387D02*
X14233453Y-11372387D01*
X14276838Y-5738500D02*
X14356838Y-5818500D01*
X14356838Y-5738500D02*
X14276838Y-5818500D01*
X14309653Y-8894087D02*
X14389653Y-8974087D01*
X14389653Y-8894087D02*
X14309653Y-8974087D01*
X14309653Y-9656087D02*
X14389653Y-9736087D01*
X14389653Y-9656087D02*
X14309653Y-9736087D01*
X14456053Y-8627387D02*
X14536053Y-8707387D01*
X14536053Y-8627387D02*
X14456053Y-8707387D01*
X14639853Y-8894087D02*
X14719853Y-8974087D01*
X14719853Y-8894087D02*
X14639853Y-8974087D01*
X14639853Y-9656087D02*
X14719853Y-9736087D01*
X14719853Y-9656087D02*
X14639853Y-9736087D01*
X14715497Y-8321591D02*
X14795497Y-8401591D01*
X14795497Y-8321591D02*
X14715497Y-8401591D01*
X14716053Y-7992387D02*
X14796053Y-8072387D01*
X14796053Y-7992387D02*
X14716053Y-8072387D01*
X14717400Y-7668900D02*
X14797400Y-7748900D01*
X14797400Y-7668900D02*
X14717400Y-7748900D01*
X14946000Y-8894087D02*
X15026000Y-8974087D01*
X15026000Y-8894087D02*
X14946000Y-8974087D01*
X14946000Y-9656087D02*
X15026000Y-9736087D01*
X15026000Y-9656087D02*
X14946000Y-9736087D01*
X14993487Y-9992113D02*
X15073487Y-10072113D01*
X15073487Y-9992113D02*
X14993487Y-10072113D01*
X14993487Y-10246113D02*
X15073487Y-10326113D01*
X15073487Y-10246113D02*
X14993487Y-10326113D01*
X14993487Y-10500113D02*
X15073487Y-10580113D01*
X15073487Y-10500113D02*
X14993487Y-10580113D01*
X14993487Y-10754113D02*
X15073487Y-10834113D01*
X15073487Y-10754113D02*
X14993487Y-10834113D01*
X15008153Y-11042387D02*
X15088153Y-11122387D01*
X15088153Y-11042387D02*
X15008153Y-11122387D01*
X15008153Y-11292387D02*
X15088153Y-11372387D01*
X15088153Y-11292387D02*
X15008153Y-11372387D01*
X7479030Y-9398000D02*
G75*
G02*
X7397750Y-9398000I-40640J0D01*
G01*
X7397750Y-9398000D02*
G75*
G02*
X7479030Y-9398000I40640J0D01*
G01*
X7479030Y-9568180D02*
G75*
G02*
X7397750Y-9568180I-40640J0D01*
G01*
X7397750Y-9568180D02*
G75*
G02*
X7479030Y-9568180I40640J0D01*
G01*
X7766050Y-9398000D02*
G75*
G02*
X7684770Y-9398000I-40640J0D01*
G01*
X7684770Y-9398000D02*
G75*
G02*
X7766050Y-9398000I40640J0D01*
G01*
X7766050Y-9568180D02*
G75*
G02*
X7684770Y-9568180I-40640J0D01*
G01*
X7684770Y-9568180D02*
G75*
G02*
X7766050Y-9568180I40640J0D01*
G01*
X8451580Y-9613900D02*
G75*
G02*
X8370300Y-9613900I-40640J0D01*
G01*
X8370300Y-9613900D02*
G75*
G02*
X8451580Y-9613900I40640J0D01*
G01*
X8700500Y-9613900D02*
G75*
G02*
X8619220Y-9613900I-40640J0D01*
G01*
X8619220Y-9613900D02*
G75*
G02*
X8700500Y-9613900I40640J0D01*
G01*
X9197340Y-9004300D02*
G75*
G02*
X9116060Y-9004300I-40640J0D01*
G01*
X9116060Y-9004300D02*
G75*
G02*
X9197340Y-9004300I40640J0D01*
G01*
X9197340Y-9283700D02*
G75*
G02*
X9116060Y-9283700I-40640J0D01*
G01*
X9116060Y-9283700D02*
G75*
G02*
X9197340Y-9283700I40640J0D01*
G01*
X9883263Y-11277477D02*
G75*
G02*
X9801983Y-11277477I-40640J0D01*
G01*
X9801983Y-11277477D02*
G75*
G02*
X9883263Y-11277477I40640J0D01*
G01*
X10003913Y-11563473D02*
G75*
G02*
X9922633Y-11563473I-40640J0D01*
G01*
X9922633Y-11563473D02*
G75*
G02*
X10003913Y-11563473I40640J0D01*
G01*
X10092567Y-11080873D02*
G75*
G02*
X10011287Y-11080873I-40640J0D01*
G01*
X10011287Y-11080873D02*
G75*
G02*
X10092567Y-11080873I40640J0D01*
G01*
X10175240Y-8509000D02*
G75*
G02*
X10093960Y-8509000I-40640J0D01*
G01*
X10093960Y-8509000D02*
G75*
G02*
X10175240Y-8509000I40640J0D01*
G01*
X10213340Y-11785600D02*
G75*
G02*
X10132060Y-11785600I-40640J0D01*
G01*
X10132060Y-11785600D02*
G75*
G02*
X10213340Y-11785600I40640J0D01*
G01*
X10391140Y-6883400D02*
G75*
G02*
X10309860Y-6883400I-40640J0D01*
G01*
X10309860Y-6883400D02*
G75*
G02*
X10391140Y-6883400I40640J0D01*
G01*
X10607040Y-8509000D02*
G75*
G02*
X10525760Y-8509000I-40640J0D01*
G01*
X10525760Y-8509000D02*
G75*
G02*
X10607040Y-8509000I40640J0D01*
G01*
X10667400Y-6883400D02*
G75*
G02*
X10586120Y-6883400I-40640J0D01*
G01*
X10586120Y-6883400D02*
G75*
G02*
X10667400Y-6883400I40640J0D01*
G01*
X14222268Y-8870659D02*
G75*
G02*
X14140988Y-8870659I-40640J0D01*
G01*
X14140988Y-8870659D02*
G75*
G02*
X14222268Y-8870659I40640J0D01*
G01*
X14323216Y-9177176D02*
G75*
G02*
X14241936Y-9177176I-40640J0D01*
G01*
X14241936Y-9177176D02*
G75*
G02*
X14323216Y-9177176I40640J0D01*
G01*
X14467840Y-7696200D02*
G75*
G02*
X14386560Y-7696200I-40640J0D01*
G01*
X14386560Y-7696200D02*
G75*
G02*
X14467840Y-7696200I40640J0D01*
G01*
X14467840Y-7985760D02*
G75*
G02*
X14386560Y-7985760I-40640J0D01*
G01*
X14386560Y-7985760D02*
G75*
G02*
X14467840Y-7985760I40640J0D01*
G01*
X14593741Y-10550815D02*
G75*
G02*
X14512461Y-10550815I-40640J0D01*
G01*
X14512461Y-10550815D02*
G75*
G02*
X14593741Y-10550815I40640J0D01*
G01*
X14729083Y-10686157D02*
G75*
G02*
X14647803Y-10686157I-40640J0D01*
G01*
X14647803Y-10686157D02*
G75*
G02*
X14729083Y-10686157I40640J0D01*
G01*
X14747240Y-10058400D02*
G75*
G02*
X14665960Y-10058400I-40640J0D01*
G01*
X14665960Y-10058400D02*
G75*
G02*
X14747240Y-10058400I40640J0D01*
G01*
X14810740Y-10274300D02*
G75*
G02*
X14729460Y-10274300I-40640J0D01*
G01*
X14729460Y-10274300D02*
G75*
G02*
X14810740Y-10274300I40640J0D01*
G01*
X7824723Y-7097524D02*
X7824723Y-7197524D01*
X7774723Y-7147524D02*
X7874723Y-7147524D01*
X7824723Y-7351524D02*
X7824723Y-7451524D01*
X7774723Y-7401524D02*
X7874723Y-7401524D01*
X7848600Y-10922800D02*
X7848600Y-11022800D01*
X7798600Y-10972800D02*
X7898600Y-10972800D01*
X7848600Y-11176800D02*
X7848600Y-11276800D01*
X7798600Y-11226800D02*
X7898600Y-11226800D01*
X7848600Y-11621300D02*
X7848600Y-11721300D01*
X7798600Y-11671300D02*
X7898600Y-11671300D01*
X7848600Y-11875300D02*
X7848600Y-11975300D01*
X7798600Y-11925300D02*
X7898600Y-11925300D01*
X11601646Y-11069764D02*
X11601646Y-11169764D01*
X11551646Y-11119764D02*
X11651646Y-11119764D01*
X11855646Y-11069764D02*
X11855646Y-11169764D01*
X11805646Y-11119764D02*
X11905646Y-11119764D01*
X12109646Y-11069764D02*
X12109646Y-11169764D01*
X12059646Y-11119764D02*
X12159646Y-11119764D01*
X12363646Y-11069764D02*
X12363646Y-11169764D01*
X12313646Y-11119764D02*
X12413646Y-11119764D01*
X12769546Y-11062764D02*
X12769546Y-11162764D01*
X12719546Y-11112764D02*
X12819546Y-11112764D01*
X13023546Y-11062764D02*
X13023546Y-11162764D01*
X12973546Y-11112764D02*
X13073546Y-11112764D01*
X13633646Y-11057064D02*
X13633646Y-11157064D01*
X13583646Y-11107064D02*
X13683646Y-11107064D01*
X13887646Y-11057064D02*
X13887646Y-11157064D01*
X13837646Y-11107064D02*
X13937646Y-11107064D01*
X14376400Y-6274600D02*
X14376400Y-6374600D01*
X14326400Y-6324600D02*
X14426400Y-6324600D01*
X14376400Y-6528600D02*
X14376400Y-6628600D01*
X14326400Y-6578600D02*
X14426400Y-6578600D01*
X14376400Y-6782600D02*
X14376400Y-6882600D01*
X14326400Y-6832600D02*
X14426400Y-6832600D01*
X14376400Y-7036600D02*
X14376400Y-7136600D01*
X14326400Y-7086600D02*
X14426400Y-7086600D01*
X14376400Y-7290600D02*
X14376400Y-7390600D01*
X14326400Y-7340600D02*
X14426400Y-7340600D01*
D12*
X11755007Y-5802763D02*
X11755007Y-5730637D01*
X11682881Y-5730637D01*
X11682881Y-5802763D01*
X11755007Y-5802763D01*
X11755007Y-6056763D02*
X11755007Y-5984637D01*
X11682881Y-5984637D01*
X11682881Y-6056763D01*
X11755007Y-6056763D01*
X11755007Y-6310763D02*
X11755007Y-6238637D01*
X11682881Y-6238637D01*
X11682881Y-6310763D01*
X11755007Y-6310763D01*
X11755007Y-6564763D02*
X11755007Y-6492637D01*
X11682881Y-6492637D01*
X11682881Y-6564763D01*
X11755007Y-6564763D01*
X11755007Y-6818763D02*
X11755007Y-6746637D01*
X11682881Y-6746637D01*
X11682881Y-6818763D01*
X11755007Y-6818763D01*
X11755007Y-7072763D02*
X11755007Y-7000637D01*
X11682881Y-7000637D01*
X11682881Y-7072763D01*
X11755007Y-7072763D01*
X11755007Y-7326763D02*
X11755007Y-7254637D01*
X11682881Y-7254637D01*
X11682881Y-7326763D01*
X11755007Y-7326763D01*
X11755007Y-7580763D02*
X11755007Y-7508637D01*
X11682881Y-7508637D01*
X11682881Y-7580763D01*
X11755007Y-7580763D01*
X11755007Y-7834763D02*
X11755007Y-7762637D01*
X11682881Y-7762637D01*
X11682881Y-7834763D01*
X11755007Y-7834763D01*
X11755007Y-8088763D02*
X11755007Y-8016637D01*
X11682881Y-8016637D01*
X11682881Y-8088763D01*
X11755007Y-8088763D01*
X11755007Y-8342763D02*
X11755007Y-8270637D01*
X11682881Y-8270637D01*
X11682881Y-8342763D01*
X11755007Y-8342763D01*
X11755007Y-8596763D02*
X11755007Y-8524637D01*
X11682881Y-8524637D01*
X11682881Y-8596763D01*
X11755007Y-8596763D01*
X11755007Y-8850763D02*
X11755007Y-8778637D01*
X11682881Y-8778637D01*
X11682881Y-8850763D01*
X11755007Y-8850763D01*
X11755007Y-9104763D02*
X11755007Y-9032637D01*
X11682881Y-9032637D01*
X11682881Y-9104763D01*
X11755007Y-9104763D01*
X11755007Y-9358763D02*
X11755007Y-9286637D01*
X11682881Y-9286637D01*
X11682881Y-9358763D01*
X11755007Y-9358763D01*
X11755007Y-9612763D02*
X11755007Y-9540637D01*
X11682881Y-9540637D01*
X11682881Y-9612763D01*
X11755007Y-9612763D01*
X11755007Y-9866763D02*
X11755007Y-9794637D01*
X11682881Y-9794637D01*
X11682881Y-9866763D01*
X11755007Y-9866763D01*
X11755007Y-10120763D02*
X11755007Y-10048637D01*
X11682881Y-10048637D01*
X11682881Y-10120763D01*
X11755007Y-10120763D01*
X11755007Y-10374763D02*
X11755007Y-10302637D01*
X11682881Y-10302637D01*
X11682881Y-10374763D01*
X11755007Y-10374763D01*
X11755007Y-10628763D02*
X11755007Y-10556637D01*
X11682881Y-10556637D01*
X11682881Y-10628763D01*
X11755007Y-10628763D01*
X12390007Y-10605763D02*
X12390007Y-10533637D01*
X12317881Y-10533637D01*
X12317881Y-10605763D01*
X12390007Y-10605763D01*
X12644007Y-10605763D02*
X12644007Y-10533637D01*
X12571881Y-10533637D01*
X12571881Y-10605763D01*
X12644007Y-10605763D01*
X12898007Y-10605763D02*
X12898007Y-10533637D01*
X12825881Y-10533637D01*
X12825881Y-10605763D01*
X12898007Y-10605763D01*
X13533007Y-5802763D02*
X13533007Y-5730637D01*
X13460881Y-5730637D01*
X13460881Y-5802763D01*
X13533007Y-5802763D01*
X13533007Y-6056763D02*
X13533007Y-5984637D01*
X13460881Y-5984637D01*
X13460881Y-6056763D01*
X13533007Y-6056763D01*
X13533007Y-6310763D02*
X13533007Y-6238637D01*
X13460881Y-6238637D01*
X13460881Y-6310763D01*
X13533007Y-6310763D01*
X13533007Y-6564763D02*
X13533007Y-6492637D01*
X13460881Y-6492637D01*
X13460881Y-6564763D01*
X13533007Y-6564763D01*
X13533007Y-6818763D02*
X13533007Y-6746637D01*
X13460881Y-6746637D01*
X13460881Y-6818763D01*
X13533007Y-6818763D01*
X13533007Y-7072763D02*
X13533007Y-7000637D01*
X13460881Y-7000637D01*
X13460881Y-7072763D01*
X13533007Y-7072763D01*
X13533007Y-7326763D02*
X13533007Y-7254637D01*
X13460881Y-7254637D01*
X13460881Y-7326763D01*
X13533007Y-7326763D01*
X13533007Y-7580763D02*
X13533007Y-7508637D01*
X13460881Y-7508637D01*
X13460881Y-7580763D01*
X13533007Y-7580763D01*
X13533007Y-7834763D02*
X13533007Y-7762637D01*
X13460881Y-7762637D01*
X13460881Y-7834763D01*
X13533007Y-7834763D01*
X13533007Y-8088763D02*
X13533007Y-8016637D01*
X13460881Y-8016637D01*
X13460881Y-8088763D01*
X13533007Y-8088763D01*
X13533007Y-8342763D02*
X13533007Y-8270637D01*
X13460881Y-8270637D01*
X13460881Y-8342763D01*
X13533007Y-8342763D01*
X13533007Y-8596763D02*
X13533007Y-8524637D01*
X13460881Y-8524637D01*
X13460881Y-8596763D01*
X13533007Y-8596763D01*
X13533007Y-8850763D02*
X13533007Y-8778637D01*
X13460881Y-8778637D01*
X13460881Y-8850763D01*
X13533007Y-8850763D01*
X13533007Y-9104763D02*
X13533007Y-9032637D01*
X13460881Y-9032637D01*
X13460881Y-9104763D01*
X13533007Y-9104763D01*
X13533007Y-9358763D02*
X13533007Y-9286637D01*
X13460881Y-9286637D01*
X13460881Y-9358763D01*
X13533007Y-9358763D01*
X13533007Y-9612763D02*
X13533007Y-9540637D01*
X13460881Y-9540637D01*
X13460881Y-9612763D01*
X13533007Y-9612763D01*
X13533007Y-9866763D02*
X13533007Y-9794637D01*
X13460881Y-9794637D01*
X13460881Y-9866763D01*
X13533007Y-9866763D01*
X13533007Y-10120763D02*
X13533007Y-10048637D01*
X13460881Y-10048637D01*
X13460881Y-10120763D01*
X13533007Y-10120763D01*
X13533007Y-10374763D02*
X13533007Y-10302637D01*
X13460881Y-10302637D01*
X13460881Y-10374763D01*
X13533007Y-10374763D01*
X13533007Y-10628763D02*
X13533007Y-10556637D01*
X13460881Y-10556637D01*
X13460881Y-10628763D01*
X13533007Y-10628763D01*
D13*
X9906000Y-10862700D02*
X9961000Y-10807700D01*
X9906000Y-10752700D01*
X9851000Y-10807700D01*
X9906000Y-10862700D01*
X9906000Y-11878700D02*
X9961000Y-11823700D01*
X9906000Y-11768700D01*
X9851000Y-11823700D01*
X9906000Y-11878700D01*
X10426700Y-10176900D02*
X10481700Y-10121900D01*
X10426700Y-10066900D01*
X10371700Y-10121900D01*
X10426700Y-10176900D01*
X10680700Y-10176900D02*
X10735700Y-10121900D01*
X10680700Y-10066900D01*
X10625700Y-10121900D01*
X10680700Y-10176900D01*
X10934700Y-10176900D02*
X10989700Y-10121900D01*
X10934700Y-10066900D01*
X10879700Y-10121900D01*
X10934700Y-10176900D01*
D14*
X10750000Y-5650000D02*
X11050000Y-5950000D01*
X11050000Y-5650000D02*
X10750000Y-5950000D01*
X11050000Y-5800000D02*
G75*
G02*
X10750000Y-5800000I-150000J0D01*
G01*
X10750000Y-5800000D02*
G75*
G02*
X11050000Y-5800000I150000J0D01*
G01*
X14750000Y-5650000D02*
X15050000Y-5950000D01*
X15050000Y-5650000D02*
X14750000Y-5950000D01*
X15050000Y-5800000D02*
G75*
G02*
X14750000Y-5800000I-150000J0D01*
G01*
X14750000Y-5800000D02*
G75*
G02*
X15050000Y-5800000I150000J0D01*
G01*
D11*
X7355777Y-12516484D02*
X7355777Y-12316484D01*
X7355777Y-12316484D02*
X7403396Y-12316484D01*
X7403396Y-12316484D02*
X7431967Y-12326008D01*
X7431967Y-12326008D02*
X7451015Y-12345055D01*
X7451015Y-12345055D02*
X7460539Y-12364103D01*
X7460539Y-12364103D02*
X7470062Y-12402198D01*
X7470062Y-12402198D02*
X7470062Y-12430769D01*
X7470062Y-12430769D02*
X7460539Y-12468865D01*
X7460539Y-12468865D02*
X7451015Y-12487912D01*
X7451015Y-12487912D02*
X7431967Y-12506960D01*
X7431967Y-12506960D02*
X7403396Y-12516484D01*
X7403396Y-12516484D02*
X7355777Y-12516484D01*
X7555777Y-12516484D02*
X7555777Y-12383150D01*
X7555777Y-12421246D02*
X7565301Y-12402198D01*
X7565301Y-12402198D02*
X7574824Y-12392674D01*
X7574824Y-12392674D02*
X7593872Y-12383150D01*
X7593872Y-12383150D02*
X7612920Y-12383150D01*
X7679586Y-12516484D02*
X7679586Y-12383150D01*
X7679586Y-12316484D02*
X7670062Y-12326008D01*
X7670062Y-12326008D02*
X7679586Y-12335531D01*
X7679586Y-12335531D02*
X7689110Y-12326008D01*
X7689110Y-12326008D02*
X7679586Y-12316484D01*
X7679586Y-12316484D02*
X7679586Y-12335531D01*
X7803396Y-12516484D02*
X7784348Y-12506960D01*
X7784348Y-12506960D02*
X7774824Y-12487912D01*
X7774824Y-12487912D02*
X7774824Y-12316484D01*
X7908158Y-12516484D02*
X7889110Y-12506960D01*
X7889110Y-12506960D02*
X7879586Y-12487912D01*
X7879586Y-12487912D02*
X7879586Y-12316484D01*
X8136729Y-12516484D02*
X8136729Y-12316484D01*
X8136729Y-12316484D02*
X8203396Y-12459341D01*
X8203396Y-12459341D02*
X8270062Y-12316484D01*
X8270062Y-12316484D02*
X8270062Y-12516484D01*
X8451015Y-12516484D02*
X8451015Y-12411722D01*
X8451015Y-12411722D02*
X8441491Y-12392674D01*
X8441491Y-12392674D02*
X8422444Y-12383150D01*
X8422444Y-12383150D02*
X8384348Y-12383150D01*
X8384348Y-12383150D02*
X8365301Y-12392674D01*
X8451015Y-12506960D02*
X8431967Y-12516484D01*
X8431967Y-12516484D02*
X8384348Y-12516484D01*
X8384348Y-12516484D02*
X8365301Y-12506960D01*
X8365301Y-12506960D02*
X8355777Y-12487912D01*
X8355777Y-12487912D02*
X8355777Y-12468865D01*
X8355777Y-12468865D02*
X8365301Y-12449817D01*
X8365301Y-12449817D02*
X8384348Y-12440293D01*
X8384348Y-12440293D02*
X8431967Y-12440293D01*
X8431967Y-12440293D02*
X8451015Y-12430769D01*
X8546253Y-12383150D02*
X8546253Y-12583150D01*
X8546253Y-12392674D02*
X8565301Y-12383150D01*
X8565301Y-12383150D02*
X8603396Y-12383150D01*
X8603396Y-12383150D02*
X8622444Y-12392674D01*
X8622444Y-12392674D02*
X8631967Y-12402198D01*
X8631967Y-12402198D02*
X8641491Y-12421246D01*
X8641491Y-12421246D02*
X8641491Y-12478388D01*
X8641491Y-12478388D02*
X8631967Y-12497436D01*
X8631967Y-12497436D02*
X8622444Y-12506960D01*
X8622444Y-12506960D02*
X8603396Y-12516484D01*
X8603396Y-12516484D02*
X8565301Y-12516484D01*
X8565301Y-12516484D02*
X8546253Y-12506960D01*
X8727205Y-12497436D02*
X8736729Y-12506960D01*
X8736729Y-12506960D02*
X8727205Y-12516484D01*
X8727205Y-12516484D02*
X8717682Y-12506960D01*
X8717682Y-12506960D02*
X8727205Y-12497436D01*
X8727205Y-12497436D02*
X8727205Y-12516484D01*
X8727205Y-12392674D02*
X8736729Y-12402198D01*
X8736729Y-12402198D02*
X8727205Y-12411722D01*
X8727205Y-12411722D02*
X8717682Y-12402198D01*
X8717682Y-12402198D02*
X8727205Y-12392674D01*
X8727205Y-12392674D02*
X8727205Y-12411722D01*
D10*
X7015000Y-12805000D02*
X7095000Y-12885000D01*
X7095000Y-12805000D02*
X7015000Y-12885000D01*
D11*
X7393872Y-12736484D02*
X7412920Y-12736484D01*
X7412920Y-12736484D02*
X7431967Y-12746008D01*
X7431967Y-12746008D02*
X7441491Y-12755531D01*
X7441491Y-12755531D02*
X7451015Y-12774579D01*
X7451015Y-12774579D02*
X7460539Y-12812674D01*
X7460539Y-12812674D02*
X7460539Y-12860293D01*
X7460539Y-12860293D02*
X7451015Y-12898388D01*
X7451015Y-12898388D02*
X7441491Y-12917436D01*
X7441491Y-12917436D02*
X7431967Y-12926960D01*
X7431967Y-12926960D02*
X7412920Y-12936484D01*
X7412920Y-12936484D02*
X7393872Y-12936484D01*
X7393872Y-12936484D02*
X7374824Y-12926960D01*
X7374824Y-12926960D02*
X7365301Y-12917436D01*
X7365301Y-12917436D02*
X7355777Y-12898388D01*
X7355777Y-12898388D02*
X7346253Y-12860293D01*
X7346253Y-12860293D02*
X7346253Y-12812674D01*
X7346253Y-12812674D02*
X7355777Y-12774579D01*
X7355777Y-12774579D02*
X7365301Y-12755531D01*
X7365301Y-12755531D02*
X7374824Y-12746008D01*
X7374824Y-12746008D02*
X7393872Y-12736484D01*
X7546253Y-12917436D02*
X7555777Y-12926960D01*
X7555777Y-12926960D02*
X7546253Y-12936484D01*
X7546253Y-12936484D02*
X7536729Y-12926960D01*
X7536729Y-12926960D02*
X7546253Y-12917436D01*
X7546253Y-12917436D02*
X7546253Y-12936484D01*
X7670062Y-12822198D02*
X7651015Y-12812674D01*
X7651015Y-12812674D02*
X7641491Y-12803150D01*
X7641491Y-12803150D02*
X7631967Y-12784103D01*
X7631967Y-12784103D02*
X7631967Y-12774579D01*
X7631967Y-12774579D02*
X7641491Y-12755531D01*
X7641491Y-12755531D02*
X7651015Y-12746008D01*
X7651015Y-12746008D02*
X7670062Y-12736484D01*
X7670062Y-12736484D02*
X7708158Y-12736484D01*
X7708158Y-12736484D02*
X7727205Y-12746008D01*
X7727205Y-12746008D02*
X7736729Y-12755531D01*
X7736729Y-12755531D02*
X7746253Y-12774579D01*
X7746253Y-12774579D02*
X7746253Y-12784103D01*
X7746253Y-12784103D02*
X7736729Y-12803150D01*
X7736729Y-12803150D02*
X7727205Y-12812674D01*
X7727205Y-12812674D02*
X7708158Y-12822198D01*
X7708158Y-12822198D02*
X7670062Y-12822198D01*
X7670062Y-12822198D02*
X7651015Y-12831722D01*
X7651015Y-12831722D02*
X7641491Y-12841246D01*
X7641491Y-12841246D02*
X7631967Y-12860293D01*
X7631967Y-12860293D02*
X7631967Y-12898388D01*
X7631967Y-12898388D02*
X7641491Y-12917436D01*
X7641491Y-12917436D02*
X7651015Y-12926960D01*
X7651015Y-12926960D02*
X7670062Y-12936484D01*
X7670062Y-12936484D02*
X7708158Y-12936484D01*
X7708158Y-12936484D02*
X7727205Y-12926960D01*
X7727205Y-12926960D02*
X7736729Y-12917436D01*
X7736729Y-12917436D02*
X7746253Y-12898388D01*
X7746253Y-12898388D02*
X7746253Y-12860293D01*
X7746253Y-12860293D02*
X7736729Y-12841246D01*
X7736729Y-12841246D02*
X7727205Y-12831722D01*
X7727205Y-12831722D02*
X7708158Y-12822198D01*
X7870062Y-12736484D02*
X7889110Y-12736484D01*
X7889110Y-12736484D02*
X7908158Y-12746008D01*
X7908158Y-12746008D02*
X7917682Y-12755531D01*
X7917682Y-12755531D02*
X7927205Y-12774579D01*
X7927205Y-12774579D02*
X7936729Y-12812674D01*
X7936729Y-12812674D02*
X7936729Y-12860293D01*
X7936729Y-12860293D02*
X7927205Y-12898388D01*
X7927205Y-12898388D02*
X7917682Y-12917436D01*
X7917682Y-12917436D02*
X7908158Y-12926960D01*
X7908158Y-12926960D02*
X7889110Y-12936484D01*
X7889110Y-12936484D02*
X7870062Y-12936484D01*
X7870062Y-12936484D02*
X7851015Y-12926960D01*
X7851015Y-12926960D02*
X7841491Y-12917436D01*
X7841491Y-12917436D02*
X7831967Y-12898388D01*
X7831967Y-12898388D02*
X7822443Y-12860293D01*
X7822443Y-12860293D02*
X7822443Y-12812674D01*
X7822443Y-12812674D02*
X7831967Y-12774579D01*
X7831967Y-12774579D02*
X7841491Y-12755531D01*
X7841491Y-12755531D02*
X7851015Y-12746008D01*
X7851015Y-12746008D02*
X7870062Y-12736484D01*
X8060539Y-12736484D02*
X8079586Y-12736484D01*
X8079586Y-12736484D02*
X8098634Y-12746008D01*
X8098634Y-12746008D02*
X8108158Y-12755531D01*
X8108158Y-12755531D02*
X8117682Y-12774579D01*
X8117682Y-12774579D02*
X8127205Y-12812674D01*
X8127205Y-12812674D02*
X8127205Y-12860293D01*
X8127205Y-12860293D02*
X8117682Y-12898388D01*
X8117682Y-12898388D02*
X8108158Y-12917436D01*
X8108158Y-12917436D02*
X8098634Y-12926960D01*
X8098634Y-12926960D02*
X8079586Y-12936484D01*
X8079586Y-12936484D02*
X8060539Y-12936484D01*
X8060539Y-12936484D02*
X8041491Y-12926960D01*
X8041491Y-12926960D02*
X8031967Y-12917436D01*
X8031967Y-12917436D02*
X8022443Y-12898388D01*
X8022443Y-12898388D02*
X8012920Y-12860293D01*
X8012920Y-12860293D02*
X8012920Y-12812674D01*
X8012920Y-12812674D02*
X8022443Y-12774579D01*
X8022443Y-12774579D02*
X8031967Y-12755531D01*
X8031967Y-12755531D02*
X8041491Y-12746008D01*
X8041491Y-12746008D02*
X8060539Y-12736484D01*
X8212920Y-12936484D02*
X8212920Y-12803150D01*
X8212920Y-12822198D02*
X8222443Y-12812674D01*
X8222443Y-12812674D02*
X8241491Y-12803150D01*
X8241491Y-12803150D02*
X8270063Y-12803150D01*
X8270063Y-12803150D02*
X8289110Y-12812674D01*
X8289110Y-12812674D02*
X8298634Y-12831722D01*
X8298634Y-12831722D02*
X8298634Y-12936484D01*
X8298634Y-12831722D02*
X8308158Y-12812674D01*
X8308158Y-12812674D02*
X8327205Y-12803150D01*
X8327205Y-12803150D02*
X8355777Y-12803150D01*
X8355777Y-12803150D02*
X8374824Y-12812674D01*
X8374824Y-12812674D02*
X8384348Y-12831722D01*
X8384348Y-12831722D02*
X8384348Y-12936484D01*
X8479586Y-12936484D02*
X8479586Y-12803150D01*
X8479586Y-12822198D02*
X8489110Y-12812674D01*
X8489110Y-12812674D02*
X8508158Y-12803150D01*
X8508158Y-12803150D02*
X8536729Y-12803150D01*
X8536729Y-12803150D02*
X8555777Y-12812674D01*
X8555777Y-12812674D02*
X8565301Y-12831722D01*
X8565301Y-12831722D02*
X8565301Y-12936484D01*
X8565301Y-12831722D02*
X8574825Y-12812674D01*
X8574825Y-12812674D02*
X8593872Y-12803150D01*
X8593872Y-12803150D02*
X8622444Y-12803150D01*
X8622444Y-12803150D02*
X8641491Y-12812674D01*
X8641491Y-12812674D02*
X8651015Y-12831722D01*
X8651015Y-12831722D02*
X8651015Y-12936484D01*
X9041491Y-12726960D02*
X8870063Y-12984103D01*
X9298634Y-12736484D02*
X9317682Y-12736484D01*
X9317682Y-12736484D02*
X9336729Y-12746008D01*
X9336729Y-12746008D02*
X9346253Y-12755531D01*
X9346253Y-12755531D02*
X9355777Y-12774579D01*
X9355777Y-12774579D02*
X9365301Y-12812674D01*
X9365301Y-12812674D02*
X9365301Y-12860293D01*
X9365301Y-12860293D02*
X9355777Y-12898388D01*
X9355777Y-12898388D02*
X9346253Y-12917436D01*
X9346253Y-12917436D02*
X9336729Y-12926960D01*
X9336729Y-12926960D02*
X9317682Y-12936484D01*
X9317682Y-12936484D02*
X9298634Y-12936484D01*
X9298634Y-12936484D02*
X9279587Y-12926960D01*
X9279587Y-12926960D02*
X9270063Y-12917436D01*
X9270063Y-12917436D02*
X9260539Y-12898388D01*
X9260539Y-12898388D02*
X9251015Y-12860293D01*
X9251015Y-12860293D02*
X9251015Y-12812674D01*
X9251015Y-12812674D02*
X9260539Y-12774579D01*
X9260539Y-12774579D02*
X9270063Y-12755531D01*
X9270063Y-12755531D02*
X9279587Y-12746008D01*
X9279587Y-12746008D02*
X9298634Y-12736484D01*
X9451015Y-12917436D02*
X9460539Y-12926960D01*
X9460539Y-12926960D02*
X9451015Y-12936484D01*
X9451015Y-12936484D02*
X9441491Y-12926960D01*
X9441491Y-12926960D02*
X9451015Y-12917436D01*
X9451015Y-12917436D02*
X9451015Y-12936484D01*
X9584348Y-12736484D02*
X9603396Y-12736484D01*
X9603396Y-12736484D02*
X9622444Y-12746008D01*
X9622444Y-12746008D02*
X9631968Y-12755531D01*
X9631968Y-12755531D02*
X9641491Y-12774579D01*
X9641491Y-12774579D02*
X9651015Y-12812674D01*
X9651015Y-12812674D02*
X9651015Y-12860293D01*
X9651015Y-12860293D02*
X9641491Y-12898388D01*
X9641491Y-12898388D02*
X9631968Y-12917436D01*
X9631968Y-12917436D02*
X9622444Y-12926960D01*
X9622444Y-12926960D02*
X9603396Y-12936484D01*
X9603396Y-12936484D02*
X9584348Y-12936484D01*
X9584348Y-12936484D02*
X9565301Y-12926960D01*
X9565301Y-12926960D02*
X9555777Y-12917436D01*
X9555777Y-12917436D02*
X9546253Y-12898388D01*
X9546253Y-12898388D02*
X9536729Y-12860293D01*
X9536729Y-12860293D02*
X9536729Y-12812674D01*
X9536729Y-12812674D02*
X9546253Y-12774579D01*
X9546253Y-12774579D02*
X9555777Y-12755531D01*
X9555777Y-12755531D02*
X9565301Y-12746008D01*
X9565301Y-12746008D02*
X9584348Y-12736484D01*
X9717682Y-12736484D02*
X9841491Y-12736484D01*
X9841491Y-12736484D02*
X9774825Y-12812674D01*
X9774825Y-12812674D02*
X9803396Y-12812674D01*
X9803396Y-12812674D02*
X9822444Y-12822198D01*
X9822444Y-12822198D02*
X9831968Y-12831722D01*
X9831968Y-12831722D02*
X9841491Y-12850769D01*
X9841491Y-12850769D02*
X9841491Y-12898388D01*
X9841491Y-12898388D02*
X9831968Y-12917436D01*
X9831968Y-12917436D02*
X9822444Y-12926960D01*
X9822444Y-12926960D02*
X9803396Y-12936484D01*
X9803396Y-12936484D02*
X9746253Y-12936484D01*
X9746253Y-12936484D02*
X9727206Y-12926960D01*
X9727206Y-12926960D02*
X9717682Y-12917436D01*
X10031968Y-12936484D02*
X9917682Y-12936484D01*
X9974825Y-12936484D02*
X9974825Y-12736484D01*
X9974825Y-12736484D02*
X9955777Y-12765055D01*
X9955777Y-12765055D02*
X9936729Y-12784103D01*
X9936729Y-12784103D02*
X9917682Y-12793627D01*
X10212920Y-12736484D02*
X10117682Y-12736484D01*
X10117682Y-12736484D02*
X10108158Y-12831722D01*
X10108158Y-12831722D02*
X10117682Y-12822198D01*
X10117682Y-12822198D02*
X10136729Y-12812674D01*
X10136729Y-12812674D02*
X10184349Y-12812674D01*
X10184349Y-12812674D02*
X10203396Y-12822198D01*
X10203396Y-12822198D02*
X10212920Y-12831722D01*
X10212920Y-12831722D02*
X10222444Y-12850769D01*
X10222444Y-12850769D02*
X10222444Y-12898388D01*
X10222444Y-12898388D02*
X10212920Y-12917436D01*
X10212920Y-12917436D02*
X10203396Y-12926960D01*
X10203396Y-12926960D02*
X10184349Y-12936484D01*
X10184349Y-12936484D02*
X10136729Y-12936484D01*
X10136729Y-12936484D02*
X10117682Y-12926960D01*
X10117682Y-12926960D02*
X10108158Y-12917436D01*
X10298634Y-12736484D02*
X10298634Y-12774579D01*
X10374825Y-12736484D02*
X10374825Y-12774579D01*
X10670063Y-13012674D02*
X10660539Y-13003150D01*
X10660539Y-13003150D02*
X10641491Y-12974579D01*
X10641491Y-12974579D02*
X10631968Y-12955531D01*
X10631968Y-12955531D02*
X10622444Y-12926960D01*
X10622444Y-12926960D02*
X10612920Y-12879341D01*
X10612920Y-12879341D02*
X10612920Y-12841246D01*
X10612920Y-12841246D02*
X10622444Y-12793627D01*
X10622444Y-12793627D02*
X10631968Y-12765055D01*
X10631968Y-12765055D02*
X10641491Y-12746008D01*
X10641491Y-12746008D02*
X10660539Y-12717436D01*
X10660539Y-12717436D02*
X10670063Y-12707912D01*
X10755777Y-12936484D02*
X10793872Y-12936484D01*
X10793872Y-12936484D02*
X10812920Y-12926960D01*
X10812920Y-12926960D02*
X10822444Y-12917436D01*
X10822444Y-12917436D02*
X10841491Y-12888865D01*
X10841491Y-12888865D02*
X10851015Y-12850769D01*
X10851015Y-12850769D02*
X10851015Y-12774579D01*
X10851015Y-12774579D02*
X10841491Y-12755531D01*
X10841491Y-12755531D02*
X10831968Y-12746008D01*
X10831968Y-12746008D02*
X10812920Y-12736484D01*
X10812920Y-12736484D02*
X10774825Y-12736484D01*
X10774825Y-12736484D02*
X10755777Y-12746008D01*
X10755777Y-12746008D02*
X10746253Y-12755531D01*
X10746253Y-12755531D02*
X10736730Y-12774579D01*
X10736730Y-12774579D02*
X10736730Y-12822198D01*
X10736730Y-12822198D02*
X10746253Y-12841246D01*
X10746253Y-12841246D02*
X10755777Y-12850769D01*
X10755777Y-12850769D02*
X10774825Y-12860293D01*
X10774825Y-12860293D02*
X10812920Y-12860293D01*
X10812920Y-12860293D02*
X10831968Y-12850769D01*
X10831968Y-12850769D02*
X10841491Y-12841246D01*
X10841491Y-12841246D02*
X10851015Y-12822198D01*
X10917682Y-12736484D02*
X11051015Y-12736484D01*
X11051015Y-12736484D02*
X10965301Y-12936484D01*
X11279587Y-12936484D02*
X11279587Y-12736484D01*
X11365301Y-12936484D02*
X11365301Y-12831722D01*
X11365301Y-12831722D02*
X11355777Y-12812674D01*
X11355777Y-12812674D02*
X11336730Y-12803150D01*
X11336730Y-12803150D02*
X11308158Y-12803150D01*
X11308158Y-12803150D02*
X11289110Y-12812674D01*
X11289110Y-12812674D02*
X11279587Y-12822198D01*
X11489110Y-12936484D02*
X11470063Y-12926960D01*
X11470063Y-12926960D02*
X11460539Y-12917436D01*
X11460539Y-12917436D02*
X11451015Y-12898388D01*
X11451015Y-12898388D02*
X11451015Y-12841246D01*
X11451015Y-12841246D02*
X11460539Y-12822198D01*
X11460539Y-12822198D02*
X11470063Y-12812674D01*
X11470063Y-12812674D02*
X11489110Y-12803150D01*
X11489110Y-12803150D02*
X11517682Y-12803150D01*
X11517682Y-12803150D02*
X11536730Y-12812674D01*
X11536730Y-12812674D02*
X11546253Y-12822198D01*
X11546253Y-12822198D02*
X11555777Y-12841246D01*
X11555777Y-12841246D02*
X11555777Y-12898388D01*
X11555777Y-12898388D02*
X11546253Y-12917436D01*
X11546253Y-12917436D02*
X11536730Y-12926960D01*
X11536730Y-12926960D02*
X11517682Y-12936484D01*
X11517682Y-12936484D02*
X11489110Y-12936484D01*
X11670063Y-12936484D02*
X11651015Y-12926960D01*
X11651015Y-12926960D02*
X11641491Y-12907912D01*
X11641491Y-12907912D02*
X11641491Y-12736484D01*
X11822444Y-12926960D02*
X11803396Y-12936484D01*
X11803396Y-12936484D02*
X11765301Y-12936484D01*
X11765301Y-12936484D02*
X11746253Y-12926960D01*
X11746253Y-12926960D02*
X11736730Y-12907912D01*
X11736730Y-12907912D02*
X11736730Y-12831722D01*
X11736730Y-12831722D02*
X11746253Y-12812674D01*
X11746253Y-12812674D02*
X11765301Y-12803150D01*
X11765301Y-12803150D02*
X11803396Y-12803150D01*
X11803396Y-12803150D02*
X11822444Y-12812674D01*
X11822444Y-12812674D02*
X11831968Y-12831722D01*
X11831968Y-12831722D02*
X11831968Y-12850769D01*
X11831968Y-12850769D02*
X11736730Y-12869817D01*
X11908158Y-12926960D02*
X11927206Y-12936484D01*
X11927206Y-12936484D02*
X11965301Y-12936484D01*
X11965301Y-12936484D02*
X11984349Y-12926960D01*
X11984349Y-12926960D02*
X11993872Y-12907912D01*
X11993872Y-12907912D02*
X11993872Y-12898388D01*
X11993872Y-12898388D02*
X11984349Y-12879341D01*
X11984349Y-12879341D02*
X11965301Y-12869817D01*
X11965301Y-12869817D02*
X11936730Y-12869817D01*
X11936730Y-12869817D02*
X11917682Y-12860293D01*
X11917682Y-12860293D02*
X11908158Y-12841246D01*
X11908158Y-12841246D02*
X11908158Y-12831722D01*
X11908158Y-12831722D02*
X11917682Y-12812674D01*
X11917682Y-12812674D02*
X11936730Y-12803150D01*
X11936730Y-12803150D02*
X11965301Y-12803150D01*
X11965301Y-12803150D02*
X11984349Y-12812674D01*
X12060539Y-13012674D02*
X12070063Y-13003150D01*
X12070063Y-13003150D02*
X12089111Y-12974579D01*
X12089111Y-12974579D02*
X12098634Y-12955531D01*
X12098634Y-12955531D02*
X12108158Y-12926960D01*
X12108158Y-12926960D02*
X12117682Y-12879341D01*
X12117682Y-12879341D02*
X12117682Y-12841246D01*
X12117682Y-12841246D02*
X12108158Y-12793627D01*
X12108158Y-12793627D02*
X12098634Y-12765055D01*
X12098634Y-12765055D02*
X12089111Y-12746008D01*
X12089111Y-12746008D02*
X12070063Y-12717436D01*
X12070063Y-12717436D02*
X12060539Y-12707912D01*
D10*
X7095000Y-13109000D02*
G75*
G02*
X7013720Y-13109000I-40640J0D01*
G01*
X7013720Y-13109000D02*
G75*
G02*
X7095000Y-13109000I40640J0D01*
G01*
D11*
X7393872Y-13000484D02*
X7412920Y-13000484D01*
X7412920Y-13000484D02*
X7431967Y-13010008D01*
X7431967Y-13010008D02*
X7441491Y-13019531D01*
X7441491Y-13019531D02*
X7451015Y-13038579D01*
X7451015Y-13038579D02*
X7460539Y-13076674D01*
X7460539Y-13076674D02*
X7460539Y-13124293D01*
X7460539Y-13124293D02*
X7451015Y-13162388D01*
X7451015Y-13162388D02*
X7441491Y-13181436D01*
X7441491Y-13181436D02*
X7431967Y-13190960D01*
X7431967Y-13190960D02*
X7412920Y-13200484D01*
X7412920Y-13200484D02*
X7393872Y-13200484D01*
X7393872Y-13200484D02*
X7374824Y-13190960D01*
X7374824Y-13190960D02*
X7365301Y-13181436D01*
X7365301Y-13181436D02*
X7355777Y-13162388D01*
X7355777Y-13162388D02*
X7346253Y-13124293D01*
X7346253Y-13124293D02*
X7346253Y-13076674D01*
X7346253Y-13076674D02*
X7355777Y-13038579D01*
X7355777Y-13038579D02*
X7365301Y-13019531D01*
X7365301Y-13019531D02*
X7374824Y-13010008D01*
X7374824Y-13010008D02*
X7393872Y-13000484D01*
X7546253Y-13181436D02*
X7555777Y-13190960D01*
X7555777Y-13190960D02*
X7546253Y-13200484D01*
X7546253Y-13200484D02*
X7536729Y-13190960D01*
X7536729Y-13190960D02*
X7546253Y-13181436D01*
X7546253Y-13181436D02*
X7546253Y-13200484D01*
X7670062Y-13086198D02*
X7651015Y-13076674D01*
X7651015Y-13076674D02*
X7641491Y-13067150D01*
X7641491Y-13067150D02*
X7631967Y-13048103D01*
X7631967Y-13048103D02*
X7631967Y-13038579D01*
X7631967Y-13038579D02*
X7641491Y-13019531D01*
X7641491Y-13019531D02*
X7651015Y-13010008D01*
X7651015Y-13010008D02*
X7670062Y-13000484D01*
X7670062Y-13000484D02*
X7708158Y-13000484D01*
X7708158Y-13000484D02*
X7727205Y-13010008D01*
X7727205Y-13010008D02*
X7736729Y-13019531D01*
X7736729Y-13019531D02*
X7746253Y-13038579D01*
X7746253Y-13038579D02*
X7746253Y-13048103D01*
X7746253Y-13048103D02*
X7736729Y-13067150D01*
X7736729Y-13067150D02*
X7727205Y-13076674D01*
X7727205Y-13076674D02*
X7708158Y-13086198D01*
X7708158Y-13086198D02*
X7670062Y-13086198D01*
X7670062Y-13086198D02*
X7651015Y-13095722D01*
X7651015Y-13095722D02*
X7641491Y-13105246D01*
X7641491Y-13105246D02*
X7631967Y-13124293D01*
X7631967Y-13124293D02*
X7631967Y-13162388D01*
X7631967Y-13162388D02*
X7641491Y-13181436D01*
X7641491Y-13181436D02*
X7651015Y-13190960D01*
X7651015Y-13190960D02*
X7670062Y-13200484D01*
X7670062Y-13200484D02*
X7708158Y-13200484D01*
X7708158Y-13200484D02*
X7727205Y-13190960D01*
X7727205Y-13190960D02*
X7736729Y-13181436D01*
X7736729Y-13181436D02*
X7746253Y-13162388D01*
X7746253Y-13162388D02*
X7746253Y-13124293D01*
X7746253Y-13124293D02*
X7736729Y-13105246D01*
X7736729Y-13105246D02*
X7727205Y-13095722D01*
X7727205Y-13095722D02*
X7708158Y-13086198D01*
X7936729Y-13200484D02*
X7822443Y-13200484D01*
X7879586Y-13200484D02*
X7879586Y-13000484D01*
X7879586Y-13000484D02*
X7860539Y-13029055D01*
X7860539Y-13029055D02*
X7841491Y-13048103D01*
X7841491Y-13048103D02*
X7822443Y-13057627D01*
X8003396Y-13000484D02*
X8127205Y-13000484D01*
X8127205Y-13000484D02*
X8060539Y-13076674D01*
X8060539Y-13076674D02*
X8089110Y-13076674D01*
X8089110Y-13076674D02*
X8108158Y-13086198D01*
X8108158Y-13086198D02*
X8117682Y-13095722D01*
X8117682Y-13095722D02*
X8127205Y-13114769D01*
X8127205Y-13114769D02*
X8127205Y-13162388D01*
X8127205Y-13162388D02*
X8117682Y-13181436D01*
X8117682Y-13181436D02*
X8108158Y-13190960D01*
X8108158Y-13190960D02*
X8089110Y-13200484D01*
X8089110Y-13200484D02*
X8031967Y-13200484D01*
X8031967Y-13200484D02*
X8012920Y-13190960D01*
X8012920Y-13190960D02*
X8003396Y-13181436D01*
X8212920Y-13200484D02*
X8212920Y-13067150D01*
X8212920Y-13086198D02*
X8222443Y-13076674D01*
X8222443Y-13076674D02*
X8241491Y-13067150D01*
X8241491Y-13067150D02*
X8270063Y-13067150D01*
X8270063Y-13067150D02*
X8289110Y-13076674D01*
X8289110Y-13076674D02*
X8298634Y-13095722D01*
X8298634Y-13095722D02*
X8298634Y-13200484D01*
X8298634Y-13095722D02*
X8308158Y-13076674D01*
X8308158Y-13076674D02*
X8327205Y-13067150D01*
X8327205Y-13067150D02*
X8355777Y-13067150D01*
X8355777Y-13067150D02*
X8374824Y-13076674D01*
X8374824Y-13076674D02*
X8384348Y-13095722D01*
X8384348Y-13095722D02*
X8384348Y-13200484D01*
X8479586Y-13200484D02*
X8479586Y-13067150D01*
X8479586Y-13086198D02*
X8489110Y-13076674D01*
X8489110Y-13076674D02*
X8508158Y-13067150D01*
X8508158Y-13067150D02*
X8536729Y-13067150D01*
X8536729Y-13067150D02*
X8555777Y-13076674D01*
X8555777Y-13076674D02*
X8565301Y-13095722D01*
X8565301Y-13095722D02*
X8565301Y-13200484D01*
X8565301Y-13095722D02*
X8574825Y-13076674D01*
X8574825Y-13076674D02*
X8593872Y-13067150D01*
X8593872Y-13067150D02*
X8622444Y-13067150D01*
X8622444Y-13067150D02*
X8641491Y-13076674D01*
X8641491Y-13076674D02*
X8651015Y-13095722D01*
X8651015Y-13095722D02*
X8651015Y-13200484D01*
X9041491Y-12990960D02*
X8870063Y-13248103D01*
X9298634Y-13000484D02*
X9317682Y-13000484D01*
X9317682Y-13000484D02*
X9336729Y-13010008D01*
X9336729Y-13010008D02*
X9346253Y-13019531D01*
X9346253Y-13019531D02*
X9355777Y-13038579D01*
X9355777Y-13038579D02*
X9365301Y-13076674D01*
X9365301Y-13076674D02*
X9365301Y-13124293D01*
X9365301Y-13124293D02*
X9355777Y-13162388D01*
X9355777Y-13162388D02*
X9346253Y-13181436D01*
X9346253Y-13181436D02*
X9336729Y-13190960D01*
X9336729Y-13190960D02*
X9317682Y-13200484D01*
X9317682Y-13200484D02*
X9298634Y-13200484D01*
X9298634Y-13200484D02*
X9279587Y-13190960D01*
X9279587Y-13190960D02*
X9270063Y-13181436D01*
X9270063Y-13181436D02*
X9260539Y-13162388D01*
X9260539Y-13162388D02*
X9251015Y-13124293D01*
X9251015Y-13124293D02*
X9251015Y-13076674D01*
X9251015Y-13076674D02*
X9260539Y-13038579D01*
X9260539Y-13038579D02*
X9270063Y-13019531D01*
X9270063Y-13019531D02*
X9279587Y-13010008D01*
X9279587Y-13010008D02*
X9298634Y-13000484D01*
X9451015Y-13181436D02*
X9460539Y-13190960D01*
X9460539Y-13190960D02*
X9451015Y-13200484D01*
X9451015Y-13200484D02*
X9441491Y-13190960D01*
X9441491Y-13190960D02*
X9451015Y-13181436D01*
X9451015Y-13181436D02*
X9451015Y-13200484D01*
X9584348Y-13000484D02*
X9603396Y-13000484D01*
X9603396Y-13000484D02*
X9622444Y-13010008D01*
X9622444Y-13010008D02*
X9631968Y-13019531D01*
X9631968Y-13019531D02*
X9641491Y-13038579D01*
X9641491Y-13038579D02*
X9651015Y-13076674D01*
X9651015Y-13076674D02*
X9651015Y-13124293D01*
X9651015Y-13124293D02*
X9641491Y-13162388D01*
X9641491Y-13162388D02*
X9631968Y-13181436D01*
X9631968Y-13181436D02*
X9622444Y-13190960D01*
X9622444Y-13190960D02*
X9603396Y-13200484D01*
X9603396Y-13200484D02*
X9584348Y-13200484D01*
X9584348Y-13200484D02*
X9565301Y-13190960D01*
X9565301Y-13190960D02*
X9555777Y-13181436D01*
X9555777Y-13181436D02*
X9546253Y-13162388D01*
X9546253Y-13162388D02*
X9536729Y-13124293D01*
X9536729Y-13124293D02*
X9536729Y-13076674D01*
X9536729Y-13076674D02*
X9546253Y-13038579D01*
X9546253Y-13038579D02*
X9555777Y-13019531D01*
X9555777Y-13019531D02*
X9565301Y-13010008D01*
X9565301Y-13010008D02*
X9584348Y-13000484D01*
X9717682Y-13000484D02*
X9841491Y-13000484D01*
X9841491Y-13000484D02*
X9774825Y-13076674D01*
X9774825Y-13076674D02*
X9803396Y-13076674D01*
X9803396Y-13076674D02*
X9822444Y-13086198D01*
X9822444Y-13086198D02*
X9831968Y-13095722D01*
X9831968Y-13095722D02*
X9841491Y-13114769D01*
X9841491Y-13114769D02*
X9841491Y-13162388D01*
X9841491Y-13162388D02*
X9831968Y-13181436D01*
X9831968Y-13181436D02*
X9822444Y-13190960D01*
X9822444Y-13190960D02*
X9803396Y-13200484D01*
X9803396Y-13200484D02*
X9746253Y-13200484D01*
X9746253Y-13200484D02*
X9727206Y-13190960D01*
X9727206Y-13190960D02*
X9717682Y-13181436D01*
X9917682Y-13019531D02*
X9927206Y-13010008D01*
X9927206Y-13010008D02*
X9946253Y-13000484D01*
X9946253Y-13000484D02*
X9993872Y-13000484D01*
X9993872Y-13000484D02*
X10012920Y-13010008D01*
X10012920Y-13010008D02*
X10022444Y-13019531D01*
X10022444Y-13019531D02*
X10031968Y-13038579D01*
X10031968Y-13038579D02*
X10031968Y-13057627D01*
X10031968Y-13057627D02*
X10022444Y-13086198D01*
X10022444Y-13086198D02*
X9908158Y-13200484D01*
X9908158Y-13200484D02*
X10031968Y-13200484D01*
X10155777Y-13000484D02*
X10174825Y-13000484D01*
X10174825Y-13000484D02*
X10193872Y-13010008D01*
X10193872Y-13010008D02*
X10203396Y-13019531D01*
X10203396Y-13019531D02*
X10212920Y-13038579D01*
X10212920Y-13038579D02*
X10222444Y-13076674D01*
X10222444Y-13076674D02*
X10222444Y-13124293D01*
X10222444Y-13124293D02*
X10212920Y-13162388D01*
X10212920Y-13162388D02*
X10203396Y-13181436D01*
X10203396Y-13181436D02*
X10193872Y-13190960D01*
X10193872Y-13190960D02*
X10174825Y-13200484D01*
X10174825Y-13200484D02*
X10155777Y-13200484D01*
X10155777Y-13200484D02*
X10136729Y-13190960D01*
X10136729Y-13190960D02*
X10127206Y-13181436D01*
X10127206Y-13181436D02*
X10117682Y-13162388D01*
X10117682Y-13162388D02*
X10108158Y-13124293D01*
X10108158Y-13124293D02*
X10108158Y-13076674D01*
X10108158Y-13076674D02*
X10117682Y-13038579D01*
X10117682Y-13038579D02*
X10127206Y-13019531D01*
X10127206Y-13019531D02*
X10136729Y-13010008D01*
X10136729Y-13010008D02*
X10155777Y-13000484D01*
X10298634Y-13000484D02*
X10298634Y-13038579D01*
X10374825Y-13000484D02*
X10374825Y-13038579D01*
X10670063Y-13276674D02*
X10660539Y-13267150D01*
X10660539Y-13267150D02*
X10641491Y-13238579D01*
X10641491Y-13238579D02*
X10631968Y-13219531D01*
X10631968Y-13219531D02*
X10622444Y-13190960D01*
X10622444Y-13190960D02*
X10612920Y-13143341D01*
X10612920Y-13143341D02*
X10612920Y-13105246D01*
X10612920Y-13105246D02*
X10622444Y-13057627D01*
X10622444Y-13057627D02*
X10631968Y-13029055D01*
X10631968Y-13029055D02*
X10641491Y-13010008D01*
X10641491Y-13010008D02*
X10660539Y-12981436D01*
X10660539Y-12981436D02*
X10670063Y-12971912D01*
X10736730Y-13019531D02*
X10746253Y-13010008D01*
X10746253Y-13010008D02*
X10765301Y-13000484D01*
X10765301Y-13000484D02*
X10812920Y-13000484D01*
X10812920Y-13000484D02*
X10831968Y-13010008D01*
X10831968Y-13010008D02*
X10841491Y-13019531D01*
X10841491Y-13019531D02*
X10851015Y-13038579D01*
X10851015Y-13038579D02*
X10851015Y-13057627D01*
X10851015Y-13057627D02*
X10841491Y-13086198D01*
X10841491Y-13086198D02*
X10727206Y-13200484D01*
X10727206Y-13200484D02*
X10851015Y-13200484D01*
X11022444Y-13067150D02*
X11022444Y-13200484D01*
X10974825Y-12990960D02*
X10927206Y-13133817D01*
X10927206Y-13133817D02*
X11051015Y-13133817D01*
X11279587Y-13200484D02*
X11279587Y-13000484D01*
X11365301Y-13200484D02*
X11365301Y-13095722D01*
X11365301Y-13095722D02*
X11355777Y-13076674D01*
X11355777Y-13076674D02*
X11336730Y-13067150D01*
X11336730Y-13067150D02*
X11308158Y-13067150D01*
X11308158Y-13067150D02*
X11289110Y-13076674D01*
X11289110Y-13076674D02*
X11279587Y-13086198D01*
X11489110Y-13200484D02*
X11470063Y-13190960D01*
X11470063Y-13190960D02*
X11460539Y-13181436D01*
X11460539Y-13181436D02*
X11451015Y-13162388D01*
X11451015Y-13162388D02*
X11451015Y-13105246D01*
X11451015Y-13105246D02*
X11460539Y-13086198D01*
X11460539Y-13086198D02*
X11470063Y-13076674D01*
X11470063Y-13076674D02*
X11489110Y-13067150D01*
X11489110Y-13067150D02*
X11517682Y-13067150D01*
X11517682Y-13067150D02*
X11536730Y-13076674D01*
X11536730Y-13076674D02*
X11546253Y-13086198D01*
X11546253Y-13086198D02*
X11555777Y-13105246D01*
X11555777Y-13105246D02*
X11555777Y-13162388D01*
X11555777Y-13162388D02*
X11546253Y-13181436D01*
X11546253Y-13181436D02*
X11536730Y-13190960D01*
X11536730Y-13190960D02*
X11517682Y-13200484D01*
X11517682Y-13200484D02*
X11489110Y-13200484D01*
X11670063Y-13200484D02*
X11651015Y-13190960D01*
X11651015Y-13190960D02*
X11641491Y-13171912D01*
X11641491Y-13171912D02*
X11641491Y-13000484D01*
X11822444Y-13190960D02*
X11803396Y-13200484D01*
X11803396Y-13200484D02*
X11765301Y-13200484D01*
X11765301Y-13200484D02*
X11746253Y-13190960D01*
X11746253Y-13190960D02*
X11736730Y-13171912D01*
X11736730Y-13171912D02*
X11736730Y-13095722D01*
X11736730Y-13095722D02*
X11746253Y-13076674D01*
X11746253Y-13076674D02*
X11765301Y-13067150D01*
X11765301Y-13067150D02*
X11803396Y-13067150D01*
X11803396Y-13067150D02*
X11822444Y-13076674D01*
X11822444Y-13076674D02*
X11831968Y-13095722D01*
X11831968Y-13095722D02*
X11831968Y-13114769D01*
X11831968Y-13114769D02*
X11736730Y-13133817D01*
X11908158Y-13190960D02*
X11927206Y-13200484D01*
X11927206Y-13200484D02*
X11965301Y-13200484D01*
X11965301Y-13200484D02*
X11984349Y-13190960D01*
X11984349Y-13190960D02*
X11993872Y-13171912D01*
X11993872Y-13171912D02*
X11993872Y-13162388D01*
X11993872Y-13162388D02*
X11984349Y-13143341D01*
X11984349Y-13143341D02*
X11965301Y-13133817D01*
X11965301Y-13133817D02*
X11936730Y-13133817D01*
X11936730Y-13133817D02*
X11917682Y-13124293D01*
X11917682Y-13124293D02*
X11908158Y-13105246D01*
X11908158Y-13105246D02*
X11908158Y-13095722D01*
X11908158Y-13095722D02*
X11917682Y-13076674D01*
X11917682Y-13076674D02*
X11936730Y-13067150D01*
X11936730Y-13067150D02*
X11965301Y-13067150D01*
X11965301Y-13067150D02*
X11984349Y-13076674D01*
X12060539Y-13276674D02*
X12070063Y-13267150D01*
X12070063Y-13267150D02*
X12089111Y-13238579D01*
X12089111Y-13238579D02*
X12098634Y-13219531D01*
X12098634Y-13219531D02*
X12108158Y-13190960D01*
X12108158Y-13190960D02*
X12117682Y-13143341D01*
X12117682Y-13143341D02*
X12117682Y-13105246D01*
X12117682Y-13105246D02*
X12108158Y-13057627D01*
X12108158Y-13057627D02*
X12098634Y-13029055D01*
X12098634Y-13029055D02*
X12089111Y-13010008D01*
X12089111Y-13010008D02*
X12070063Y-12981436D01*
X12070063Y-12981436D02*
X12060539Y-12971912D01*
D10*
X7045000Y-13323000D02*
X7045000Y-13423000D01*
X6995000Y-13373000D02*
X7095000Y-13373000D01*
D11*
X7460539Y-13464484D02*
X7346253Y-13464484D01*
X7403396Y-13464484D02*
X7403396Y-13264484D01*
X7403396Y-13264484D02*
X7384348Y-13293055D01*
X7384348Y-13293055D02*
X7365301Y-13312103D01*
X7365301Y-13312103D02*
X7346253Y-13321627D01*
X7546253Y-13445436D02*
X7555777Y-13454960D01*
X7555777Y-13454960D02*
X7546253Y-13464484D01*
X7546253Y-13464484D02*
X7536729Y-13454960D01*
X7536729Y-13454960D02*
X7546253Y-13445436D01*
X7546253Y-13445436D02*
X7546253Y-13464484D01*
X7679586Y-13264484D02*
X7698634Y-13264484D01*
X7698634Y-13264484D02*
X7717682Y-13274008D01*
X7717682Y-13274008D02*
X7727205Y-13283531D01*
X7727205Y-13283531D02*
X7736729Y-13302579D01*
X7736729Y-13302579D02*
X7746253Y-13340674D01*
X7746253Y-13340674D02*
X7746253Y-13388293D01*
X7746253Y-13388293D02*
X7736729Y-13426388D01*
X7736729Y-13426388D02*
X7727205Y-13445436D01*
X7727205Y-13445436D02*
X7717682Y-13454960D01*
X7717682Y-13454960D02*
X7698634Y-13464484D01*
X7698634Y-13464484D02*
X7679586Y-13464484D01*
X7679586Y-13464484D02*
X7660539Y-13454960D01*
X7660539Y-13454960D02*
X7651015Y-13445436D01*
X7651015Y-13445436D02*
X7641491Y-13426388D01*
X7641491Y-13426388D02*
X7631967Y-13388293D01*
X7631967Y-13388293D02*
X7631967Y-13340674D01*
X7631967Y-13340674D02*
X7641491Y-13302579D01*
X7641491Y-13302579D02*
X7651015Y-13283531D01*
X7651015Y-13283531D02*
X7660539Y-13274008D01*
X7660539Y-13274008D02*
X7679586Y-13264484D01*
X7870062Y-13264484D02*
X7889110Y-13264484D01*
X7889110Y-13264484D02*
X7908158Y-13274008D01*
X7908158Y-13274008D02*
X7917682Y-13283531D01*
X7917682Y-13283531D02*
X7927205Y-13302579D01*
X7927205Y-13302579D02*
X7936729Y-13340674D01*
X7936729Y-13340674D02*
X7936729Y-13388293D01*
X7936729Y-13388293D02*
X7927205Y-13426388D01*
X7927205Y-13426388D02*
X7917682Y-13445436D01*
X7917682Y-13445436D02*
X7908158Y-13454960D01*
X7908158Y-13454960D02*
X7889110Y-13464484D01*
X7889110Y-13464484D02*
X7870062Y-13464484D01*
X7870062Y-13464484D02*
X7851015Y-13454960D01*
X7851015Y-13454960D02*
X7841491Y-13445436D01*
X7841491Y-13445436D02*
X7831967Y-13426388D01*
X7831967Y-13426388D02*
X7822443Y-13388293D01*
X7822443Y-13388293D02*
X7822443Y-13340674D01*
X7822443Y-13340674D02*
X7831967Y-13302579D01*
X7831967Y-13302579D02*
X7841491Y-13283531D01*
X7841491Y-13283531D02*
X7851015Y-13274008D01*
X7851015Y-13274008D02*
X7870062Y-13264484D01*
X8060539Y-13264484D02*
X8079586Y-13264484D01*
X8079586Y-13264484D02*
X8098634Y-13274008D01*
X8098634Y-13274008D02*
X8108158Y-13283531D01*
X8108158Y-13283531D02*
X8117682Y-13302579D01*
X8117682Y-13302579D02*
X8127205Y-13340674D01*
X8127205Y-13340674D02*
X8127205Y-13388293D01*
X8127205Y-13388293D02*
X8117682Y-13426388D01*
X8117682Y-13426388D02*
X8108158Y-13445436D01*
X8108158Y-13445436D02*
X8098634Y-13454960D01*
X8098634Y-13454960D02*
X8079586Y-13464484D01*
X8079586Y-13464484D02*
X8060539Y-13464484D01*
X8060539Y-13464484D02*
X8041491Y-13454960D01*
X8041491Y-13454960D02*
X8031967Y-13445436D01*
X8031967Y-13445436D02*
X8022443Y-13426388D01*
X8022443Y-13426388D02*
X8012920Y-13388293D01*
X8012920Y-13388293D02*
X8012920Y-13340674D01*
X8012920Y-13340674D02*
X8022443Y-13302579D01*
X8022443Y-13302579D02*
X8031967Y-13283531D01*
X8031967Y-13283531D02*
X8041491Y-13274008D01*
X8041491Y-13274008D02*
X8060539Y-13264484D01*
X8212920Y-13464484D02*
X8212920Y-13331150D01*
X8212920Y-13350198D02*
X8222443Y-13340674D01*
X8222443Y-13340674D02*
X8241491Y-13331150D01*
X8241491Y-13331150D02*
X8270063Y-13331150D01*
X8270063Y-13331150D02*
X8289110Y-13340674D01*
X8289110Y-13340674D02*
X8298634Y-13359722D01*
X8298634Y-13359722D02*
X8298634Y-13464484D01*
X8298634Y-13359722D02*
X8308158Y-13340674D01*
X8308158Y-13340674D02*
X8327205Y-13331150D01*
X8327205Y-13331150D02*
X8355777Y-13331150D01*
X8355777Y-13331150D02*
X8374824Y-13340674D01*
X8374824Y-13340674D02*
X8384348Y-13359722D01*
X8384348Y-13359722D02*
X8384348Y-13464484D01*
X8479586Y-13464484D02*
X8479586Y-13331150D01*
X8479586Y-13350198D02*
X8489110Y-13340674D01*
X8489110Y-13340674D02*
X8508158Y-13331150D01*
X8508158Y-13331150D02*
X8536729Y-13331150D01*
X8536729Y-13331150D02*
X8555777Y-13340674D01*
X8555777Y-13340674D02*
X8565301Y-13359722D01*
X8565301Y-13359722D02*
X8565301Y-13464484D01*
X8565301Y-13359722D02*
X8574825Y-13340674D01*
X8574825Y-13340674D02*
X8593872Y-13331150D01*
X8593872Y-13331150D02*
X8622444Y-13331150D01*
X8622444Y-13331150D02*
X8641491Y-13340674D01*
X8641491Y-13340674D02*
X8651015Y-13359722D01*
X8651015Y-13359722D02*
X8651015Y-13464484D01*
X9041491Y-13254960D02*
X8870063Y-13512103D01*
X9298634Y-13264484D02*
X9317682Y-13264484D01*
X9317682Y-13264484D02*
X9336729Y-13274008D01*
X9336729Y-13274008D02*
X9346253Y-13283531D01*
X9346253Y-13283531D02*
X9355777Y-13302579D01*
X9355777Y-13302579D02*
X9365301Y-13340674D01*
X9365301Y-13340674D02*
X9365301Y-13388293D01*
X9365301Y-13388293D02*
X9355777Y-13426388D01*
X9355777Y-13426388D02*
X9346253Y-13445436D01*
X9346253Y-13445436D02*
X9336729Y-13454960D01*
X9336729Y-13454960D02*
X9317682Y-13464484D01*
X9317682Y-13464484D02*
X9298634Y-13464484D01*
X9298634Y-13464484D02*
X9279587Y-13454960D01*
X9279587Y-13454960D02*
X9270063Y-13445436D01*
X9270063Y-13445436D02*
X9260539Y-13426388D01*
X9260539Y-13426388D02*
X9251015Y-13388293D01*
X9251015Y-13388293D02*
X9251015Y-13340674D01*
X9251015Y-13340674D02*
X9260539Y-13302579D01*
X9260539Y-13302579D02*
X9270063Y-13283531D01*
X9270063Y-13283531D02*
X9279587Y-13274008D01*
X9279587Y-13274008D02*
X9298634Y-13264484D01*
X9451015Y-13445436D02*
X9460539Y-13454960D01*
X9460539Y-13454960D02*
X9451015Y-13464484D01*
X9451015Y-13464484D02*
X9441491Y-13454960D01*
X9441491Y-13454960D02*
X9451015Y-13445436D01*
X9451015Y-13445436D02*
X9451015Y-13464484D01*
X9584348Y-13264484D02*
X9603396Y-13264484D01*
X9603396Y-13264484D02*
X9622444Y-13274008D01*
X9622444Y-13274008D02*
X9631968Y-13283531D01*
X9631968Y-13283531D02*
X9641491Y-13302579D01*
X9641491Y-13302579D02*
X9651015Y-13340674D01*
X9651015Y-13340674D02*
X9651015Y-13388293D01*
X9651015Y-13388293D02*
X9641491Y-13426388D01*
X9641491Y-13426388D02*
X9631968Y-13445436D01*
X9631968Y-13445436D02*
X9622444Y-13454960D01*
X9622444Y-13454960D02*
X9603396Y-13464484D01*
X9603396Y-13464484D02*
X9584348Y-13464484D01*
X9584348Y-13464484D02*
X9565301Y-13454960D01*
X9565301Y-13454960D02*
X9555777Y-13445436D01*
X9555777Y-13445436D02*
X9546253Y-13426388D01*
X9546253Y-13426388D02*
X9536729Y-13388293D01*
X9536729Y-13388293D02*
X9536729Y-13340674D01*
X9536729Y-13340674D02*
X9546253Y-13302579D01*
X9546253Y-13302579D02*
X9555777Y-13283531D01*
X9555777Y-13283531D02*
X9565301Y-13274008D01*
X9565301Y-13274008D02*
X9584348Y-13264484D01*
X9717682Y-13264484D02*
X9841491Y-13264484D01*
X9841491Y-13264484D02*
X9774825Y-13340674D01*
X9774825Y-13340674D02*
X9803396Y-13340674D01*
X9803396Y-13340674D02*
X9822444Y-13350198D01*
X9822444Y-13350198D02*
X9831968Y-13359722D01*
X9831968Y-13359722D02*
X9841491Y-13378769D01*
X9841491Y-13378769D02*
X9841491Y-13426388D01*
X9841491Y-13426388D02*
X9831968Y-13445436D01*
X9831968Y-13445436D02*
X9822444Y-13454960D01*
X9822444Y-13454960D02*
X9803396Y-13464484D01*
X9803396Y-13464484D02*
X9746253Y-13464484D01*
X9746253Y-13464484D02*
X9727206Y-13454960D01*
X9727206Y-13454960D02*
X9717682Y-13445436D01*
X9936729Y-13464484D02*
X9974825Y-13464484D01*
X9974825Y-13464484D02*
X9993872Y-13454960D01*
X9993872Y-13454960D02*
X10003396Y-13445436D01*
X10003396Y-13445436D02*
X10022444Y-13416865D01*
X10022444Y-13416865D02*
X10031968Y-13378769D01*
X10031968Y-13378769D02*
X10031968Y-13302579D01*
X10031968Y-13302579D02*
X10022444Y-13283531D01*
X10022444Y-13283531D02*
X10012920Y-13274008D01*
X10012920Y-13274008D02*
X9993872Y-13264484D01*
X9993872Y-13264484D02*
X9955777Y-13264484D01*
X9955777Y-13264484D02*
X9936729Y-13274008D01*
X9936729Y-13274008D02*
X9927206Y-13283531D01*
X9927206Y-13283531D02*
X9917682Y-13302579D01*
X9917682Y-13302579D02*
X9917682Y-13350198D01*
X9917682Y-13350198D02*
X9927206Y-13369246D01*
X9927206Y-13369246D02*
X9936729Y-13378769D01*
X9936729Y-13378769D02*
X9955777Y-13388293D01*
X9955777Y-13388293D02*
X9993872Y-13388293D01*
X9993872Y-13388293D02*
X10012920Y-13378769D01*
X10012920Y-13378769D02*
X10022444Y-13369246D01*
X10022444Y-13369246D02*
X10031968Y-13350198D01*
X10203396Y-13331150D02*
X10203396Y-13464484D01*
X10155777Y-13254960D02*
X10108158Y-13397817D01*
X10108158Y-13397817D02*
X10231968Y-13397817D01*
X10298634Y-13264484D02*
X10298634Y-13302579D01*
X10374825Y-13264484D02*
X10374825Y-13302579D01*
X10670063Y-13540674D02*
X10660539Y-13531150D01*
X10660539Y-13531150D02*
X10641491Y-13502579D01*
X10641491Y-13502579D02*
X10631968Y-13483531D01*
X10631968Y-13483531D02*
X10622444Y-13454960D01*
X10622444Y-13454960D02*
X10612920Y-13407341D01*
X10612920Y-13407341D02*
X10612920Y-13369246D01*
X10612920Y-13369246D02*
X10622444Y-13321627D01*
X10622444Y-13321627D02*
X10631968Y-13293055D01*
X10631968Y-13293055D02*
X10641491Y-13274008D01*
X10641491Y-13274008D02*
X10660539Y-13245436D01*
X10660539Y-13245436D02*
X10670063Y-13235912D01*
X10851015Y-13464484D02*
X10736730Y-13464484D01*
X10793872Y-13464484D02*
X10793872Y-13264484D01*
X10793872Y-13264484D02*
X10774825Y-13293055D01*
X10774825Y-13293055D02*
X10755777Y-13312103D01*
X10755777Y-13312103D02*
X10736730Y-13321627D01*
X10946253Y-13464484D02*
X10984349Y-13464484D01*
X10984349Y-13464484D02*
X11003396Y-13454960D01*
X11003396Y-13454960D02*
X11012920Y-13445436D01*
X11012920Y-13445436D02*
X11031968Y-13416865D01*
X11031968Y-13416865D02*
X11041491Y-13378769D01*
X11041491Y-13378769D02*
X11041491Y-13302579D01*
X11041491Y-13302579D02*
X11031968Y-13283531D01*
X11031968Y-13283531D02*
X11022444Y-13274008D01*
X11022444Y-13274008D02*
X11003396Y-13264484D01*
X11003396Y-13264484D02*
X10965301Y-13264484D01*
X10965301Y-13264484D02*
X10946253Y-13274008D01*
X10946253Y-13274008D02*
X10936730Y-13283531D01*
X10936730Y-13283531D02*
X10927206Y-13302579D01*
X10927206Y-13302579D02*
X10927206Y-13350198D01*
X10927206Y-13350198D02*
X10936730Y-13369246D01*
X10936730Y-13369246D02*
X10946253Y-13378769D01*
X10946253Y-13378769D02*
X10965301Y-13388293D01*
X10965301Y-13388293D02*
X11003396Y-13388293D01*
X11003396Y-13388293D02*
X11022444Y-13378769D01*
X11022444Y-13378769D02*
X11031968Y-13369246D01*
X11031968Y-13369246D02*
X11041491Y-13350198D01*
X11279587Y-13464484D02*
X11279587Y-13264484D01*
X11365301Y-13464484D02*
X11365301Y-13359722D01*
X11365301Y-13359722D02*
X11355777Y-13340674D01*
X11355777Y-13340674D02*
X11336730Y-13331150D01*
X11336730Y-13331150D02*
X11308158Y-13331150D01*
X11308158Y-13331150D02*
X11289110Y-13340674D01*
X11289110Y-13340674D02*
X11279587Y-13350198D01*
X11489110Y-13464484D02*
X11470063Y-13454960D01*
X11470063Y-13454960D02*
X11460539Y-13445436D01*
X11460539Y-13445436D02*
X11451015Y-13426388D01*
X11451015Y-13426388D02*
X11451015Y-13369246D01*
X11451015Y-13369246D02*
X11460539Y-13350198D01*
X11460539Y-13350198D02*
X11470063Y-13340674D01*
X11470063Y-13340674D02*
X11489110Y-13331150D01*
X11489110Y-13331150D02*
X11517682Y-13331150D01*
X11517682Y-13331150D02*
X11536730Y-13340674D01*
X11536730Y-13340674D02*
X11546253Y-13350198D01*
X11546253Y-13350198D02*
X11555777Y-13369246D01*
X11555777Y-13369246D02*
X11555777Y-13426388D01*
X11555777Y-13426388D02*
X11546253Y-13445436D01*
X11546253Y-13445436D02*
X11536730Y-13454960D01*
X11536730Y-13454960D02*
X11517682Y-13464484D01*
X11517682Y-13464484D02*
X11489110Y-13464484D01*
X11670063Y-13464484D02*
X11651015Y-13454960D01*
X11651015Y-13454960D02*
X11641491Y-13435912D01*
X11641491Y-13435912D02*
X11641491Y-13264484D01*
X11822444Y-13454960D02*
X11803396Y-13464484D01*
X11803396Y-13464484D02*
X11765301Y-13464484D01*
X11765301Y-13464484D02*
X11746253Y-13454960D01*
X11746253Y-13454960D02*
X11736730Y-13435912D01*
X11736730Y-13435912D02*
X11736730Y-13359722D01*
X11736730Y-13359722D02*
X11746253Y-13340674D01*
X11746253Y-13340674D02*
X11765301Y-13331150D01*
X11765301Y-13331150D02*
X11803396Y-13331150D01*
X11803396Y-13331150D02*
X11822444Y-13340674D01*
X11822444Y-13340674D02*
X11831968Y-13359722D01*
X11831968Y-13359722D02*
X11831968Y-13378769D01*
X11831968Y-13378769D02*
X11736730Y-13397817D01*
X11908158Y-13454960D02*
X11927206Y-13464484D01*
X11927206Y-13464484D02*
X11965301Y-13464484D01*
X11965301Y-13464484D02*
X11984349Y-13454960D01*
X11984349Y-13454960D02*
X11993872Y-13435912D01*
X11993872Y-13435912D02*
X11993872Y-13426388D01*
X11993872Y-13426388D02*
X11984349Y-13407341D01*
X11984349Y-13407341D02*
X11965301Y-13397817D01*
X11965301Y-13397817D02*
X11936730Y-13397817D01*
X11936730Y-13397817D02*
X11917682Y-13388293D01*
X11917682Y-13388293D02*
X11908158Y-13369246D01*
X11908158Y-13369246D02*
X11908158Y-13359722D01*
X11908158Y-13359722D02*
X11917682Y-13340674D01*
X11917682Y-13340674D02*
X11936730Y-13331150D01*
X11936730Y-13331150D02*
X11965301Y-13331150D01*
X11965301Y-13331150D02*
X11984349Y-13340674D01*
X12060539Y-13540674D02*
X12070063Y-13531150D01*
X12070063Y-13531150D02*
X12089111Y-13502579D01*
X12089111Y-13502579D02*
X12098634Y-13483531D01*
X12098634Y-13483531D02*
X12108158Y-13454960D01*
X12108158Y-13454960D02*
X12117682Y-13407341D01*
X12117682Y-13407341D02*
X12117682Y-13369246D01*
X12117682Y-13369246D02*
X12108158Y-13321627D01*
X12108158Y-13321627D02*
X12098634Y-13293055D01*
X12098634Y-13293055D02*
X12089111Y-13274008D01*
X12089111Y-13274008D02*
X12070063Y-13245436D01*
X12070063Y-13245436D02*
X12060539Y-13235912D01*
D12*
X7080063Y-13673063D02*
X7080063Y-13600937D01*
X7007937Y-13600937D01*
X7007937Y-13673063D01*
X7080063Y-13673063D01*
D11*
X7460539Y-13728484D02*
X7346253Y-13728484D01*
X7403396Y-13728484D02*
X7403396Y-13528484D01*
X7403396Y-13528484D02*
X7384348Y-13557055D01*
X7384348Y-13557055D02*
X7365301Y-13576103D01*
X7365301Y-13576103D02*
X7346253Y-13585627D01*
X7546253Y-13709436D02*
X7555777Y-13718960D01*
X7555777Y-13718960D02*
X7546253Y-13728484D01*
X7546253Y-13728484D02*
X7536729Y-13718960D01*
X7536729Y-13718960D02*
X7546253Y-13709436D01*
X7546253Y-13709436D02*
X7546253Y-13728484D01*
X7679586Y-13528484D02*
X7698634Y-13528484D01*
X7698634Y-13528484D02*
X7717682Y-13538008D01*
X7717682Y-13538008D02*
X7727205Y-13547531D01*
X7727205Y-13547531D02*
X7736729Y-13566579D01*
X7736729Y-13566579D02*
X7746253Y-13604674D01*
X7746253Y-13604674D02*
X7746253Y-13652293D01*
X7746253Y-13652293D02*
X7736729Y-13690388D01*
X7736729Y-13690388D02*
X7727205Y-13709436D01*
X7727205Y-13709436D02*
X7717682Y-13718960D01*
X7717682Y-13718960D02*
X7698634Y-13728484D01*
X7698634Y-13728484D02*
X7679586Y-13728484D01*
X7679586Y-13728484D02*
X7660539Y-13718960D01*
X7660539Y-13718960D02*
X7651015Y-13709436D01*
X7651015Y-13709436D02*
X7641491Y-13690388D01*
X7641491Y-13690388D02*
X7631967Y-13652293D01*
X7631967Y-13652293D02*
X7631967Y-13604674D01*
X7631967Y-13604674D02*
X7641491Y-13566579D01*
X7641491Y-13566579D02*
X7651015Y-13547531D01*
X7651015Y-13547531D02*
X7660539Y-13538008D01*
X7660539Y-13538008D02*
X7679586Y-13528484D01*
X7822443Y-13547531D02*
X7831967Y-13538008D01*
X7831967Y-13538008D02*
X7851015Y-13528484D01*
X7851015Y-13528484D02*
X7898634Y-13528484D01*
X7898634Y-13528484D02*
X7917682Y-13538008D01*
X7917682Y-13538008D02*
X7927205Y-13547531D01*
X7927205Y-13547531D02*
X7936729Y-13566579D01*
X7936729Y-13566579D02*
X7936729Y-13585627D01*
X7936729Y-13585627D02*
X7927205Y-13614198D01*
X7927205Y-13614198D02*
X7812920Y-13728484D01*
X7812920Y-13728484D02*
X7936729Y-13728484D01*
X8060539Y-13528484D02*
X8079586Y-13528484D01*
X8079586Y-13528484D02*
X8098634Y-13538008D01*
X8098634Y-13538008D02*
X8108158Y-13547531D01*
X8108158Y-13547531D02*
X8117682Y-13566579D01*
X8117682Y-13566579D02*
X8127205Y-13604674D01*
X8127205Y-13604674D02*
X8127205Y-13652293D01*
X8127205Y-13652293D02*
X8117682Y-13690388D01*
X8117682Y-13690388D02*
X8108158Y-13709436D01*
X8108158Y-13709436D02*
X8098634Y-13718960D01*
X8098634Y-13718960D02*
X8079586Y-13728484D01*
X8079586Y-13728484D02*
X8060539Y-13728484D01*
X8060539Y-13728484D02*
X8041491Y-13718960D01*
X8041491Y-13718960D02*
X8031967Y-13709436D01*
X8031967Y-13709436D02*
X8022443Y-13690388D01*
X8022443Y-13690388D02*
X8012920Y-13652293D01*
X8012920Y-13652293D02*
X8012920Y-13604674D01*
X8012920Y-13604674D02*
X8022443Y-13566579D01*
X8022443Y-13566579D02*
X8031967Y-13547531D01*
X8031967Y-13547531D02*
X8041491Y-13538008D01*
X8041491Y-13538008D02*
X8060539Y-13528484D01*
X8212920Y-13728484D02*
X8212920Y-13595150D01*
X8212920Y-13614198D02*
X8222443Y-13604674D01*
X8222443Y-13604674D02*
X8241491Y-13595150D01*
X8241491Y-13595150D02*
X8270063Y-13595150D01*
X8270063Y-13595150D02*
X8289110Y-13604674D01*
X8289110Y-13604674D02*
X8298634Y-13623722D01*
X8298634Y-13623722D02*
X8298634Y-13728484D01*
X8298634Y-13623722D02*
X8308158Y-13604674D01*
X8308158Y-13604674D02*
X8327205Y-13595150D01*
X8327205Y-13595150D02*
X8355777Y-13595150D01*
X8355777Y-13595150D02*
X8374824Y-13604674D01*
X8374824Y-13604674D02*
X8384348Y-13623722D01*
X8384348Y-13623722D02*
X8384348Y-13728484D01*
X8479586Y-13728484D02*
X8479586Y-13595150D01*
X8479586Y-13614198D02*
X8489110Y-13604674D01*
X8489110Y-13604674D02*
X8508158Y-13595150D01*
X8508158Y-13595150D02*
X8536729Y-13595150D01*
X8536729Y-13595150D02*
X8555777Y-13604674D01*
X8555777Y-13604674D02*
X8565301Y-13623722D01*
X8565301Y-13623722D02*
X8565301Y-13728484D01*
X8565301Y-13623722D02*
X8574825Y-13604674D01*
X8574825Y-13604674D02*
X8593872Y-13595150D01*
X8593872Y-13595150D02*
X8622444Y-13595150D01*
X8622444Y-13595150D02*
X8641491Y-13604674D01*
X8641491Y-13604674D02*
X8651015Y-13623722D01*
X8651015Y-13623722D02*
X8651015Y-13728484D01*
X9041491Y-13518960D02*
X8870063Y-13776103D01*
X9298634Y-13528484D02*
X9317682Y-13528484D01*
X9317682Y-13528484D02*
X9336729Y-13538008D01*
X9336729Y-13538008D02*
X9346253Y-13547531D01*
X9346253Y-13547531D02*
X9355777Y-13566579D01*
X9355777Y-13566579D02*
X9365301Y-13604674D01*
X9365301Y-13604674D02*
X9365301Y-13652293D01*
X9365301Y-13652293D02*
X9355777Y-13690388D01*
X9355777Y-13690388D02*
X9346253Y-13709436D01*
X9346253Y-13709436D02*
X9336729Y-13718960D01*
X9336729Y-13718960D02*
X9317682Y-13728484D01*
X9317682Y-13728484D02*
X9298634Y-13728484D01*
X9298634Y-13728484D02*
X9279587Y-13718960D01*
X9279587Y-13718960D02*
X9270063Y-13709436D01*
X9270063Y-13709436D02*
X9260539Y-13690388D01*
X9260539Y-13690388D02*
X9251015Y-13652293D01*
X9251015Y-13652293D02*
X9251015Y-13604674D01*
X9251015Y-13604674D02*
X9260539Y-13566579D01*
X9260539Y-13566579D02*
X9270063Y-13547531D01*
X9270063Y-13547531D02*
X9279587Y-13538008D01*
X9279587Y-13538008D02*
X9298634Y-13528484D01*
X9451015Y-13709436D02*
X9460539Y-13718960D01*
X9460539Y-13718960D02*
X9451015Y-13728484D01*
X9451015Y-13728484D02*
X9441491Y-13718960D01*
X9441491Y-13718960D02*
X9451015Y-13709436D01*
X9451015Y-13709436D02*
X9451015Y-13728484D01*
X9584348Y-13528484D02*
X9603396Y-13528484D01*
X9603396Y-13528484D02*
X9622444Y-13538008D01*
X9622444Y-13538008D02*
X9631968Y-13547531D01*
X9631968Y-13547531D02*
X9641491Y-13566579D01*
X9641491Y-13566579D02*
X9651015Y-13604674D01*
X9651015Y-13604674D02*
X9651015Y-13652293D01*
X9651015Y-13652293D02*
X9641491Y-13690388D01*
X9641491Y-13690388D02*
X9631968Y-13709436D01*
X9631968Y-13709436D02*
X9622444Y-13718960D01*
X9622444Y-13718960D02*
X9603396Y-13728484D01*
X9603396Y-13728484D02*
X9584348Y-13728484D01*
X9584348Y-13728484D02*
X9565301Y-13718960D01*
X9565301Y-13718960D02*
X9555777Y-13709436D01*
X9555777Y-13709436D02*
X9546253Y-13690388D01*
X9546253Y-13690388D02*
X9536729Y-13652293D01*
X9536729Y-13652293D02*
X9536729Y-13604674D01*
X9536729Y-13604674D02*
X9546253Y-13566579D01*
X9546253Y-13566579D02*
X9555777Y-13547531D01*
X9555777Y-13547531D02*
X9565301Y-13538008D01*
X9565301Y-13538008D02*
X9584348Y-13528484D01*
X9822444Y-13595150D02*
X9822444Y-13728484D01*
X9774825Y-13518960D02*
X9727206Y-13661817D01*
X9727206Y-13661817D02*
X9851015Y-13661817D01*
X9965301Y-13528484D02*
X9984349Y-13528484D01*
X9984349Y-13528484D02*
X10003396Y-13538008D01*
X10003396Y-13538008D02*
X10012920Y-13547531D01*
X10012920Y-13547531D02*
X10022444Y-13566579D01*
X10022444Y-13566579D02*
X10031968Y-13604674D01*
X10031968Y-13604674D02*
X10031968Y-13652293D01*
X10031968Y-13652293D02*
X10022444Y-13690388D01*
X10022444Y-13690388D02*
X10012920Y-13709436D01*
X10012920Y-13709436D02*
X10003396Y-13718960D01*
X10003396Y-13718960D02*
X9984349Y-13728484D01*
X9984349Y-13728484D02*
X9965301Y-13728484D01*
X9965301Y-13728484D02*
X9946253Y-13718960D01*
X9946253Y-13718960D02*
X9936729Y-13709436D01*
X9936729Y-13709436D02*
X9927206Y-13690388D01*
X9927206Y-13690388D02*
X9917682Y-13652293D01*
X9917682Y-13652293D02*
X9917682Y-13604674D01*
X9917682Y-13604674D02*
X9927206Y-13566579D01*
X9927206Y-13566579D02*
X9936729Y-13547531D01*
X9936729Y-13547531D02*
X9946253Y-13538008D01*
X9946253Y-13538008D02*
X9965301Y-13528484D01*
X10108158Y-13547531D02*
X10117682Y-13538008D01*
X10117682Y-13538008D02*
X10136729Y-13528484D01*
X10136729Y-13528484D02*
X10184349Y-13528484D01*
X10184349Y-13528484D02*
X10203396Y-13538008D01*
X10203396Y-13538008D02*
X10212920Y-13547531D01*
X10212920Y-13547531D02*
X10222444Y-13566579D01*
X10222444Y-13566579D02*
X10222444Y-13585627D01*
X10222444Y-13585627D02*
X10212920Y-13614198D01*
X10212920Y-13614198D02*
X10098634Y-13728484D01*
X10098634Y-13728484D02*
X10222444Y-13728484D01*
X10298634Y-13528484D02*
X10298634Y-13566579D01*
X10374825Y-13528484D02*
X10374825Y-13566579D01*
X10670063Y-13804674D02*
X10660539Y-13795150D01*
X10660539Y-13795150D02*
X10641491Y-13766579D01*
X10641491Y-13766579D02*
X10631968Y-13747531D01*
X10631968Y-13747531D02*
X10622444Y-13718960D01*
X10622444Y-13718960D02*
X10612920Y-13671341D01*
X10612920Y-13671341D02*
X10612920Y-13633246D01*
X10612920Y-13633246D02*
X10622444Y-13585627D01*
X10622444Y-13585627D02*
X10631968Y-13557055D01*
X10631968Y-13557055D02*
X10641491Y-13538008D01*
X10641491Y-13538008D02*
X10660539Y-13509436D01*
X10660539Y-13509436D02*
X10670063Y-13499912D01*
X10831968Y-13595150D02*
X10831968Y-13728484D01*
X10784349Y-13518960D02*
X10736730Y-13661817D01*
X10736730Y-13661817D02*
X10860539Y-13661817D01*
X10917682Y-13528484D02*
X11041491Y-13528484D01*
X11041491Y-13528484D02*
X10974825Y-13604674D01*
X10974825Y-13604674D02*
X11003396Y-13604674D01*
X11003396Y-13604674D02*
X11022444Y-13614198D01*
X11022444Y-13614198D02*
X11031968Y-13623722D01*
X11031968Y-13623722D02*
X11041491Y-13642769D01*
X11041491Y-13642769D02*
X11041491Y-13690388D01*
X11041491Y-13690388D02*
X11031968Y-13709436D01*
X11031968Y-13709436D02*
X11022444Y-13718960D01*
X11022444Y-13718960D02*
X11003396Y-13728484D01*
X11003396Y-13728484D02*
X10946253Y-13728484D01*
X10946253Y-13728484D02*
X10927206Y-13718960D01*
X10927206Y-13718960D02*
X10917682Y-13709436D01*
X11279587Y-13728484D02*
X11279587Y-13528484D01*
X11365301Y-13728484D02*
X11365301Y-13623722D01*
X11365301Y-13623722D02*
X11355777Y-13604674D01*
X11355777Y-13604674D02*
X11336730Y-13595150D01*
X11336730Y-13595150D02*
X11308158Y-13595150D01*
X11308158Y-13595150D02*
X11289110Y-13604674D01*
X11289110Y-13604674D02*
X11279587Y-13614198D01*
X11489110Y-13728484D02*
X11470063Y-13718960D01*
X11470063Y-13718960D02*
X11460539Y-13709436D01*
X11460539Y-13709436D02*
X11451015Y-13690388D01*
X11451015Y-13690388D02*
X11451015Y-13633246D01*
X11451015Y-13633246D02*
X11460539Y-13614198D01*
X11460539Y-13614198D02*
X11470063Y-13604674D01*
X11470063Y-13604674D02*
X11489110Y-13595150D01*
X11489110Y-13595150D02*
X11517682Y-13595150D01*
X11517682Y-13595150D02*
X11536730Y-13604674D01*
X11536730Y-13604674D02*
X11546253Y-13614198D01*
X11546253Y-13614198D02*
X11555777Y-13633246D01*
X11555777Y-13633246D02*
X11555777Y-13690388D01*
X11555777Y-13690388D02*
X11546253Y-13709436D01*
X11546253Y-13709436D02*
X11536730Y-13718960D01*
X11536730Y-13718960D02*
X11517682Y-13728484D01*
X11517682Y-13728484D02*
X11489110Y-13728484D01*
X11670063Y-13728484D02*
X11651015Y-13718960D01*
X11651015Y-13718960D02*
X11641491Y-13699912D01*
X11641491Y-13699912D02*
X11641491Y-13528484D01*
X11822444Y-13718960D02*
X11803396Y-13728484D01*
X11803396Y-13728484D02*
X11765301Y-13728484D01*
X11765301Y-13728484D02*
X11746253Y-13718960D01*
X11746253Y-13718960D02*
X11736730Y-13699912D01*
X11736730Y-13699912D02*
X11736730Y-13623722D01*
X11736730Y-13623722D02*
X11746253Y-13604674D01*
X11746253Y-13604674D02*
X11765301Y-13595150D01*
X11765301Y-13595150D02*
X11803396Y-13595150D01*
X11803396Y-13595150D02*
X11822444Y-13604674D01*
X11822444Y-13604674D02*
X11831968Y-13623722D01*
X11831968Y-13623722D02*
X11831968Y-13642769D01*
X11831968Y-13642769D02*
X11736730Y-13661817D01*
X11908158Y-13718960D02*
X11927206Y-13728484D01*
X11927206Y-13728484D02*
X11965301Y-13728484D01*
X11965301Y-13728484D02*
X11984349Y-13718960D01*
X11984349Y-13718960D02*
X11993872Y-13699912D01*
X11993872Y-13699912D02*
X11993872Y-13690388D01*
X11993872Y-13690388D02*
X11984349Y-13671341D01*
X11984349Y-13671341D02*
X11965301Y-13661817D01*
X11965301Y-13661817D02*
X11936730Y-13661817D01*
X11936730Y-13661817D02*
X11917682Y-13652293D01*
X11917682Y-13652293D02*
X11908158Y-13633246D01*
X11908158Y-13633246D02*
X11908158Y-13623722D01*
X11908158Y-13623722D02*
X11917682Y-13604674D01*
X11917682Y-13604674D02*
X11936730Y-13595150D01*
X11936730Y-13595150D02*
X11965301Y-13595150D01*
X11965301Y-13595150D02*
X11984349Y-13604674D01*
X12060539Y-13804674D02*
X12070063Y-13795150D01*
X12070063Y-13795150D02*
X12089111Y-13766579D01*
X12089111Y-13766579D02*
X12098634Y-13747531D01*
X12098634Y-13747531D02*
X12108158Y-13718960D01*
X12108158Y-13718960D02*
X12117682Y-13671341D01*
X12117682Y-13671341D02*
X12117682Y-13633246D01*
X12117682Y-13633246D02*
X12108158Y-13585627D01*
X12108158Y-13585627D02*
X12098634Y-13557055D01*
X12098634Y-13557055D02*
X12089111Y-13538008D01*
X12089111Y-13538008D02*
X12070063Y-13509436D01*
X12070063Y-13509436D02*
X12060539Y-13499912D01*
D13*
X7040000Y-13956000D02*
X7095000Y-13901000D01*
X7040000Y-13846000D01*
X6985000Y-13901000D01*
X7040000Y-13956000D01*
D11*
X7460539Y-13992484D02*
X7346253Y-13992484D01*
X7403396Y-13992484D02*
X7403396Y-13792484D01*
X7403396Y-13792484D02*
X7384348Y-13821055D01*
X7384348Y-13821055D02*
X7365301Y-13840103D01*
X7365301Y-13840103D02*
X7346253Y-13849627D01*
X7546253Y-13973436D02*
X7555777Y-13982960D01*
X7555777Y-13982960D02*
X7546253Y-13992484D01*
X7546253Y-13992484D02*
X7536729Y-13982960D01*
X7536729Y-13982960D02*
X7546253Y-13973436D01*
X7546253Y-13973436D02*
X7546253Y-13992484D01*
X7746253Y-13992484D02*
X7631967Y-13992484D01*
X7689110Y-13992484D02*
X7689110Y-13792484D01*
X7689110Y-13792484D02*
X7670062Y-13821055D01*
X7670062Y-13821055D02*
X7651015Y-13840103D01*
X7651015Y-13840103D02*
X7631967Y-13849627D01*
X7870062Y-13792484D02*
X7889110Y-13792484D01*
X7889110Y-13792484D02*
X7908158Y-13802008D01*
X7908158Y-13802008D02*
X7917682Y-13811531D01*
X7917682Y-13811531D02*
X7927205Y-13830579D01*
X7927205Y-13830579D02*
X7936729Y-13868674D01*
X7936729Y-13868674D02*
X7936729Y-13916293D01*
X7936729Y-13916293D02*
X7927205Y-13954388D01*
X7927205Y-13954388D02*
X7917682Y-13973436D01*
X7917682Y-13973436D02*
X7908158Y-13982960D01*
X7908158Y-13982960D02*
X7889110Y-13992484D01*
X7889110Y-13992484D02*
X7870062Y-13992484D01*
X7870062Y-13992484D02*
X7851015Y-13982960D01*
X7851015Y-13982960D02*
X7841491Y-13973436D01*
X7841491Y-13973436D02*
X7831967Y-13954388D01*
X7831967Y-13954388D02*
X7822443Y-13916293D01*
X7822443Y-13916293D02*
X7822443Y-13868674D01*
X7822443Y-13868674D02*
X7831967Y-13830579D01*
X7831967Y-13830579D02*
X7841491Y-13811531D01*
X7841491Y-13811531D02*
X7851015Y-13802008D01*
X7851015Y-13802008D02*
X7870062Y-13792484D01*
X8060539Y-13792484D02*
X8079586Y-13792484D01*
X8079586Y-13792484D02*
X8098634Y-13802008D01*
X8098634Y-13802008D02*
X8108158Y-13811531D01*
X8108158Y-13811531D02*
X8117682Y-13830579D01*
X8117682Y-13830579D02*
X8127205Y-13868674D01*
X8127205Y-13868674D02*
X8127205Y-13916293D01*
X8127205Y-13916293D02*
X8117682Y-13954388D01*
X8117682Y-13954388D02*
X8108158Y-13973436D01*
X8108158Y-13973436D02*
X8098634Y-13982960D01*
X8098634Y-13982960D02*
X8079586Y-13992484D01*
X8079586Y-13992484D02*
X8060539Y-13992484D01*
X8060539Y-13992484D02*
X8041491Y-13982960D01*
X8041491Y-13982960D02*
X8031967Y-13973436D01*
X8031967Y-13973436D02*
X8022443Y-13954388D01*
X8022443Y-13954388D02*
X8012920Y-13916293D01*
X8012920Y-13916293D02*
X8012920Y-13868674D01*
X8012920Y-13868674D02*
X8022443Y-13830579D01*
X8022443Y-13830579D02*
X8031967Y-13811531D01*
X8031967Y-13811531D02*
X8041491Y-13802008D01*
X8041491Y-13802008D02*
X8060539Y-13792484D01*
X8212920Y-13992484D02*
X8212920Y-13859150D01*
X8212920Y-13878198D02*
X8222443Y-13868674D01*
X8222443Y-13868674D02*
X8241491Y-13859150D01*
X8241491Y-13859150D02*
X8270063Y-13859150D01*
X8270063Y-13859150D02*
X8289110Y-13868674D01*
X8289110Y-13868674D02*
X8298634Y-13887722D01*
X8298634Y-13887722D02*
X8298634Y-13992484D01*
X8298634Y-13887722D02*
X8308158Y-13868674D01*
X8308158Y-13868674D02*
X8327205Y-13859150D01*
X8327205Y-13859150D02*
X8355777Y-13859150D01*
X8355777Y-13859150D02*
X8374824Y-13868674D01*
X8374824Y-13868674D02*
X8384348Y-13887722D01*
X8384348Y-13887722D02*
X8384348Y-13992484D01*
X8479586Y-13992484D02*
X8479586Y-13859150D01*
X8479586Y-13878198D02*
X8489110Y-13868674D01*
X8489110Y-13868674D02*
X8508158Y-13859150D01*
X8508158Y-13859150D02*
X8536729Y-13859150D01*
X8536729Y-13859150D02*
X8555777Y-13868674D01*
X8555777Y-13868674D02*
X8565301Y-13887722D01*
X8565301Y-13887722D02*
X8565301Y-13992484D01*
X8565301Y-13887722D02*
X8574825Y-13868674D01*
X8574825Y-13868674D02*
X8593872Y-13859150D01*
X8593872Y-13859150D02*
X8622444Y-13859150D01*
X8622444Y-13859150D02*
X8641491Y-13868674D01*
X8641491Y-13868674D02*
X8651015Y-13887722D01*
X8651015Y-13887722D02*
X8651015Y-13992484D01*
X9041491Y-13782960D02*
X8870063Y-14040103D01*
X9298634Y-13792484D02*
X9317682Y-13792484D01*
X9317682Y-13792484D02*
X9336729Y-13802008D01*
X9336729Y-13802008D02*
X9346253Y-13811531D01*
X9346253Y-13811531D02*
X9355777Y-13830579D01*
X9355777Y-13830579D02*
X9365301Y-13868674D01*
X9365301Y-13868674D02*
X9365301Y-13916293D01*
X9365301Y-13916293D02*
X9355777Y-13954388D01*
X9355777Y-13954388D02*
X9346253Y-13973436D01*
X9346253Y-13973436D02*
X9336729Y-13982960D01*
X9336729Y-13982960D02*
X9317682Y-13992484D01*
X9317682Y-13992484D02*
X9298634Y-13992484D01*
X9298634Y-13992484D02*
X9279587Y-13982960D01*
X9279587Y-13982960D02*
X9270063Y-13973436D01*
X9270063Y-13973436D02*
X9260539Y-13954388D01*
X9260539Y-13954388D02*
X9251015Y-13916293D01*
X9251015Y-13916293D02*
X9251015Y-13868674D01*
X9251015Y-13868674D02*
X9260539Y-13830579D01*
X9260539Y-13830579D02*
X9270063Y-13811531D01*
X9270063Y-13811531D02*
X9279587Y-13802008D01*
X9279587Y-13802008D02*
X9298634Y-13792484D01*
X9451015Y-13973436D02*
X9460539Y-13982960D01*
X9460539Y-13982960D02*
X9451015Y-13992484D01*
X9451015Y-13992484D02*
X9441491Y-13982960D01*
X9441491Y-13982960D02*
X9451015Y-13973436D01*
X9451015Y-13973436D02*
X9451015Y-13992484D01*
X9584348Y-13792484D02*
X9603396Y-13792484D01*
X9603396Y-13792484D02*
X9622444Y-13802008D01*
X9622444Y-13802008D02*
X9631968Y-13811531D01*
X9631968Y-13811531D02*
X9641491Y-13830579D01*
X9641491Y-13830579D02*
X9651015Y-13868674D01*
X9651015Y-13868674D02*
X9651015Y-13916293D01*
X9651015Y-13916293D02*
X9641491Y-13954388D01*
X9641491Y-13954388D02*
X9631968Y-13973436D01*
X9631968Y-13973436D02*
X9622444Y-13982960D01*
X9622444Y-13982960D02*
X9603396Y-13992484D01*
X9603396Y-13992484D02*
X9584348Y-13992484D01*
X9584348Y-13992484D02*
X9565301Y-13982960D01*
X9565301Y-13982960D02*
X9555777Y-13973436D01*
X9555777Y-13973436D02*
X9546253Y-13954388D01*
X9546253Y-13954388D02*
X9536729Y-13916293D01*
X9536729Y-13916293D02*
X9536729Y-13868674D01*
X9536729Y-13868674D02*
X9546253Y-13830579D01*
X9546253Y-13830579D02*
X9555777Y-13811531D01*
X9555777Y-13811531D02*
X9565301Y-13802008D01*
X9565301Y-13802008D02*
X9584348Y-13792484D01*
X9822444Y-13859150D02*
X9822444Y-13992484D01*
X9774825Y-13782960D02*
X9727206Y-13925817D01*
X9727206Y-13925817D02*
X9851015Y-13925817D01*
X9908158Y-13792484D02*
X10031968Y-13792484D01*
X10031968Y-13792484D02*
X9965301Y-13868674D01*
X9965301Y-13868674D02*
X9993872Y-13868674D01*
X9993872Y-13868674D02*
X10012920Y-13878198D01*
X10012920Y-13878198D02*
X10022444Y-13887722D01*
X10022444Y-13887722D02*
X10031968Y-13906769D01*
X10031968Y-13906769D02*
X10031968Y-13954388D01*
X10031968Y-13954388D02*
X10022444Y-13973436D01*
X10022444Y-13973436D02*
X10012920Y-13982960D01*
X10012920Y-13982960D02*
X9993872Y-13992484D01*
X9993872Y-13992484D02*
X9936729Y-13992484D01*
X9936729Y-13992484D02*
X9917682Y-13982960D01*
X9917682Y-13982960D02*
X9908158Y-13973436D01*
X10098634Y-13792484D02*
X10222444Y-13792484D01*
X10222444Y-13792484D02*
X10155777Y-13868674D01*
X10155777Y-13868674D02*
X10184349Y-13868674D01*
X10184349Y-13868674D02*
X10203396Y-13878198D01*
X10203396Y-13878198D02*
X10212920Y-13887722D01*
X10212920Y-13887722D02*
X10222444Y-13906769D01*
X10222444Y-13906769D02*
X10222444Y-13954388D01*
X10222444Y-13954388D02*
X10212920Y-13973436D01*
X10212920Y-13973436D02*
X10203396Y-13982960D01*
X10203396Y-13982960D02*
X10184349Y-13992484D01*
X10184349Y-13992484D02*
X10127206Y-13992484D01*
X10127206Y-13992484D02*
X10108158Y-13982960D01*
X10108158Y-13982960D02*
X10098634Y-13973436D01*
X10298634Y-13792484D02*
X10298634Y-13830579D01*
X10374825Y-13792484D02*
X10374825Y-13830579D01*
X10670063Y-14068674D02*
X10660539Y-14059150D01*
X10660539Y-14059150D02*
X10641491Y-14030579D01*
X10641491Y-14030579D02*
X10631968Y-14011531D01*
X10631968Y-14011531D02*
X10622444Y-13982960D01*
X10622444Y-13982960D02*
X10612920Y-13935341D01*
X10612920Y-13935341D02*
X10612920Y-13897246D01*
X10612920Y-13897246D02*
X10622444Y-13849627D01*
X10622444Y-13849627D02*
X10631968Y-13821055D01*
X10631968Y-13821055D02*
X10641491Y-13802008D01*
X10641491Y-13802008D02*
X10660539Y-13773436D01*
X10660539Y-13773436D02*
X10670063Y-13763912D01*
X10841491Y-13792484D02*
X10746253Y-13792484D01*
X10746253Y-13792484D02*
X10736730Y-13887722D01*
X10736730Y-13887722D02*
X10746253Y-13878198D01*
X10746253Y-13878198D02*
X10765301Y-13868674D01*
X10765301Y-13868674D02*
X10812920Y-13868674D01*
X10812920Y-13868674D02*
X10831968Y-13878198D01*
X10831968Y-13878198D02*
X10841491Y-13887722D01*
X10841491Y-13887722D02*
X10851015Y-13906769D01*
X10851015Y-13906769D02*
X10851015Y-13954388D01*
X10851015Y-13954388D02*
X10841491Y-13973436D01*
X10841491Y-13973436D02*
X10831968Y-13982960D01*
X10831968Y-13982960D02*
X10812920Y-13992484D01*
X10812920Y-13992484D02*
X10765301Y-13992484D01*
X10765301Y-13992484D02*
X10746253Y-13982960D01*
X10746253Y-13982960D02*
X10736730Y-13973436D01*
X11089111Y-13992484D02*
X11089111Y-13792484D01*
X11174825Y-13992484D02*
X11174825Y-13887722D01*
X11174825Y-13887722D02*
X11165301Y-13868674D01*
X11165301Y-13868674D02*
X11146253Y-13859150D01*
X11146253Y-13859150D02*
X11117682Y-13859150D01*
X11117682Y-13859150D02*
X11098634Y-13868674D01*
X11098634Y-13868674D02*
X11089111Y-13878198D01*
X11298634Y-13992484D02*
X11279587Y-13982960D01*
X11279587Y-13982960D02*
X11270063Y-13973436D01*
X11270063Y-13973436D02*
X11260539Y-13954388D01*
X11260539Y-13954388D02*
X11260539Y-13897246D01*
X11260539Y-13897246D02*
X11270063Y-13878198D01*
X11270063Y-13878198D02*
X11279587Y-13868674D01*
X11279587Y-13868674D02*
X11298634Y-13859150D01*
X11298634Y-13859150D02*
X11327206Y-13859150D01*
X11327206Y-13859150D02*
X11346253Y-13868674D01*
X11346253Y-13868674D02*
X11355777Y-13878198D01*
X11355777Y-13878198D02*
X11365301Y-13897246D01*
X11365301Y-13897246D02*
X11365301Y-13954388D01*
X11365301Y-13954388D02*
X11355777Y-13973436D01*
X11355777Y-13973436D02*
X11346253Y-13982960D01*
X11346253Y-13982960D02*
X11327206Y-13992484D01*
X11327206Y-13992484D02*
X11298634Y-13992484D01*
X11479587Y-13992484D02*
X11460539Y-13982960D01*
X11460539Y-13982960D02*
X11451015Y-13963912D01*
X11451015Y-13963912D02*
X11451015Y-13792484D01*
X11631968Y-13982960D02*
X11612920Y-13992484D01*
X11612920Y-13992484D02*
X11574825Y-13992484D01*
X11574825Y-13992484D02*
X11555777Y-13982960D01*
X11555777Y-13982960D02*
X11546253Y-13963912D01*
X11546253Y-13963912D02*
X11546253Y-13887722D01*
X11546253Y-13887722D02*
X11555777Y-13868674D01*
X11555777Y-13868674D02*
X11574825Y-13859150D01*
X11574825Y-13859150D02*
X11612920Y-13859150D01*
X11612920Y-13859150D02*
X11631968Y-13868674D01*
X11631968Y-13868674D02*
X11641491Y-13887722D01*
X11641491Y-13887722D02*
X11641491Y-13906769D01*
X11641491Y-13906769D02*
X11546253Y-13925817D01*
X11717682Y-13982960D02*
X11736730Y-13992484D01*
X11736730Y-13992484D02*
X11774825Y-13992484D01*
X11774825Y-13992484D02*
X11793872Y-13982960D01*
X11793872Y-13982960D02*
X11803396Y-13963912D01*
X11803396Y-13963912D02*
X11803396Y-13954388D01*
X11803396Y-13954388D02*
X11793872Y-13935341D01*
X11793872Y-13935341D02*
X11774825Y-13925817D01*
X11774825Y-13925817D02*
X11746253Y-13925817D01*
X11746253Y-13925817D02*
X11727206Y-13916293D01*
X11727206Y-13916293D02*
X11717682Y-13897246D01*
X11717682Y-13897246D02*
X11717682Y-13887722D01*
X11717682Y-13887722D02*
X11727206Y-13868674D01*
X11727206Y-13868674D02*
X11746253Y-13859150D01*
X11746253Y-13859150D02*
X11774825Y-13859150D01*
X11774825Y-13859150D02*
X11793872Y-13868674D01*
X11870063Y-14068674D02*
X11879587Y-14059150D01*
X11879587Y-14059150D02*
X11898634Y-14030579D01*
X11898634Y-14030579D02*
X11908158Y-14011531D01*
X11908158Y-14011531D02*
X11917682Y-13982960D01*
X11917682Y-13982960D02*
X11927206Y-13935341D01*
X11927206Y-13935341D02*
X11927206Y-13897246D01*
X11927206Y-13897246D02*
X11917682Y-13849627D01*
X11917682Y-13849627D02*
X11908158Y-13821055D01*
X11908158Y-13821055D02*
X11898634Y-13802008D01*
X11898634Y-13802008D02*
X11879587Y-13773436D01*
X11879587Y-13773436D02*
X11870063Y-13763912D01*
X6895000Y-14065000D02*
X7095000Y-14265000D01*
X7095000Y-14065000D02*
X6895000Y-14265000D01*
X7095000Y-14165000D02*
G75*
G02*
X6895000Y-14165000I-100000J0D01*
G01*
X6895000Y-14165000D02*
G75*
G02*
X7095000Y-14165000I100000J0D01*
G01*
X7336729Y-14056484D02*
X7460539Y-14056484D01*
X7460539Y-14056484D02*
X7393872Y-14132674D01*
X7393872Y-14132674D02*
X7422443Y-14132674D01*
X7422443Y-14132674D02*
X7441491Y-14142198D01*
X7441491Y-14142198D02*
X7451015Y-14151722D01*
X7451015Y-14151722D02*
X7460539Y-14170769D01*
X7460539Y-14170769D02*
X7460539Y-14218388D01*
X7460539Y-14218388D02*
X7451015Y-14237436D01*
X7451015Y-14237436D02*
X7441491Y-14246960D01*
X7441491Y-14246960D02*
X7422443Y-14256484D01*
X7422443Y-14256484D02*
X7365301Y-14256484D01*
X7365301Y-14256484D02*
X7346253Y-14246960D01*
X7346253Y-14246960D02*
X7336729Y-14237436D01*
X7546253Y-14237436D02*
X7555777Y-14246960D01*
X7555777Y-14246960D02*
X7546253Y-14256484D01*
X7546253Y-14256484D02*
X7536729Y-14246960D01*
X7536729Y-14246960D02*
X7546253Y-14237436D01*
X7546253Y-14237436D02*
X7546253Y-14256484D01*
X7679586Y-14056484D02*
X7698634Y-14056484D01*
X7698634Y-14056484D02*
X7717682Y-14066008D01*
X7717682Y-14066008D02*
X7727205Y-14075531D01*
X7727205Y-14075531D02*
X7736729Y-14094579D01*
X7736729Y-14094579D02*
X7746253Y-14132674D01*
X7746253Y-14132674D02*
X7746253Y-14180293D01*
X7746253Y-14180293D02*
X7736729Y-14218388D01*
X7736729Y-14218388D02*
X7727205Y-14237436D01*
X7727205Y-14237436D02*
X7717682Y-14246960D01*
X7717682Y-14246960D02*
X7698634Y-14256484D01*
X7698634Y-14256484D02*
X7679586Y-14256484D01*
X7679586Y-14256484D02*
X7660539Y-14246960D01*
X7660539Y-14246960D02*
X7651015Y-14237436D01*
X7651015Y-14237436D02*
X7641491Y-14218388D01*
X7641491Y-14218388D02*
X7631967Y-14180293D01*
X7631967Y-14180293D02*
X7631967Y-14132674D01*
X7631967Y-14132674D02*
X7641491Y-14094579D01*
X7641491Y-14094579D02*
X7651015Y-14075531D01*
X7651015Y-14075531D02*
X7660539Y-14066008D01*
X7660539Y-14066008D02*
X7679586Y-14056484D01*
X7870062Y-14056484D02*
X7889110Y-14056484D01*
X7889110Y-14056484D02*
X7908158Y-14066008D01*
X7908158Y-14066008D02*
X7917682Y-14075531D01*
X7917682Y-14075531D02*
X7927205Y-14094579D01*
X7927205Y-14094579D02*
X7936729Y-14132674D01*
X7936729Y-14132674D02*
X7936729Y-14180293D01*
X7936729Y-14180293D02*
X7927205Y-14218388D01*
X7927205Y-14218388D02*
X7917682Y-14237436D01*
X7917682Y-14237436D02*
X7908158Y-14246960D01*
X7908158Y-14246960D02*
X7889110Y-14256484D01*
X7889110Y-14256484D02*
X7870062Y-14256484D01*
X7870062Y-14256484D02*
X7851015Y-14246960D01*
X7851015Y-14246960D02*
X7841491Y-14237436D01*
X7841491Y-14237436D02*
X7831967Y-14218388D01*
X7831967Y-14218388D02*
X7822443Y-14180293D01*
X7822443Y-14180293D02*
X7822443Y-14132674D01*
X7822443Y-14132674D02*
X7831967Y-14094579D01*
X7831967Y-14094579D02*
X7841491Y-14075531D01*
X7841491Y-14075531D02*
X7851015Y-14066008D01*
X7851015Y-14066008D02*
X7870062Y-14056484D01*
X8060539Y-14056484D02*
X8079586Y-14056484D01*
X8079586Y-14056484D02*
X8098634Y-14066008D01*
X8098634Y-14066008D02*
X8108158Y-14075531D01*
X8108158Y-14075531D02*
X8117682Y-14094579D01*
X8117682Y-14094579D02*
X8127205Y-14132674D01*
X8127205Y-14132674D02*
X8127205Y-14180293D01*
X8127205Y-14180293D02*
X8117682Y-14218388D01*
X8117682Y-14218388D02*
X8108158Y-14237436D01*
X8108158Y-14237436D02*
X8098634Y-14246960D01*
X8098634Y-14246960D02*
X8079586Y-14256484D01*
X8079586Y-14256484D02*
X8060539Y-14256484D01*
X8060539Y-14256484D02*
X8041491Y-14246960D01*
X8041491Y-14246960D02*
X8031967Y-14237436D01*
X8031967Y-14237436D02*
X8022443Y-14218388D01*
X8022443Y-14218388D02*
X8012920Y-14180293D01*
X8012920Y-14180293D02*
X8012920Y-14132674D01*
X8012920Y-14132674D02*
X8022443Y-14094579D01*
X8022443Y-14094579D02*
X8031967Y-14075531D01*
X8031967Y-14075531D02*
X8041491Y-14066008D01*
X8041491Y-14066008D02*
X8060539Y-14056484D01*
X8212920Y-14256484D02*
X8212920Y-14123150D01*
X8212920Y-14142198D02*
X8222443Y-14132674D01*
X8222443Y-14132674D02*
X8241491Y-14123150D01*
X8241491Y-14123150D02*
X8270063Y-14123150D01*
X8270063Y-14123150D02*
X8289110Y-14132674D01*
X8289110Y-14132674D02*
X8298634Y-14151722D01*
X8298634Y-14151722D02*
X8298634Y-14256484D01*
X8298634Y-14151722D02*
X8308158Y-14132674D01*
X8308158Y-14132674D02*
X8327205Y-14123150D01*
X8327205Y-14123150D02*
X8355777Y-14123150D01*
X8355777Y-14123150D02*
X8374824Y-14132674D01*
X8374824Y-14132674D02*
X8384348Y-14151722D01*
X8384348Y-14151722D02*
X8384348Y-14256484D01*
X8479586Y-14256484D02*
X8479586Y-14123150D01*
X8479586Y-14142198D02*
X8489110Y-14132674D01*
X8489110Y-14132674D02*
X8508158Y-14123150D01*
X8508158Y-14123150D02*
X8536729Y-14123150D01*
X8536729Y-14123150D02*
X8555777Y-14132674D01*
X8555777Y-14132674D02*
X8565301Y-14151722D01*
X8565301Y-14151722D02*
X8565301Y-14256484D01*
X8565301Y-14151722D02*
X8574825Y-14132674D01*
X8574825Y-14132674D02*
X8593872Y-14123150D01*
X8593872Y-14123150D02*
X8622444Y-14123150D01*
X8622444Y-14123150D02*
X8641491Y-14132674D01*
X8641491Y-14132674D02*
X8651015Y-14151722D01*
X8651015Y-14151722D02*
X8651015Y-14256484D01*
X9041491Y-14046960D02*
X8870063Y-14304103D01*
X9298634Y-14056484D02*
X9317682Y-14056484D01*
X9317682Y-14056484D02*
X9336729Y-14066008D01*
X9336729Y-14066008D02*
X9346253Y-14075531D01*
X9346253Y-14075531D02*
X9355777Y-14094579D01*
X9355777Y-14094579D02*
X9365301Y-14132674D01*
X9365301Y-14132674D02*
X9365301Y-14180293D01*
X9365301Y-14180293D02*
X9355777Y-14218388D01*
X9355777Y-14218388D02*
X9346253Y-14237436D01*
X9346253Y-14237436D02*
X9336729Y-14246960D01*
X9336729Y-14246960D02*
X9317682Y-14256484D01*
X9317682Y-14256484D02*
X9298634Y-14256484D01*
X9298634Y-14256484D02*
X9279587Y-14246960D01*
X9279587Y-14246960D02*
X9270063Y-14237436D01*
X9270063Y-14237436D02*
X9260539Y-14218388D01*
X9260539Y-14218388D02*
X9251015Y-14180293D01*
X9251015Y-14180293D02*
X9251015Y-14132674D01*
X9251015Y-14132674D02*
X9260539Y-14094579D01*
X9260539Y-14094579D02*
X9270063Y-14075531D01*
X9270063Y-14075531D02*
X9279587Y-14066008D01*
X9279587Y-14066008D02*
X9298634Y-14056484D01*
X9451015Y-14237436D02*
X9460539Y-14246960D01*
X9460539Y-14246960D02*
X9451015Y-14256484D01*
X9451015Y-14256484D02*
X9441491Y-14246960D01*
X9441491Y-14246960D02*
X9451015Y-14237436D01*
X9451015Y-14237436D02*
X9451015Y-14256484D01*
X9651015Y-14256484D02*
X9536729Y-14256484D01*
X9593872Y-14256484D02*
X9593872Y-14056484D01*
X9593872Y-14056484D02*
X9574825Y-14085055D01*
X9574825Y-14085055D02*
X9555777Y-14104103D01*
X9555777Y-14104103D02*
X9536729Y-14113627D01*
X9841491Y-14256484D02*
X9727206Y-14256484D01*
X9784348Y-14256484D02*
X9784348Y-14056484D01*
X9784348Y-14056484D02*
X9765301Y-14085055D01*
X9765301Y-14085055D02*
X9746253Y-14104103D01*
X9746253Y-14104103D02*
X9727206Y-14113627D01*
X9955777Y-14142198D02*
X9936729Y-14132674D01*
X9936729Y-14132674D02*
X9927206Y-14123150D01*
X9927206Y-14123150D02*
X9917682Y-14104103D01*
X9917682Y-14104103D02*
X9917682Y-14094579D01*
X9917682Y-14094579D02*
X9927206Y-14075531D01*
X9927206Y-14075531D02*
X9936729Y-14066008D01*
X9936729Y-14066008D02*
X9955777Y-14056484D01*
X9955777Y-14056484D02*
X9993872Y-14056484D01*
X9993872Y-14056484D02*
X10012920Y-14066008D01*
X10012920Y-14066008D02*
X10022444Y-14075531D01*
X10022444Y-14075531D02*
X10031968Y-14094579D01*
X10031968Y-14094579D02*
X10031968Y-14104103D01*
X10031968Y-14104103D02*
X10022444Y-14123150D01*
X10022444Y-14123150D02*
X10012920Y-14132674D01*
X10012920Y-14132674D02*
X9993872Y-14142198D01*
X9993872Y-14142198D02*
X9955777Y-14142198D01*
X9955777Y-14142198D02*
X9936729Y-14151722D01*
X9936729Y-14151722D02*
X9927206Y-14161246D01*
X9927206Y-14161246D02*
X9917682Y-14180293D01*
X9917682Y-14180293D02*
X9917682Y-14218388D01*
X9917682Y-14218388D02*
X9927206Y-14237436D01*
X9927206Y-14237436D02*
X9936729Y-14246960D01*
X9936729Y-14246960D02*
X9955777Y-14256484D01*
X9955777Y-14256484D02*
X9993872Y-14256484D01*
X9993872Y-14256484D02*
X10012920Y-14246960D01*
X10012920Y-14246960D02*
X10022444Y-14237436D01*
X10022444Y-14237436D02*
X10031968Y-14218388D01*
X10031968Y-14218388D02*
X10031968Y-14180293D01*
X10031968Y-14180293D02*
X10022444Y-14161246D01*
X10022444Y-14161246D02*
X10012920Y-14151722D01*
X10012920Y-14151722D02*
X9993872Y-14142198D01*
X10222444Y-14256484D02*
X10108158Y-14256484D01*
X10165301Y-14256484D02*
X10165301Y-14056484D01*
X10165301Y-14056484D02*
X10146253Y-14085055D01*
X10146253Y-14085055D02*
X10127206Y-14104103D01*
X10127206Y-14104103D02*
X10108158Y-14113627D01*
X10298634Y-14056484D02*
X10298634Y-14094579D01*
X10374825Y-14056484D02*
X10374825Y-14094579D01*
X10670063Y-14332674D02*
X10660539Y-14323150D01*
X10660539Y-14323150D02*
X10641491Y-14294579D01*
X10641491Y-14294579D02*
X10631968Y-14275531D01*
X10631968Y-14275531D02*
X10622444Y-14246960D01*
X10622444Y-14246960D02*
X10612920Y-14199341D01*
X10612920Y-14199341D02*
X10612920Y-14161246D01*
X10612920Y-14161246D02*
X10622444Y-14113627D01*
X10622444Y-14113627D02*
X10631968Y-14085055D01*
X10631968Y-14085055D02*
X10641491Y-14066008D01*
X10641491Y-14066008D02*
X10660539Y-14037436D01*
X10660539Y-14037436D02*
X10670063Y-14027912D01*
X10736730Y-14075531D02*
X10746253Y-14066008D01*
X10746253Y-14066008D02*
X10765301Y-14056484D01*
X10765301Y-14056484D02*
X10812920Y-14056484D01*
X10812920Y-14056484D02*
X10831968Y-14066008D01*
X10831968Y-14066008D02*
X10841491Y-14075531D01*
X10841491Y-14075531D02*
X10851015Y-14094579D01*
X10851015Y-14094579D02*
X10851015Y-14113627D01*
X10851015Y-14113627D02*
X10841491Y-14142198D01*
X10841491Y-14142198D02*
X10727206Y-14256484D01*
X10727206Y-14256484D02*
X10851015Y-14256484D01*
X11089111Y-14256484D02*
X11089111Y-14056484D01*
X11174825Y-14256484D02*
X11174825Y-14151722D01*
X11174825Y-14151722D02*
X11165301Y-14132674D01*
X11165301Y-14132674D02*
X11146253Y-14123150D01*
X11146253Y-14123150D02*
X11117682Y-14123150D01*
X11117682Y-14123150D02*
X11098634Y-14132674D01*
X11098634Y-14132674D02*
X11089111Y-14142198D01*
X11298634Y-14256484D02*
X11279587Y-14246960D01*
X11279587Y-14246960D02*
X11270063Y-14237436D01*
X11270063Y-14237436D02*
X11260539Y-14218388D01*
X11260539Y-14218388D02*
X11260539Y-14161246D01*
X11260539Y-14161246D02*
X11270063Y-14142198D01*
X11270063Y-14142198D02*
X11279587Y-14132674D01*
X11279587Y-14132674D02*
X11298634Y-14123150D01*
X11298634Y-14123150D02*
X11327206Y-14123150D01*
X11327206Y-14123150D02*
X11346253Y-14132674D01*
X11346253Y-14132674D02*
X11355777Y-14142198D01*
X11355777Y-14142198D02*
X11365301Y-14161246D01*
X11365301Y-14161246D02*
X11365301Y-14218388D01*
X11365301Y-14218388D02*
X11355777Y-14237436D01*
X11355777Y-14237436D02*
X11346253Y-14246960D01*
X11346253Y-14246960D02*
X11327206Y-14256484D01*
X11327206Y-14256484D02*
X11298634Y-14256484D01*
X11479587Y-14256484D02*
X11460539Y-14246960D01*
X11460539Y-14246960D02*
X11451015Y-14227912D01*
X11451015Y-14227912D02*
X11451015Y-14056484D01*
X11631968Y-14246960D02*
X11612920Y-14256484D01*
X11612920Y-14256484D02*
X11574825Y-14256484D01*
X11574825Y-14256484D02*
X11555777Y-14246960D01*
X11555777Y-14246960D02*
X11546253Y-14227912D01*
X11546253Y-14227912D02*
X11546253Y-14151722D01*
X11546253Y-14151722D02*
X11555777Y-14132674D01*
X11555777Y-14132674D02*
X11574825Y-14123150D01*
X11574825Y-14123150D02*
X11612920Y-14123150D01*
X11612920Y-14123150D02*
X11631968Y-14132674D01*
X11631968Y-14132674D02*
X11641491Y-14151722D01*
X11641491Y-14151722D02*
X11641491Y-14170769D01*
X11641491Y-14170769D02*
X11546253Y-14189817D01*
X11717682Y-14246960D02*
X11736730Y-14256484D01*
X11736730Y-14256484D02*
X11774825Y-14256484D01*
X11774825Y-14256484D02*
X11793872Y-14246960D01*
X11793872Y-14246960D02*
X11803396Y-14227912D01*
X11803396Y-14227912D02*
X11803396Y-14218388D01*
X11803396Y-14218388D02*
X11793872Y-14199341D01*
X11793872Y-14199341D02*
X11774825Y-14189817D01*
X11774825Y-14189817D02*
X11746253Y-14189817D01*
X11746253Y-14189817D02*
X11727206Y-14180293D01*
X11727206Y-14180293D02*
X11717682Y-14161246D01*
X11717682Y-14161246D02*
X11717682Y-14151722D01*
X11717682Y-14151722D02*
X11727206Y-14132674D01*
X11727206Y-14132674D02*
X11746253Y-14123150D01*
X11746253Y-14123150D02*
X11774825Y-14123150D01*
X11774825Y-14123150D02*
X11793872Y-14132674D01*
X11870063Y-14332674D02*
X11879587Y-14323150D01*
X11879587Y-14323150D02*
X11898634Y-14294579D01*
X11898634Y-14294579D02*
X11908158Y-14275531D01*
X11908158Y-14275531D02*
X11917682Y-14246960D01*
X11917682Y-14246960D02*
X11927206Y-14199341D01*
X11927206Y-14199341D02*
X11927206Y-14161246D01*
X11927206Y-14161246D02*
X11917682Y-14113627D01*
X11917682Y-14113627D02*
X11908158Y-14085055D01*
X11908158Y-14085055D02*
X11898634Y-14066008D01*
X11898634Y-14066008D02*
X11879587Y-14037436D01*
X11879587Y-14037436D02*
X11870063Y-14027912D01*
M02*
