M48
; DRILL file {KiCad 8.0.5} date 2024-09-14T22:06:39+0200
; FORMAT={-:-/ absolute / metric / decimal}
; #@! TF.CreationDate,2024-09-14T22:06:39+02:00
; #@! TF.GenerationSoftware,Kicad,Pcbnew,8.0.5
; #@! TF.FileFunction,Plated,1,2,PTH
FMAT,2
METRIC
; #@! TA.AperFunction,Plated,PTH,ComponentDrill
T1C0.800
; #@! TA.AperFunction,Plated,PTH,ViaDrill
T2C0.813
; #@! TA.AperFunction,Plated,PTH,ComponentDrill
T3C1.000
; #@! TA.AperFunction,Plated,PTH,ComponentDrill
T4C1.020
; #@! TA.AperFunction,Plated,PTH,ComponentDrill
T5C1.100
; #@! TA.AperFunction,Plated,PTH,ComponentDrill
T6C3.000
%
G90
G05
T1
X74.383Y-81.534
X76.883Y-81.534
X78.105Y-86.253
X78.105Y-88.753
X80.137Y-101.874
X80.137Y-104.374
X80.274Y-91.455
X80.274Y-99.075
X80.645Y-84.836
X80.645Y-88.138
X80.665Y-81.788
X82.804Y-102.362
X82.804Y-105.537
X82.804Y-108.712
X82.814Y-91.455
X82.814Y-99.075
X83.165Y-81.788
X85.217Y-71.12
X85.217Y-78.74
X85.354Y-91.455
X85.354Y-99.075
X87.894Y-91.455
X87.894Y-99.075
X88.265Y-84.836
X88.265Y-88.138
X88.77Y-73.66
X88.77Y-81.28
X90.424Y-102.362
X90.424Y-105.537
X90.424Y-108.712
X91.564Y-70.612
X91.564Y-84.836
X91.567Y-87.376
X91.567Y-94.996
X92.072Y-74.041
X92.072Y-81.661
X94.612Y-74.041
X94.612Y-81.661
X94.996Y-94.234
X97.152Y-74.041
X97.152Y-81.661
X97.536Y-90.551
X97.536Y-101.552
X97.536Y-104.052
X99.184Y-70.612
X99.184Y-84.836
X99.692Y-74.041
X99.692Y-81.661
X100.076Y-90.551
X101.874Y-98.298
X102.616Y-90.551
X102.616Y-94.234
X103.971Y-72.532
X103.971Y-80.152
X104.374Y-98.298
X105.029Y-94.869
X105.156Y-91.567
X106.511Y-72.532
X106.511Y-80.152
X106.827Y-98.298
X109.051Y-72.532
X109.051Y-80.152
X109.327Y-98.298
X111.591Y-72.532
X111.591Y-80.152
X112.649Y-94.869
X112.776Y-91.567
X139.935Y-83.616
X139.941Y-80.324
X139.954Y-77.089
X139.961Y-86.674
X140.081Y-89.341
X140.081Y-96.961
X140.668Y-57.785
X142.715Y-100.321
X142.715Y-102.861
X142.715Y-105.401
X142.715Y-107.941
X142.735Y-110.824
X142.735Y-113.324
X143.168Y-57.785
X143.497Y-89.341
X143.497Y-96.961
X144.961Y-86.674
X146.799Y-89.341
X146.799Y-96.961
X147.555Y-83.616
X147.561Y-80.324
X147.574Y-77.089
X149.86Y-89.341
X149.86Y-96.961
X150.335Y-100.321
X150.335Y-102.861
X150.335Y-105.401
X150.335Y-107.941
X150.482Y-110.824
X150.482Y-113.324
T2
X74.384Y-93.98
X74.384Y-95.682
X77.254Y-93.98
X77.254Y-95.682
X84.109Y-96.139
X86.599Y-96.139
X91.567Y-90.043
X91.567Y-92.837
X98.426Y-112.775
X99.633Y-115.635
X100.519Y-110.809
X101.346Y-85.09
X101.727Y-117.856
X103.505Y-68.834
X105.664Y-85.09
X106.268Y-68.834
X141.816Y-88.707
X142.826Y-91.772
X144.272Y-76.962
X144.272Y-79.858
X145.531Y-105.508
X146.884Y-106.862
X147.066Y-100.584
X147.701Y-102.743
T3
X78.247Y-71.475
X78.247Y-74.015
X78.486Y-109.728
X78.486Y-112.268
X78.486Y-116.713
X78.486Y-119.253
X116.016Y-111.198
X118.556Y-111.198
X121.096Y-111.198
X123.636Y-111.198
X127.695Y-111.128
X130.235Y-111.128
X136.336Y-111.071
X138.876Y-111.071
X143.764Y-63.246
X143.764Y-65.786
X143.764Y-68.326
X143.764Y-70.866
X143.764Y-73.406
T4
X117.189Y-57.667
X117.189Y-60.207
X117.189Y-62.747
X117.189Y-65.287
X117.189Y-67.827
X117.189Y-70.367
X117.189Y-72.907
X117.189Y-75.447
X117.189Y-77.987
X117.189Y-80.527
X117.189Y-83.067
X117.189Y-85.607
X117.189Y-88.147
X117.189Y-90.687
X117.189Y-93.227
X117.189Y-95.767
X117.189Y-98.307
X117.189Y-100.847
X117.189Y-103.387
X117.189Y-105.927
X123.539Y-105.697
X126.079Y-105.697
X128.619Y-105.697
X134.969Y-57.667
X134.969Y-60.207
X134.969Y-62.747
X134.969Y-65.287
X134.969Y-67.827
X134.969Y-70.367
X134.969Y-72.907
X134.969Y-75.447
X134.969Y-77.987
X134.969Y-80.527
X134.969Y-83.067
X134.969Y-85.607
X134.969Y-88.147
X134.969Y-90.687
X134.969Y-93.227
X134.969Y-95.767
X134.969Y-98.307
X134.969Y-100.847
X134.969Y-103.387
X134.969Y-105.927
T5
X99.06Y-108.077
X99.06Y-118.237
X104.267Y-101.219
X106.807Y-101.219
X109.347Y-101.219
T6
X109.0Y-58.0
X149.0Y-58.0
M30
